<?xml version="1.0" encoding="UTF-8" standalone="no"?>
<!DOCTYPE svg PUBLIC "-//W3C//DTD SVG 1.1//EN"
 "http://www.w3.org/Graphics/SVG/1.1/DTD/svg11.dtd">
<!-- Generated by graphviz version 2.49.3 (0)
 -->
<!-- Title: teams Pages: 1 -->
<svg width="1037pt" height="965pt"
 viewBox="0.00 0.00 1037.22 965.25" xmlns="http://www.w3.org/2000/svg" xmlns:xlink="http://www.w3.org/1999/xlink">
<g id="graph0" class="graph" transform="scale(1 1) rotate(0) translate(4 961.25)">
<title>teams</title>
<polygon fill="white" stroke="transparent" points="-4,4 -4,-961.25 1033.22,-961.25 1033.22,4 -4,4"/>
<!-- DEFCON_QUALS -->
<g id="node1" class="node">
<title>DEFCON_QUALS</title>
<g id="a_node1"><a xlink:href="https://quals.2022.nautilus.institute/dashboard" xlink:title="DEFCON_QUALS">
<ellipse fill="none" stroke="black" stroke-width="2" cx="504.78" cy="-480.19" rx="83.39" ry="18"/>
<text text-anchor="middle" x="504.78" y="-476.49" font-family="JetBrains Mono" font-size="14.00">DEFCON_QUALS</text>
</a>
</g>
</g>
<!-- perfect r✪✪✪t -->
<g id="node2" class="node">
<title>perfect r✪✪✪t</title>
<g id="a_node2"><a xlink:href="https://ctftime.org/team/176403" xlink:title="perfect r✪✪✪t">
<ellipse fill="none" stroke="#db4437" cx="772.85" cy="-563.36" rx="73.39" ry="18"/>
<text text-anchor="middle" x="772.85" y="-559.66" font-family="JetBrains Mono" font-size="14.00" fill="#db4437">perfect r✪✪✪t</text>
</a>
</g>
</g>
<!-- perfect r✪✪✪t&#45;&gt;DEFCON_QUALS -->
<g id="edge1" class="edge">
<title>perfect r✪✪✪t&#45;&gt;DEFCON_QUALS</title>
<path fill="none" stroke="black" stroke-width="2" d="M714.03,-552.45C667.36,-543.81 609.92,-533.16 609.92,-533.16 609.92,-533.16 576.27,-516.21 547.04,-501.48"/>
<polygon fill="black" stroke="black" stroke-width="2" points="548.26,-498.18 537.76,-496.8 545.11,-504.43 548.26,-498.18"/>
</g>
<!-- Balsn.217@TSJ.tw -->
<g id="node3" class="node">
<title>Balsn.217@TSJ.tw</title>
<g id="a_node3"><a xlink:href="https://ctftime.org/team/189868" xlink:title="Balsn.217@TSJ.tw">
<ellipse fill="none" stroke="#db4437" cx="501.23" cy="-210.64" rx="85.59" ry="18"/>
<text text-anchor="middle" x="501.23" y="-206.94" font-family="JetBrains Mono" font-size="14.00" fill="#db4437">Balsn.217@TSJ.tw</text>
</a>
</g>
</g>
<!-- Balsn.217@TSJ.tw&#45;&gt;DEFCON_QUALS -->
<g id="edge2" class="edge">
<title>Balsn.217@TSJ.tw&#45;&gt;DEFCON_QUALS</title>
<path fill="none" stroke="black" stroke-width="2" d="M502.65,-228.65C505.4,-263.83 511.24,-338.25 511.24,-338.25 511.24,-338.25 507.95,-410.47 506.07,-451.88"/>
<polygon fill="black" stroke="black" stroke-width="2" points="502.57,-451.77 505.61,-461.92 509.56,-452.09 502.57,-451.77"/>
</g>
<!-- The Duck -->
<g id="node4" class="node">
<title>The Duck</title>
<g id="a_node4"><a xlink:href="https://ctftime.org/team/111501" xlink:title="The Duck">
<ellipse fill="none" stroke="#db4437" cx="484.22" cy="-620.99" rx="48.19" ry="18"/>
<text text-anchor="middle" x="484.22" y="-617.29" font-family="JetBrains Mono" font-size="14.00" fill="#db4437">The Duck</text>
</a>
</g>
</g>
<!-- The Duck&#45;&gt;DEFCON_QUALS -->
<g id="edge3" class="edge">
<title>The Duck&#45;&gt;DEFCON_QUALS</title>
<path fill="none" stroke="black" stroke-width="2" d="M486.87,-602.87C490.37,-578.9 496.57,-536.39 500.68,-508.25"/>
<polygon fill="black" stroke="black" stroke-width="2" points="504.16,-508.64 502.15,-498.24 497.24,-507.63 504.16,-508.64"/>
</g>
<!-- Sauercloud -->
<g id="node5" class="node">
<title>Sauercloud</title>
<g id="a_node5"><a xlink:href="https://ctftime.org/team/54748" xlink:title="Sauercloud">
<ellipse fill="none" stroke="#db4437" cx="302.3" cy="-692.36" rx="55.49" ry="18"/>
<text text-anchor="middle" x="302.3" y="-688.66" font-family="JetBrains Mono" font-size="14.00" fill="#db4437">Sauercloud</text>
</a>
</g>
</g>
<!-- Sauercloud&#45;&gt;DEFCON_QUALS -->
<g id="edge4" class="edge">
<title>Sauercloud&#45;&gt;DEFCON_QUALS</title>
<path fill="none" stroke="black" stroke-width="2" d="M318.87,-675C354.6,-637.56 439.02,-549.1 480.68,-505.45"/>
<polygon fill="black" stroke="black" stroke-width="2" points="483.32,-507.74 487.7,-498.09 478.26,-502.91 483.32,-507.74"/>
</g>
<!-- Water Paddler -->
<g id="node6" class="node">
<title>Water Paddler</title>
<g id="a_node6"><a xlink:href="https://ctftime.org/team/155019" xlink:title="Water Paddler">
<ellipse fill="none" stroke="#db4437" cx="346.52" cy="-517.52" rx="66.89" ry="18"/>
<text text-anchor="middle" x="346.52" y="-513.82" font-family="JetBrains Mono" font-size="14.00" fill="#db4437">Water Paddler</text>
</a>
</g>
</g>
<!-- Water Paddler&#45;&gt;DEFCON_QUALS -->
<g id="edge5" class="edge">
<title>Water Paddler&#45;&gt;DEFCON_QUALS</title>
<path fill="none" stroke="black" stroke-width="2" d="M397.03,-505.6C410.21,-502.5 424.6,-499.1 438.46,-495.83"/>
<polygon fill="black" stroke="black" stroke-width="2" points="439.51,-499.18 448.44,-493.48 437.9,-492.37 439.51,-499.18"/>
</g>
<!-- PTB_WTL -->
<g id="node7" class="node">
<title>PTB_WTL</title>
<g id="a_node7"><a xlink:href="https://ctftime.org/team/119975" xlink:title="PTB_WTL">
<ellipse fill="none" stroke="#db4437" cx="283.45" cy="-364.2" rx="51.99" ry="18"/>
<text text-anchor="middle" x="283.45" y="-360.5" font-family="JetBrains Mono" font-size="14.00" fill="#db4437">PTB_WTL</text>
</a>
</g>
</g>
<!-- PTB_WTL&#45;&gt;DEFCON_QUALS -->
<g id="edge6" class="edge">
<title>PTB_WTL&#45;&gt;DEFCON_QUALS</title>
<path fill="none" stroke="black" stroke-width="2" d="M312.38,-379.36C351.11,-399.66 420.01,-435.76 463.99,-458.81"/>
<polygon fill="black" stroke="black" stroke-width="2" points="462.49,-461.98 472.97,-463.52 465.74,-455.78 462.49,-461.98"/>
</g>
<!-- ./V /home/r/.bin/tw -->
<g id="node8" class="node">
<title>./V /home/r/.bin/tw</title>
<g id="a_node8"><a xlink:href="https://ctftime.org/team/189869" xlink:title="./V /home/r/.bin/tw">
<ellipse fill="none" stroke="#db4437" cx="698.63" cy="-428.96" rx="81.79" ry="18"/>
<text text-anchor="middle" x="698.63" y="-425.26" font-family="JetBrains Mono" font-size="14.00" fill="#db4437">./V /home/r/.bin/tw</text>
</a>
</g>
</g>
<!-- ./V /home/r/.bin/tw&#45;&gt;DEFCON_QUALS -->
<g id="edge7" class="edge">
<title>./V /home/r/.bin/tw&#45;&gt;DEFCON_QUALS</title>
<path fill="none" stroke="black" stroke-width="2" d="M646.17,-442.82C621.92,-449.23 592.93,-456.89 567.52,-463.6"/>
<polygon fill="black" stroke="black" stroke-width="2" points="566.39,-460.28 557.62,-466.22 568.18,-467.05 566.39,-460.28"/>
</g>
<!-- Straw Hat -->
<g id="node9" class="node">
<title>Straw Hat</title>
<g id="a_node9"><a xlink:href="https://ctftime.org/team/19208" xlink:title="Straw Hat">
<ellipse fill="none" stroke="#db4437" cx="362.55" cy="-320.17" rx="49.29" ry="18"/>
<text text-anchor="middle" x="362.55" y="-316.47" font-family="JetBrains Mono" font-size="14.00" fill="#db4437">Straw Hat</text>
</a>
</g>
</g>
<!-- Straw Hat&#45;&gt;DEFCON_QUALS -->
<g id="edge8" class="edge">
<title>Straw Hat&#45;&gt;DEFCON_QUALS</title>
<path fill="none" stroke="black" stroke-width="2" d="M377.77,-337.29C402.75,-365.39 452.56,-421.43 481.83,-454.37"/>
<polygon fill="black" stroke="black" stroke-width="2" points="479.54,-457.06 488.8,-462.21 484.78,-452.41 479.54,-457.06"/>
</g>
<!-- PPP -->
<g id="node10" class="node">
<title>PPP</title>
<g id="a_node10"><a xlink:href="https://ctftime.org/team/284" xlink:title="PPP">
<ellipse fill="none" stroke="#db4437" cx="667.6" cy="-349.98" rx="28.7" ry="18"/>
<text text-anchor="middle" x="667.6" y="-346.28" font-family="JetBrains Mono" font-size="14.00" fill="#db4437">PPP</text>
</a>
</g>
</g>
<!-- PPP&#45;&gt;DEFCON_QUALS -->
<g id="edge9" class="edge">
<title>PPP&#45;&gt;DEFCON_QUALS</title>
<path fill="none" stroke="black" stroke-width="2" d="M649.87,-364.16C622.21,-386.28 568.48,-429.24 534.74,-456.23"/>
<polygon fill="black" stroke="black" stroke-width="2" points="532.24,-453.74 526.62,-462.72 536.62,-459.21 532.24,-453.74"/>
</g>
<!-- Katzebin -->
<g id="node11" class="node">
<title>Katzebin</title>
<g id="a_node11"><a xlink:href="https://ctftime.org/team/141539" xlink:title="Katzebin">
<ellipse fill="none" stroke="#db4437" cx="464.8" cy="-338.12" rx="44.69" ry="18"/>
<text text-anchor="middle" x="464.8" y="-334.42" font-family="JetBrains Mono" font-size="14.00" fill="#db4437">Katzebin</text>
</a>
</g>
</g>
<!-- Katzebin&#45;&gt;DEFCON_QUALS -->
<g id="edge10" class="edge">
<title>Katzebin&#45;&gt;DEFCON_QUALS</title>
<path fill="none" stroke="black" stroke-width="2" d="M469.86,-356.11C476.67,-380.32 488.86,-423.61 496.88,-452.12"/>
<polygon fill="black" stroke="black" stroke-width="2" points="493.55,-453.21 499.63,-461.89 500.29,-451.32 493.55,-453.21"/>
</g>
<!-- StarBugs -->
<g id="node12" class="node">
<title>StarBugs</title>
<g id="a_node12"><a xlink:href="https://ctftime.org/team/152239" xlink:title="StarBugs">
<ellipse fill="none" stroke="#db4437" cx="293.96" cy="-443.38" rx="46.59" ry="18"/>
<text text-anchor="middle" x="293.96" y="-439.68" font-family="JetBrains Mono" font-size="14.00" fill="#db4437">StarBugs</text>
</a>
</g>
</g>
<!-- StarBugs&#45;&gt;DEFCON_QUALS -->
<g id="edge11" class="edge">
<title>StarBugs&#45;&gt;DEFCON_QUALS</title>
<path fill="none" stroke="black" stroke-width="2" d="M336.62,-450.82C363.33,-455.49 398.49,-461.63 429.75,-467.09"/>
<polygon fill="black" stroke="black" stroke-width="2" points="429.29,-470.56 439.74,-468.83 430.5,-463.66 429.29,-470.56"/>
</g>
<!-- Shellphish -->
<g id="node13" class="node">
<title>Shellphish</title>
<g id="a_node13"><a xlink:href="https://ctftime.org/team/285" xlink:title="Shellphish">
<ellipse fill="none" stroke="#db4437" cx="647.43" cy="-519.33" rx="51.19" ry="18"/>
<text text-anchor="middle" x="647.43" y="-515.63" font-family="JetBrains Mono" font-size="14.00" fill="#db4437">Shellphish</text>
</a>
</g>
</g>
<!-- Shellphish&#45;&gt;DEFCON_QUALS -->
<g id="edge12" class="edge">
<title>Shellphish&#45;&gt;DEFCON_QUALS</title>
<path fill="none" stroke="black" stroke-width="2" d="M606.93,-508.22C594.27,-504.74 580.01,-500.83 566.24,-497.05"/>
<polygon fill="black" stroke="black" stroke-width="2" points="566.91,-493.61 556.34,-494.33 565.06,-500.36 566.91,-493.61"/>
</g>
<!-- r3kapig -->
<g id="node14" class="node">
<title>r3kapig</title>
<g id="a_node14"><a xlink:href="https://ctftime.org/team/58979" xlink:title="r3kapig">
<ellipse fill="none" stroke="#db4437" cx="647.15" cy="-627.5" rx="39.79" ry="18"/>
<text text-anchor="middle" x="647.15" y="-623.8" font-family="JetBrains Mono" font-size="14.00" fill="#db4437">r3kapig</text>
</a>
</g>
</g>
<!-- r3kapig&#45;&gt;DEFCON_QUALS -->
<g id="edge13" class="edge">
<title>r3kapig&#45;&gt;DEFCON_QUALS</title>
<path fill="none" stroke="black" stroke-width="2" d="M631.1,-610.88C606.16,-585.08 557.96,-535.21 528.85,-505.09"/>
<polygon fill="black" stroke="black" stroke-width="2" points="531.35,-502.64 521.88,-497.88 526.31,-507.5 531.35,-502.64"/>
</g>
<!-- DiceGuesser -->
<g id="node15" class="node">
<title>DiceGuesser</title>
<g id="a_node15"><a xlink:href="https://ctftime.org/team/182504" xlink:title="DiceGuesser">
<ellipse fill="none" stroke="#db4437" cx="570.67" cy="-671.53" rx="61.99" ry="18"/>
<text text-anchor="middle" x="570.67" y="-667.83" font-family="JetBrains Mono" font-size="14.00" fill="#db4437">DiceGuesser</text>
</a>
</g>
</g>
<!-- DiceGuesser&#45;&gt;DEFCON_QUALS -->
<g id="edge14" class="edge">
<title>DiceGuesser&#45;&gt;DEFCON_QUALS</title>
<path fill="none" stroke="black" stroke-width="2" d="M564.47,-653.53C552.92,-619.98 528.03,-547.7 514.32,-507.89"/>
<polygon fill="black" stroke="black" stroke-width="2" points="517.58,-506.6 511.01,-498.28 510.96,-508.87 517.58,-506.6"/>
</g>
<!-- OSUSEC -->
<g id="node16" class="node">
<title>OSUSEC</title>
<g id="a_node16"><a xlink:href="https://ctftime.org/team/12858" xlink:title="OSUSEC">
<ellipse fill="none" stroke="#db4437" cx="580.17" cy="-339.55" rx="48.19" ry="18"/>
<text text-anchor="middle" x="580.17" y="-335.85" font-family="JetBrains Mono" font-size="14.00" fill="#db4437">OSUSEC</text>
</a>
</g>
</g>
<!-- OSUSEC&#45;&gt;DEFCON_QUALS -->
<g id="edge15" class="edge">
<title>OSUSEC&#45;&gt;DEFCON_QUALS</title>
<path fill="none" stroke="black" stroke-width="2" d="M570.62,-357.36C557.66,-381.53 534.4,-424.94 519.28,-453.14"/>
<polygon fill="black" stroke="black" stroke-width="2" points="516.13,-451.61 514.49,-462.08 522.3,-454.92 516.13,-451.61"/>
</g>
<!-- KITCTF -->
<g id="node17" class="node">
<title>KITCTF</title>
<g id="a_node17"><a xlink:href="https://ctftime.org/team/7221" xlink:title="KITCTF">
<ellipse fill="none" stroke="#4285f4" cx="382.55" cy="-849.58" rx="41.69" ry="18"/>
<text text-anchor="middle" x="382.55" y="-845.88" font-family="JetBrains Mono" font-size="14.00" fill="#4285f4">KITCTF</text>
</a>
</g>
</g>
<!-- KITCTF&#45;&gt;Sauercloud -->
<g id="edge16" class="edge">
<title>KITCTF&#45;&gt;Sauercloud</title>
<path fill="none" stroke="grey" stroke-dasharray="5,2" d="M373.5,-831.85C359.53,-804.49 332.62,-751.76 316.18,-719.55"/>
<polygon fill="grey" stroke="grey" points="319.1,-717.58 311.44,-710.27 312.87,-720.76 319.1,-717.58"/>
</g>
<!-- Eat Sleep Pwn Repeat -->
<g id="node18" class="node">
<title>Eat Sleep Pwn Repeat</title>
<g id="a_node18"><a xlink:href="https://ctftime.org/team/15712" xlink:title="Eat Sleep Pwn Repeat">
<ellipse fill="none" stroke="#4285f4" cx="167.77" cy="-851.86" rx="98.58" ry="18"/>
<text text-anchor="middle" x="167.77" y="-848.16" font-family="JetBrains Mono" font-size="14.00" fill="#4285f4">Eat Sleep Pwn Repeat</text>
</a>
</g>
</g>
<!-- Eat Sleep Pwn Repeat&#45;&gt;Sauercloud -->
<g id="edge17" class="edge">
<title>Eat Sleep Pwn Repeat&#45;&gt;Sauercloud</title>
<path fill="none" stroke="grey" stroke-dasharray="5,2" d="M182.94,-833.87C206.89,-805.48 253.53,-750.19 280.88,-717.76"/>
<polygon fill="grey" stroke="grey" points="283.62,-719.94 287.39,-710.04 278.27,-715.42 283.62,-719.94"/>
</g>
<!-- Flux Fingers -->
<g id="node19" class="node">
<title>Flux Fingers</title>
<g id="a_node19"><a xlink:href="https://ctftime.org/team/551" xlink:title="Flux Fingers">
<ellipse fill="none" stroke="#4285f4" cx="59.14" cy="-702.02" rx="59.29" ry="18"/>
<text text-anchor="middle" x="59.14" y="-698.32" font-family="JetBrains Mono" font-size="14.00" fill="#4285f4">Flux Fingers</text>
</a>
</g>
</g>
<!-- Flux Fingers&#45;&gt;Sauercloud -->
<g id="edge18" class="edge">
<title>Flux Fingers&#45;&gt;Sauercloud</title>
<path fill="none" stroke="grey" stroke-dasharray="5,2" d="M118.01,-699.68C153.98,-698.25 200.04,-696.42 237.11,-694.95"/>
<polygon fill="grey" stroke="grey" points="237.46,-698.44 247.32,-694.54 237.18,-691.44 237.46,-698.44"/>
</g>
<!-- Red Rocket -->
<g id="node20" class="node">
<title>Red Rocket</title>
<g id="a_node20"><a xlink:href="https://allesctf.net/" xlink:title="Red Rocket">
<ellipse fill="none" stroke="#4285f4" cx="116.65" cy="-780.65" rx="56.59" ry="18"/>
<text text-anchor="middle" x="116.65" y="-776.95" font-family="JetBrains Mono" font-size="14.00" fill="#4285f4">Red Rocket</text>
</a>
</g>
</g>
<!-- Red Rocket&#45;&gt;Sauercloud -->
<g id="edge19" class="edge">
<title>Red Rocket&#45;&gt;Sauercloud</title>
<path fill="none" stroke="grey" stroke-dasharray="5,2" d="M148.14,-765.67C179.44,-750.79 227.58,-727.89 261.73,-711.65"/>
<polygon fill="grey" stroke="grey" points="263.44,-714.72 270.96,-707.26 260.43,-708.4 263.44,-714.72"/>
</g>
<!-- Alles! -->
<g id="node21" class="node">
<title>Alles!</title>
<g id="a_node21"><a xlink:href="https://ctftime.org/team/18419" xlink:title="Alles!">
<ellipse fill="none" stroke="#4285f4" cx="116.54" cy="-633.4" rx="32.49" ry="18"/>
<text text-anchor="middle" x="116.54" y="-629.7" font-family="JetBrains Mono" font-size="14.00" fill="#4285f4">Alles!</text>
</a>
</g>
</g>
<!-- Alles!&#45;&gt;Sauercloud -->
<g id="edge20" class="edge">
<title>Alles!&#45;&gt;Sauercloud</title>
<path fill="none" stroke="grey" stroke-dasharray="5,2" d="M144.75,-642.36C173.29,-651.42 218.02,-665.61 252.53,-676.56"/>
<polygon fill="grey" stroke="grey" points="251.84,-680.02 262.43,-679.71 253.96,-673.34 251.84,-680.02"/>
</g>
<!-- ENOFLAG -->
<g id="node22" class="node">
<title>ENOFLAG</title>
<g id="a_node22"><a xlink:href="https://ctftime.org/team/1438" xlink:title="ENOFLAG">
<ellipse fill="none" stroke="#4285f4" cx="80.03" cy="-560.2" rx="53.89" ry="18"/>
<text text-anchor="middle" x="80.03" y="-556.5" font-family="JetBrains Mono" font-size="14.00" fill="#4285f4">ENOFLAG</text>
</a>
</g>
</g>
<!-- ENOFLAG&#45;&gt;Sauercloud -->
<g id="edge21" class="edge">
<title>ENOFLAG&#45;&gt;Sauercloud</title>
<path fill="none" stroke="grey" stroke-dasharray="5,2" d="M106.84,-576.14C146.92,-599.97 222.48,-644.9 267,-671.37"/>
<polygon fill="grey" stroke="grey" points="265.36,-674.46 275.74,-676.57 268.93,-668.45 265.36,-674.46"/>
</g>
<!-- FAUST -->
<g id="node23" class="node">
<title>FAUST</title>
<g id="a_node23"><a xlink:href="https://ctftime.org/team/550" xlink:title="FAUST">
<ellipse fill="none" stroke="#4285f4" cx="362.84" cy="-939.25" rx="39.79" ry="18"/>
<text text-anchor="middle" x="362.84" y="-935.55" font-family="JetBrains Mono" font-size="14.00" fill="#4285f4">FAUST</text>
</a>
</g>
</g>
<!-- FAUST&#45;&gt;Sauercloud -->
<g id="edge22" class="edge">
<title>FAUST&#45;&gt;Sauercloud</title>
<path fill="none" stroke="grey" stroke-dasharray="5,2" d="M358.08,-921.1C351.22,-894.88 339.35,-849.53 339.35,-849.53 339.35,-849.53 319.5,-765.3 308.86,-720.17"/>
<polygon fill="grey" stroke="grey" points="312.25,-719.32 306.55,-710.39 305.44,-720.93 312.25,-719.32"/>
</g>
<!-- WizardsOfDos -->
<g id="node24" class="node">
<title>WizardsOfDos</title>
<g id="a_node24"><a xlink:href="https://ctftime.org/team/561" xlink:title="WizardsOfDos">
<ellipse fill="none" stroke="#4285f4" cx="495.63" cy="-893.62" rx="68.49" ry="18"/>
<text text-anchor="middle" x="495.63" y="-889.92" font-family="JetBrains Mono" font-size="14.00" fill="#4285f4">WizardsOfDos</text>
</a>
</g>
</g>
<!-- WizardsOfDos&#45;&gt;Sauercloud -->
<g id="edge23" class="edge">
<title>WizardsOfDos&#45;&gt;Sauercloud</title>
<path fill="none" stroke="grey" stroke-dasharray="5,2" d="M478.82,-876.12C444.38,-840.27 365.76,-758.42 326.1,-717.14"/>
<polygon fill="grey" stroke="grey" points="328.4,-714.47 318.94,-709.68 323.35,-719.32 328.4,-714.47"/>
</g>
<!-- Squareroots -->
<g id="node25" class="node">
<title>Squareroots</title>
<g id="a_node25"><a xlink:href="https://ctftime.org/team/554" xlink:title="Squareroots">
<ellipse fill="none" stroke="#4285f4" cx="256.6" cy="-895.9" rx="58.49" ry="18"/>
<text text-anchor="middle" x="256.6" y="-892.2" font-family="JetBrains Mono" font-size="14.00" fill="#4285f4">Squareroots</text>
</a>
</g>
</g>
<!-- Squareroots&#45;&gt;Sauercloud -->
<g id="edge24" class="edge">
<title>Squareroots&#45;&gt;Sauercloud</title>
<path fill="none" stroke="grey" stroke-dasharray="5,2" d="M261.37,-877.81C264.55,-865.73 268.16,-852.05 268.16,-852.05 268.16,-852.05 286.55,-766.05 296.33,-720.27"/>
<polygon fill="grey" stroke="grey" points="299.78,-720.88 298.45,-710.37 292.94,-719.41 299.78,-720.88"/>
</g>
<!-- perfect blue -->
<g id="node26" class="node">
<title>perfect blue</title>
<g id="a_node26"><a xlink:href="https://ctftime.org/team/53802" xlink:title="perfect blue">
<ellipse fill="none" stroke="#4285f4" cx="965.15" cy="-443.8" rx="56.59" ry="18"/>
<text text-anchor="middle" x="965.15" y="-440.1" font-family="JetBrains Mono" font-size="14.00" fill="#4285f4">perfect blue</text>
</a>
</g>
</g>
<!-- perfect blue&#45;&gt;perfect r✪✪✪t -->
<g id="edge25" class="edge">
<title>perfect blue&#45;&gt;perfect r✪✪✪t</title>
<path fill="none" stroke="grey" stroke-dasharray="5,2" d="M939.21,-459.92C905.52,-480.87 846.54,-517.54 808.61,-541.12"/>
<polygon fill="grey" stroke="grey" points="806.57,-538.27 799.92,-546.53 810.26,-544.22 806.57,-538.27"/>
</g>
<!-- r00timentary -->
<g id="node27" class="node">
<title>r00timentary</title>
<g id="a_node27"><a xlink:href="https://ctftime.org/team/32783" xlink:title="r00timentary">
<ellipse fill="none" stroke="#4285f4" cx="969.42" cy="-612.78" rx="59.59" ry="18"/>
<text text-anchor="middle" x="969.42" y="-609.08" font-family="JetBrains Mono" font-size="14.00" fill="#4285f4">r00timentary</text>
</a>
</g>
</g>
<!-- r00timentary&#45;&gt;perfect r✪✪✪t -->
<g id="edge26" class="edge">
<title>r00timentary&#45;&gt;perfect r✪✪✪t</title>
<path fill="none" stroke="grey" stroke-dasharray="5,2" d="M923.34,-601.19C896.74,-594.5 862.96,-586.01 834.15,-578.77"/>
<polygon fill="grey" stroke="grey" points="834.74,-575.31 824.18,-576.26 833.03,-582.1 834.74,-575.31"/>
</g>
<!-- Samsung Research -->
<g id="node28" class="node">
<title>Samsung Research</title>
<ellipse fill="none" stroke="#4285f4" cx="889.31" cy="-756.18" rx="88.28" ry="18"/>
<text text-anchor="middle" x="889.31" y="-752.48" font-family="JetBrains Mono" font-size="14.00" fill="#4285f4">Samsung Research</text>
</g>
<!-- Samsung Research&#45;&gt;perfect r✪✪✪t -->
<g id="edge27" class="edge">
<title>Samsung Research&#45;&gt;perfect r✪✪✪t</title>
<path fill="none" stroke="grey" stroke-dasharray="5,2" d="M878.36,-738.04C857.71,-703.86 812.97,-629.78 788.92,-589.95"/>
<polygon fill="grey" stroke="grey" points="791.86,-588.06 783.69,-581.31 785.87,-591.68 791.86,-588.06"/>
</g>
<!-- Balsn -->
<g id="node29" class="node">
<title>Balsn</title>
<g id="a_node29"><a xlink:href="https://ctftime.org/team/16978" xlink:title="Balsn">
<ellipse fill="none" stroke="#4285f4" cx="296.6" cy="-76.22" rx="32.49" ry="18"/>
<text text-anchor="middle" x="296.6" y="-72.52" font-family="JetBrains Mono" font-size="14.00" fill="#4285f4">Balsn</text>
</a>
</g>
</g>
<!-- Balsn&#45;&gt;Balsn.217@TSJ.tw -->
<g id="edge28" class="edge">
<title>Balsn&#45;&gt;Balsn.217@TSJ.tw</title>
<path fill="none" stroke="grey" stroke-dasharray="5,2" d="M317.73,-90.1C352.98,-113.25 424.12,-159.98 466.72,-187.97"/>
<polygon fill="grey" stroke="grey" points="464.82,-190.91 475.1,-193.47 468.67,-185.06 464.82,-190.91"/>
</g>
<!-- 217 -->
<g id="node30" class="node">
<title>217</title>
<g id="a_node30"><a xlink:href="https://ctftime.org/team/5160" xlink:title="217">
<ellipse fill="none" stroke="#4285f4" cx="579.47" cy="-23.01" rx="27" ry="18"/>
<text text-anchor="middle" x="579.47" y="-19.31" font-family="JetBrains Mono" font-size="14.00" fill="#4285f4">217</text>
</a>
</g>
</g>
<!-- 217&#45;&gt;Balsn.217@TSJ.tw -->
<g id="edge29" class="edge">
<title>217&#45;&gt;Balsn.217@TSJ.tw</title>
<path fill="none" stroke="grey" stroke-dasharray="5,2" d="M572.11,-40.66C558.42,-73.47 528.99,-144.07 512.69,-183.17"/>
<polygon fill="grey" stroke="grey" points="509.36,-182.05 508.75,-192.62 515.82,-184.74 509.36,-182.05"/>
</g>
<!-- TSJ -->
<g id="node31" class="node">
<title>TSJ</title>
<g id="a_node31"><a xlink:href="https://ctftime.org/team/150366" xlink:title="TSJ">
<ellipse fill="none" stroke="#4285f4" cx="704.41" cy="-91.74" rx="27" ry="18"/>
<text text-anchor="middle" x="704.41" y="-88.04" font-family="JetBrains Mono" font-size="14.00" fill="#4285f4">TSJ</text>
</a>
</g>
</g>
<!-- TSJ&#45;&gt;Balsn.217@TSJ.tw -->
<g id="edge30" class="edge">
<title>TSJ&#45;&gt;Balsn.217@TSJ.tw</title>
<path fill="none" stroke="grey" stroke-dasharray="5,2" d="M683.81,-103.79C649.9,-123.64 581.84,-163.47 539.07,-188.5"/>
<polygon fill="grey" stroke="grey" points="537.21,-185.53 530.35,-193.6 540.75,-191.57 537.21,-185.53"/>
</g>
<!-- HITCON -->
<g id="node32" class="node">
<title>HITCON</title>
<g id="a_node32"><a xlink:href="https://ctftime.org/team/8299" xlink:title="HITCON">
<ellipse fill="none" stroke="#4285f4" cx="424.92" cy="-18" rx="44.69" ry="18"/>
<text text-anchor="middle" x="424.92" y="-14.3" font-family="JetBrains Mono" font-size="14.00" fill="#4285f4">HITCON</text>
</a>
</g>
</g>
<!-- HITCON&#45;&gt;Balsn.217@TSJ.tw -->
<g id="edge31" class="edge">
<title>HITCON&#45;&gt;Balsn.217@TSJ.tw</title>
<path fill="none" stroke="grey" stroke-dasharray="5,2" d="M431.96,-35.78C445.33,-69.52 474.46,-143.07 490.36,-183.19"/>
<polygon fill="grey" stroke="grey" points="487.16,-184.62 494.1,-192.62 493.67,-182.04 487.16,-184.62"/>
</g>
</g>
</svg>
