<?xml version="1.0" encoding="UTF-8" standalone="no"?>
<!DOCTYPE svg PUBLIC "-//W3C//DTD SVG 1.1//EN"
 "http://www.w3.org/Graphics/SVG/1.1/DTD/svg11.dtd">
<!-- Generated by graphviz version 2.49.3 (0)
 -->
<!-- Title: teams Pages: 1 -->
<svg width="1070pt" height="937pt"
 viewBox="0.00 0.00 1069.58 937.34" xmlns="http://www.w3.org/2000/svg" xmlns:xlink="http://www.w3.org/1999/xlink">
<g id="graph0" class="graph" transform="scale(1 1) rotate(0) translate(4 933.34)">
<title>teams</title>
<polygon fill="white" stroke="transparent" points="-4,4 -4,-933.34 1065.58,-933.34 1065.58,4 -4,4"/>
<!-- DEFCON_QUALS -->
<g id="node1" class="node">
<title>DEFCON_QUALS</title>
<g id="a_node1"><a xlink:href="https://quals.2022.nautilus.institute/dashboard" xlink:title="DEFCON_QUALS">
<ellipse fill="none" stroke="black" stroke-width="2" cx="546.92" cy="-500.12" rx="83.39" ry="18"/>
<text text-anchor="middle" x="546.92" y="-496.42" font-family="JetBrains Mono" font-size="14.00">DEFCON_QUALS</text>
</a>
</g>
</g>
<!-- perfect r✪✪✪t -->
<g id="node2" class="node">
<title>perfect r✪✪✪t</title>
<g id="a_node2"><a xlink:href="https://ctftime.org/team/176403" xlink:title="perfect r✪✪✪t">
<ellipse fill="none" stroke="#db4437" cx="778.33" cy="-383.36" rx="73.39" ry="18"/>
<text text-anchor="middle" x="778.33" y="-379.66" font-family="JetBrains Mono" font-size="14.00" fill="#db4437">perfect r✪✪✪t</text>
</a>
</g>
</g>
<!-- perfect r✪✪✪t&#45;&gt;DEFCON_QUALS -->
<g id="edge1" class="edge">
<title>perfect r✪✪✪t&#45;&gt;DEFCON_QUALS</title>
<path fill="none" stroke="black" stroke-width="2" d="M746.15,-399.6C705.14,-420.29 634.15,-456.11 588.91,-478.94"/>
<polygon fill="black" stroke="black" stroke-width="2" points="587.3,-475.83 579.95,-483.46 590.45,-482.08 587.3,-475.83"/>
</g>
<!-- Balsn.217@TSJ.tw -->
<g id="node3" class="node">
<title>Balsn.217@TSJ.tw</title>
<g id="a_node3"><a xlink:href="https://ctftime.org/team/189868" xlink:title="Balsn.217@TSJ.tw">
<ellipse fill="none" stroke="#db4437" cx="498.26" cy="-219.86" rx="85.59" ry="18"/>
<text text-anchor="middle" x="498.26" y="-216.16" font-family="JetBrains Mono" font-size="14.00" fill="#db4437">Balsn.217@TSJ.tw</text>
</a>
</g>
</g>
<!-- Balsn.217@TSJ.tw&#45;&gt;DEFCON_QUALS -->
<g id="edge2" class="edge">
<title>Balsn.217@TSJ.tw&#45;&gt;DEFCON_QUALS</title>
<path fill="none" stroke="black" stroke-width="2" d="M496.5,-238C493.08,-273.44 485.84,-348.4 485.84,-348.4 485.84,-348.4 518.25,-428.91 535.86,-472.63"/>
<polygon fill="black" stroke="black" stroke-width="2" points="532.7,-474.16 539.68,-482.12 539.19,-471.54 532.7,-474.16"/>
</g>
<!-- The Duck -->
<g id="node4" class="node">
<title>The Duck</title>
<g id="a_node4"><a xlink:href="https://ctftime.org/team/111501" xlink:title="The Duck">
<ellipse fill="none" stroke="#db4437" cx="506.1" cy="-647.26" rx="48.19" ry="18"/>
<text text-anchor="middle" x="506.1" y="-643.56" font-family="JetBrains Mono" font-size="14.00" fill="#db4437">The Duck</text>
</a>
</g>
</g>
<!-- The Duck&#45;&gt;DEFCON_QUALS -->
<g id="edge3" class="edge">
<title>The Duck&#45;&gt;DEFCON_QUALS</title>
<path fill="none" stroke="black" stroke-width="2" d="M511.1,-629.22C518.11,-603.96 530.92,-557.82 539.17,-528.08"/>
<polygon fill="black" stroke="black" stroke-width="2" points="542.58,-528.89 541.88,-518.31 535.83,-527.01 542.58,-528.89"/>
</g>
<!-- Sauercloud -->
<g id="node5" class="node">
<title>Sauercloud</title>
<g id="a_node5"><a xlink:href="https://ctftime.org/team/54748" xlink:title="Sauercloud">
<ellipse fill="none" stroke="#db4437" cx="292.13" cy="-650.97" rx="55.49" ry="18"/>
<text text-anchor="middle" x="292.13" y="-647.27" font-family="JetBrains Mono" font-size="14.00" fill="#db4437">Sauercloud</text>
</a>
</g>
</g>
<!-- Sauercloud&#45;&gt;DEFCON_QUALS -->
<g id="edge4" class="edge">
<title>Sauercloud&#45;&gt;DEFCON_QUALS</title>
<path fill="none" stroke="black" stroke-width="2" d="M326.49,-636.68C371.17,-618.1 443.55,-588 443.55,-588 443.55,-588 487.58,-550.58 518.17,-524.57"/>
<polygon fill="black" stroke="black" stroke-width="2" points="520.65,-527.05 526,-517.91 516.12,-521.72 520.65,-527.05"/>
</g>
<!-- Water Paddler -->
<g id="node6" class="node">
<title>Water Paddler</title>
<g id="a_node6"><a xlink:href="https://ctftime.org/team/155019" xlink:title="Water Paddler">
<ellipse fill="none" stroke="#db4437" cx="406.66" cy="-456.11" rx="66.89" ry="18"/>
<text text-anchor="middle" x="406.66" y="-452.41" font-family="JetBrains Mono" font-size="14.00" fill="#db4437">Water Paddler</text>
</a>
</g>
</g>
<!-- Water Paddler&#45;&gt;DEFCON_QUALS -->
<g id="edge5" class="edge">
<title>Water Paddler&#45;&gt;DEFCON_QUALS</title>
<path fill="none" stroke="black" stroke-width="2" d="M450.27,-469.79C462.7,-473.69 476.44,-478 489.56,-482.12"/>
<polygon fill="black" stroke="black" stroke-width="2" points="488.85,-485.57 499.44,-485.22 490.95,-478.89 488.85,-485.57"/>
</g>
<!-- PTB_WTL -->
<g id="node7" class="node">
<title>PTB_WTL</title>
<g id="a_node7"><a xlink:href="https://ctftime.org/team/119975" xlink:title="PTB_WTL">
<ellipse fill="none" stroke="#db4437" cx="405.78" cy="-574.1" rx="51.99" ry="18"/>
<text text-anchor="middle" x="405.78" y="-570.4" font-family="JetBrains Mono" font-size="14.00" fill="#db4437">PTB_WTL</text>
</a>
</g>
</g>
<!-- PTB_WTL&#45;&gt;DEFCON_QUALS -->
<g id="edge6" class="edge">
<title>PTB_WTL&#45;&gt;DEFCON_QUALS</title>
<path fill="none" stroke="black" stroke-width="2" d="M434.68,-558.95C455.24,-548.18 483.14,-533.55 505.99,-521.58"/>
<polygon fill="black" stroke="black" stroke-width="2" points="507.88,-524.54 515.11,-516.8 504.63,-518.34 507.88,-524.54"/>
</g>
<!-- ./V /home/r/.bin/tw -->
<g id="node8" class="node">
<title>./V /home/r/.bin/tw</title>
<g id="a_node8"><a xlink:href="https://ctftime.org/team/189869" xlink:title="./V /home/r/.bin/tw">
<ellipse fill="none" stroke="#db4437" cx="775.62" cy="-683.64" rx="81.79" ry="18"/>
<text text-anchor="middle" x="775.62" y="-679.94" font-family="JetBrains Mono" font-size="14.00" fill="#db4437">./V /home/r/.bin/tw</text>
</a>
</g>
</g>
<!-- ./V /home/r/.bin/tw&#45;&gt;DEFCON_QUALS -->
<g id="edge7" class="edge">
<title>./V /home/r/.bin/tw&#45;&gt;DEFCON_QUALS</title>
<path fill="none" stroke="black" stroke-width="2" d="M753.65,-666.13C720.17,-639.46 660.24,-591.71 660.24,-591.71 660.24,-591.71 610.22,-551.28 576.64,-524.15"/>
<polygon fill="black" stroke="black" stroke-width="2" points="578.48,-521.13 568.5,-517.57 574.08,-526.57 578.48,-521.13"/>
</g>
<!-- Straw Hat -->
<g id="node9" class="node">
<title>Straw Hat</title>
<g id="a_node9"><a xlink:href="https://ctftime.org/team/19208" xlink:title="Straw Hat">
<ellipse fill="none" stroke="#db4437" cx="429.99" cy="-333.01" rx="49.29" ry="18"/>
<text text-anchor="middle" x="429.99" y="-329.31" font-family="JetBrains Mono" font-size="14.00" fill="#db4437">Straw Hat</text>
</a>
</g>
</g>
<!-- Straw Hat&#45;&gt;DEFCON_QUALS -->
<g id="edge8" class="edge">
<title>Straw Hat&#45;&gt;DEFCON_QUALS</title>
<path fill="none" stroke="black" stroke-width="2" d="M442.29,-350.58C462.85,-379.97 504.33,-439.25 528.43,-473.69"/>
<polygon fill="black" stroke="black" stroke-width="2" points="525.84,-476.1 534.44,-482.29 531.58,-472.09 525.84,-476.1"/>
</g>
<!-- PPP -->
<g id="node10" class="node">
<title>PPP</title>
<g id="a_node10"><a xlink:href="https://ctftime.org/team/284" xlink:title="PPP">
<ellipse fill="none" stroke="#db4437" cx="668.28" cy="-406.3" rx="28.7" ry="18"/>
<text text-anchor="middle" x="668.28" y="-402.6" font-family="JetBrains Mono" font-size="14.00" fill="#db4437">PPP</text>
</a>
</g>
</g>
<!-- PPP&#45;&gt;DEFCON_QUALS -->
<g id="edge9" class="edge">
<title>PPP&#45;&gt;DEFCON_QUALS</title>
<path fill="none" stroke="black" stroke-width="2" d="M650.11,-420.35C630.91,-435.19 600.31,-458.85 577.4,-476.56"/>
<polygon fill="black" stroke="black" stroke-width="2" points="575.12,-473.9 569.35,-482.79 579.4,-479.44 575.12,-473.9"/>
</g>
<!-- Katzebin -->
<g id="node11" class="node">
<title>Katzebin</title>
<g id="a_node11"><a xlink:href="https://ctftime.org/team/141539" xlink:title="Katzebin">
<ellipse fill="none" stroke="#db4437" cx="532.29" cy="-348.58" rx="44.69" ry="18"/>
<text text-anchor="middle" x="532.29" y="-344.88" font-family="JetBrains Mono" font-size="14.00" fill="#db4437">Katzebin</text>
</a>
</g>
</g>
<!-- Katzebin&#45;&gt;DEFCON_QUALS -->
<g id="edge10" class="edge">
<title>Katzebin&#45;&gt;DEFCON_QUALS</title>
<path fill="none" stroke="black" stroke-width="2" d="M534.05,-366.86C536.57,-392.92 541.21,-440.97 544.18,-471.7"/>
<polygon fill="black" stroke="black" stroke-width="2" points="540.71,-472.16 545.15,-481.78 547.67,-471.49 540.71,-472.16"/>
</g>
<!-- StarBugs -->
<g id="node12" class="node">
<title>StarBugs</title>
<g id="a_node12"><a xlink:href="https://ctftime.org/team/152239" xlink:title="StarBugs">
<ellipse fill="none" stroke="#db4437" cx="367.33" cy="-384.95" rx="46.59" ry="18"/>
<text text-anchor="middle" x="367.33" y="-381.25" font-family="JetBrains Mono" font-size="14.00" fill="#db4437">StarBugs</text>
</a>
</g>
</g>
<!-- StarBugs&#45;&gt;DEFCON_QUALS -->
<g id="edge11" class="edge">
<title>StarBugs&#45;&gt;DEFCON_QUALS</title>
<path fill="none" stroke="black" stroke-width="2" d="M391.55,-400.48C422.45,-420.29 476.1,-454.71 511.57,-477.45"/>
<polygon fill="black" stroke="black" stroke-width="2" points="509.86,-480.51 520.17,-482.97 513.64,-474.62 509.86,-480.51"/>
</g>
<!-- Shellphish -->
<g id="node13" class="node">
<title>Shellphish</title>
<g id="a_node13"><a xlink:href="https://ctftime.org/team/285" xlink:title="Shellphish">
<ellipse fill="none" stroke="#db4437" cx="721.27" cy="-501.52" rx="51.19" ry="18"/>
<text text-anchor="middle" x="721.27" y="-497.82" font-family="JetBrains Mono" font-size="14.00" fill="#db4437">Shellphish</text>
</a>
</g>
</g>
<!-- Shellphish&#45;&gt;DEFCON_QUALS -->
<g id="edge12" class="edge">
<title>Shellphish&#45;&gt;DEFCON_QUALS</title>
<path fill="none" stroke="black" stroke-width="2" d="M669.9,-501.11C660.56,-501.04 650.56,-500.96 640.44,-500.88"/>
<polygon fill="black" stroke="black" stroke-width="2" points="640.33,-497.37 630.3,-500.79 640.27,-504.37 640.33,-497.37"/>
</g>
<!-- r3kapig -->
<g id="node14" class="node">
<title>r3kapig</title>
<g id="a_node14"><a xlink:href="https://ctftime.org/team/58979" xlink:title="r3kapig">
<ellipse fill="none" stroke="#db4437" cx="689.54" cy="-577.92" rx="39.79" ry="18"/>
<text text-anchor="middle" x="689.54" y="-574.22" font-family="JetBrains Mono" font-size="14.00" fill="#db4437">r3kapig</text>
</a>
</g>
</g>
<!-- r3kapig&#45;&gt;DEFCON_QUALS -->
<g id="edge13" class="edge">
<title>r3kapig&#45;&gt;DEFCON_QUALS</title>
<path fill="none" stroke="black" stroke-width="2" d="M664.05,-564.01C642.5,-552.26 611.27,-535.22 586.47,-521.7"/>
<polygon fill="black" stroke="black" stroke-width="2" points="588.11,-518.61 577.66,-516.89 584.76,-524.75 588.11,-518.61"/>
</g>
<!-- DiceGuesser -->
<g id="node15" class="node">
<title>DiceGuesser</title>
<g id="a_node15"><a xlink:href="https://ctftime.org/team/182504" xlink:title="DiceGuesser">
<ellipse fill="none" stroke="#db4437" cx="623.95" cy="-658.26" rx="61.99" ry="18"/>
<text text-anchor="middle" x="623.95" y="-654.56" font-family="JetBrains Mono" font-size="14.00" fill="#db4437">DiceGuesser</text>
</a>
</g>
</g>
<!-- DiceGuesser&#45;&gt;DEFCON_QUALS -->
<g id="edge14" class="edge">
<title>DiceGuesser&#45;&gt;DEFCON_QUALS</title>
<path fill="none" stroke="black" stroke-width="2" d="M615.26,-640.42C601.86,-612.9 576.03,-559.87 560.25,-527.47"/>
<polygon fill="black" stroke="black" stroke-width="2" points="563.22,-525.59 555.7,-518.13 556.93,-528.66 563.22,-525.59"/>
</g>
<!-- OSUSEC -->
<g id="node16" class="node">
<title>OSUSEC</title>
<g id="a_node16"><a xlink:href="https://ctftime.org/team/12858" xlink:title="OSUSEC">
<ellipse fill="none" stroke="#db4437" cx="633.28" cy="-327.5" rx="48.19" ry="18"/>
<text text-anchor="middle" x="633.28" y="-323.8" font-family="JetBrains Mono" font-size="14.00" fill="#db4437">OSUSEC</text>
</a>
</g>
</g>
<!-- OSUSEC&#45;&gt;DEFCON_QUALS -->
<g id="edge15" class="edge">
<title>OSUSEC&#45;&gt;DEFCON_QUALS</title>
<path fill="none" stroke="black" stroke-width="2" d="M624.36,-345.33C609.23,-375.56 578.45,-437.09 560.59,-472.8"/>
<polygon fill="black" stroke="black" stroke-width="2" points="557.26,-471.63 555.92,-482.14 563.52,-474.76 557.26,-471.63"/>
</g>
<!-- KITCTF -->
<g id="node17" class="node">
<title>KITCTF</title>
<g id="a_node17"><a xlink:href="https://ctftime.org/team/7221" xlink:title="KITCTF">
<ellipse fill="none" stroke="#4285f4" cx="318.87" cy="-813.1" rx="41.69" ry="18"/>
<text text-anchor="middle" x="318.87" y="-809.4" font-family="JetBrains Mono" font-size="14.00" fill="#4285f4">KITCTF</text>
</a>
</g>
</g>
<!-- KITCTF&#45;&gt;Sauercloud -->
<g id="edge16" class="edge">
<title>KITCTF&#45;&gt;Sauercloud</title>
<path fill="none" stroke="grey" stroke-dasharray="5,2" d="M315.91,-795.13C311.27,-767.01 302.26,-712.38 296.76,-679.04"/>
<polygon fill="grey" stroke="grey" points="300.19,-678.32 295.11,-669.02 293.28,-679.46 300.19,-678.32"/>
</g>
<!-- Eat Sleep Pwn Repeat -->
<g id="node18" class="node">
<title>Eat Sleep Pwn Repeat</title>
<g id="a_node18"><a xlink:href="https://ctftime.org/team/15712" xlink:title="Eat Sleep Pwn Repeat">
<ellipse fill="none" stroke="#4285f4" cx="129.88" cy="-809.56" rx="98.58" ry="18"/>
<text text-anchor="middle" x="129.88" y="-805.86" font-family="JetBrains Mono" font-size="14.00" fill="#4285f4">Eat Sleep Pwn Repeat</text>
</a>
</g>
</g>
<!-- Eat Sleep Pwn Repeat&#45;&gt;Sauercloud -->
<g id="edge17" class="edge">
<title>Eat Sleep Pwn Repeat&#45;&gt;Sauercloud</title>
<path fill="none" stroke="grey" stroke-dasharray="5,2" d="M148.18,-791.67C177.33,-763.17 234.39,-707.41 267.24,-675.3"/>
<polygon fill="grey" stroke="grey" points="269.94,-677.56 274.64,-668.06 265.05,-672.55 269.94,-677.56"/>
</g>
<!-- Flux Fingers -->
<g id="node19" class="node">
<title>Flux Fingers</title>
<g id="a_node19"><a xlink:href="https://ctftime.org/team/551" xlink:title="Flux Fingers">
<ellipse fill="none" stroke="#4285f4" cx="59.14" cy="-663.56" rx="59.29" ry="18"/>
<text text-anchor="middle" x="59.14" y="-659.86" font-family="JetBrains Mono" font-size="14.00" fill="#4285f4">Flux Fingers</text>
</a>
</g>
</g>
<!-- Flux Fingers&#45;&gt;Sauercloud -->
<g id="edge18" class="edge">
<title>Flux Fingers&#45;&gt;Sauercloud</title>
<path fill="none" stroke="grey" stroke-dasharray="5,2" d="M117.64,-660.4C150.99,-658.6 192.85,-656.33 227.21,-654.48"/>
<polygon fill="grey" stroke="grey" points="227.82,-657.95 237.62,-653.91 227.45,-650.96 227.82,-657.95"/>
</g>
<!-- Red Rocket -->
<g id="node20" class="node">
<title>Red Rocket</title>
<g id="a_node20"><a xlink:href="https://allesctf.net/" xlink:title="Red Rocket">
<ellipse fill="none" stroke="#4285f4" cx="121.54" cy="-727.25" rx="56.59" ry="18"/>
<text text-anchor="middle" x="121.54" y="-723.55" font-family="JetBrains Mono" font-size="14.00" fill="#4285f4">Red Rocket</text>
</a>
</g>
</g>
<!-- Red Rocket&#45;&gt;Sauercloud -->
<g id="edge19" class="edge">
<title>Red Rocket&#45;&gt;Sauercloud</title>
<path fill="none" stroke="grey" stroke-dasharray="5,2" d="M154.43,-712.55C181.69,-700.36 220.61,-682.95 250.12,-669.76"/>
<polygon fill="grey" stroke="grey" points="251.64,-672.91 259.34,-665.63 248.79,-666.52 251.64,-672.91"/>
</g>
<!-- Alles! -->
<g id="node21" class="node">
<title>Alles!</title>
<g id="a_node21"><a xlink:href="https://ctftime.org/team/18419" xlink:title="Alles!">
<ellipse fill="none" stroke="#4285f4" cx="136.95" cy="-594.13" rx="32.49" ry="18"/>
<text text-anchor="middle" x="136.95" y="-590.43" font-family="JetBrains Mono" font-size="14.00" fill="#4285f4">Alles!</text>
</a>
</g>
</g>
<!-- Alles!&#45;&gt;Sauercloud -->
<g id="edge20" class="edge">
<title>Alles!&#45;&gt;Sauercloud</title>
<path fill="none" stroke="grey" stroke-dasharray="5,2" d="M164.33,-604.16C186.88,-612.42 219.35,-624.31 245.92,-634.04"/>
<polygon fill="grey" stroke="grey" points="244.82,-637.36 255.41,-637.52 247.22,-630.79 244.82,-637.36"/>
</g>
<!-- ENOFLAG -->
<g id="node22" class="node">
<title>ENOFLAG</title>
<g id="a_node22"><a xlink:href="https://ctftime.org/team/1438" xlink:title="ENOFLAG">
<ellipse fill="none" stroke="#4285f4" cx="70.17" cy="-536.33" rx="53.89" ry="18"/>
<text text-anchor="middle" x="70.17" y="-532.63" font-family="JetBrains Mono" font-size="14.00" fill="#4285f4">ENOFLAG</text>
</a>
</g>
</g>
<!-- ENOFLAG&#45;&gt;Sauercloud -->
<g id="edge21" class="edge">
<title>ENOFLAG&#45;&gt;Sauercloud</title>
<path fill="none" stroke="grey" stroke-dasharray="5,2" d="M101.02,-551.25C127.45,-564.04 161.29,-580.4 161.29,-580.4 161.29,-580.4 215.81,-609.81 254.47,-630.65"/>
<polygon fill="grey" stroke="grey" points="252.96,-633.82 263.42,-635.48 256.28,-627.66 252.96,-633.82"/>
</g>
<!-- FAUST -->
<g id="node23" class="node">
<title>FAUST</title>
<g id="a_node23"><a xlink:href="https://ctftime.org/team/550" xlink:title="FAUST">
<ellipse fill="none" stroke="#4285f4" cx="282.64" cy="-907.7" rx="39.79" ry="18"/>
<text text-anchor="middle" x="282.64" y="-904" font-family="JetBrains Mono" font-size="14.00" fill="#4285f4">FAUST</text>
</a>
</g>
</g>
<!-- FAUST&#45;&gt;Sauercloud -->
<g id="edge22" class="edge">
<title>FAUST&#45;&gt;Sauercloud</title>
<path fill="none" stroke="grey" stroke-dasharray="5,2" d="M281.29,-889.43C279.27,-861.89 275.67,-812.94 275.67,-812.94 275.67,-812.94 284.54,-725.71 289.26,-679.28"/>
<polygon fill="grey" stroke="grey" points="292.75,-679.54 290.28,-669.23 285.79,-678.83 292.75,-679.54"/>
</g>
<!-- WizardsOfDos -->
<g id="node24" class="node">
<title>WizardsOfDos</title>
<g id="a_node24"><a xlink:href="https://ctftime.org/team/561" xlink:title="WizardsOfDos">
<ellipse fill="none" stroke="#4285f4" cx="398.58" cy="-875.47" rx="68.49" ry="18"/>
<text text-anchor="middle" x="398.58" y="-871.77" font-family="JetBrains Mono" font-size="14.00" fill="#4285f4">WizardsOfDos</text>
</a>
</g>
</g>
<!-- WizardsOfDos&#45;&gt;Sauercloud -->
<g id="edge23" class="edge">
<title>WizardsOfDos&#45;&gt;Sauercloud</title>
<path fill="none" stroke="grey" stroke-dasharray="5,2" d="M390.05,-857.48C371.44,-818.23 327.11,-724.74 305.06,-678.22"/>
<polygon fill="grey" stroke="grey" points="308.15,-676.58 300.71,-669.05 301.83,-679.58 308.15,-676.58"/>
</g>
<!-- Squareroots -->
<g id="node25" class="node">
<title>Squareroots</title>
<g id="a_node25"><a xlink:href="https://ctftime.org/team/554" xlink:title="Squareroots">
<ellipse fill="none" stroke="#4285f4" cx="203.77" cy="-855.75" rx="58.49" ry="18"/>
<text text-anchor="middle" x="203.77" y="-852.05" font-family="JetBrains Mono" font-size="14.00" fill="#4285f4">Squareroots</text>
</a>
</g>
</g>
<!-- Squareroots&#45;&gt;Sauercloud -->
<g id="edge24" class="edge">
<title>Squareroots&#45;&gt;Sauercloud</title>
<path fill="none" stroke="grey" stroke-dasharray="5,2" d="M214.09,-837.78C221.53,-824.83 230.27,-809.62 230.27,-809.62 230.27,-809.62 263.73,-723.82 281.43,-678.41"/>
<polygon fill="grey" stroke="grey" points="284.79,-679.45 285.16,-668.86 278.26,-676.9 284.79,-679.45"/>
</g>
<!-- saarsec -->
<g id="node26" class="node">
<title>saarsec</title>
<g id="a_node26"><a xlink:href="https://ctftime.org/team/15337" xlink:title="saarsec">
<ellipse fill="none" stroke="#4285f4" cx="140.54" cy="-480.88" rx="41.69" ry="18"/>
<text text-anchor="middle" x="140.54" y="-477.18" font-family="JetBrains Mono" font-size="14.00" fill="#4285f4">saarsec</text>
</a>
</g>
</g>
<!-- saarsec&#45;&gt;Sauercloud -->
<g id="edge25" class="edge">
<title>saarsec&#45;&gt;Sauercloud</title>
<path fill="none" stroke="grey" stroke-dasharray="5,2" d="M155.63,-497.81C182.39,-527.84 238.29,-590.56 269.62,-625.71"/>
<polygon fill="grey" stroke="grey" points="267.39,-628.46 276.65,-633.6 272.61,-623.81 267.39,-628.46"/>
</g>
<!-- perfect blue -->
<g id="node27" class="node">
<title>perfect blue</title>
<g id="a_node27"><a xlink:href="https://ctftime.org/team/53802" xlink:title="perfect blue">
<ellipse fill="none" stroke="#4285f4" cx="965.34" cy="-289.94" rx="56.59" ry="18"/>
<text text-anchor="middle" x="965.34" y="-286.24" font-family="JetBrains Mono" font-size="14.00" fill="#4285f4">perfect blue</text>
</a>
</g>
</g>
<!-- perfect blue&#45;&gt;perfect r✪✪✪t -->
<g id="edge26" class="edge">
<title>perfect blue&#45;&gt;perfect r✪✪✪t</title>
<path fill="none" stroke="grey" stroke-dasharray="5,2" d="M934.88,-305.16C903.62,-320.77 854.77,-345.18 819.96,-362.57"/>
<polygon fill="grey" stroke="grey" points="818.36,-359.45 810.98,-367.05 821.49,-365.72 818.36,-359.45"/>
</g>
<!-- r00timentary -->
<g id="node28" class="node">
<title>r00timentary</title>
<g id="a_node28"><a xlink:href="https://ctftime.org/team/32783" xlink:title="r00timentary">
<ellipse fill="none" stroke="#4285f4" cx="1001.79" cy="-430.13" rx="59.59" ry="18"/>
<text text-anchor="middle" x="1001.79" y="-426.43" font-family="JetBrains Mono" font-size="14.00" fill="#4285f4">r00timentary</text>
</a>
</g>
</g>
<!-- r00timentary&#45;&gt;perfect r✪✪✪t -->
<g id="edge27" class="edge">
<title>r00timentary&#45;&gt;perfect r✪✪✪t</title>
<path fill="none" stroke="grey" stroke-dasharray="5,2" d="M952.47,-419.81C920.65,-413.15 878.89,-404.41 844.24,-397.16"/>
<polygon fill="grey" stroke="grey" points="844.71,-393.68 834.2,-395.06 843.27,-400.53 844.71,-393.68"/>
</g>
<!-- Samsung Research -->
<g id="node29" class="node">
<title>Samsung Research</title>
<ellipse fill="none" stroke="#4285f4" cx="871.25" cy="-179.07" rx="88.28" ry="18"/>
<text text-anchor="middle" x="871.25" y="-175.37" font-family="JetBrains Mono" font-size="14.00" fill="#4285f4">Samsung Research</text>
</g>
<!-- Samsung Research&#45;&gt;perfect r✪✪✪t -->
<g id="edge28" class="edge">
<title>Samsung Research&#45;&gt;perfect r✪✪✪t</title>
<path fill="none" stroke="grey" stroke-dasharray="5,2" d="M863,-197.2C846.64,-233.17 810,-313.72 790.73,-356.11"/>
<polygon fill="grey" stroke="grey" points="787.51,-354.72 786.56,-365.28 793.88,-357.62 787.51,-354.72"/>
</g>
<!-- Balsn -->
<g id="node30" class="node">
<title>Balsn</title>
<g id="a_node30"><a xlink:href="https://ctftime.org/team/16978" xlink:title="Balsn">
<ellipse fill="none" stroke="#4285f4" cx="538.45" cy="-18" rx="32.49" ry="18"/>
<text text-anchor="middle" x="538.45" y="-14.3" font-family="JetBrains Mono" font-size="14.00" fill="#4285f4">Balsn</text>
</a>
</g>
</g>
<!-- Balsn&#45;&gt;Balsn.217@TSJ.tw -->
<g id="edge29" class="edge">
<title>Balsn&#45;&gt;Balsn.217@TSJ.tw</title>
<path fill="none" stroke="grey" stroke-dasharray="5,2" d="M534.88,-35.91C527.87,-71.14 512.24,-149.65 503.84,-191.81"/>
<polygon fill="grey" stroke="grey" points="500.39,-191.21 501.87,-201.7 507.26,-192.57 500.39,-191.21"/>
</g>
<!-- 217 -->
<g id="node31" class="node">
<title>217</title>
<g id="a_node31"><a xlink:href="https://ctftime.org/team/5160" xlink:title="217">
<ellipse fill="none" stroke="#4285f4" cx="658.61" cy="-57.01" rx="27" ry="18"/>
<text text-anchor="middle" x="658.61" y="-53.31" font-family="JetBrains Mono" font-size="14.00" fill="#4285f4">217</text>
</a>
</g>
</g>
<!-- 217&#45;&gt;Balsn.217@TSJ.tw -->
<g id="edge30" class="edge">
<title>217&#45;&gt;Balsn.217@TSJ.tw</title>
<path fill="none" stroke="grey" stroke-dasharray="5,2" d="M643.52,-72.33C615.84,-100.45 556.67,-160.54 523.01,-194.72"/>
<polygon fill="grey" stroke="grey" points="520.36,-192.43 515.84,-202.01 525.35,-197.34 520.36,-192.43"/>
</g>
<!-- TSJ -->
<g id="node32" class="node">
<title>TSJ</title>
<g id="a_node32"><a xlink:href="https://ctftime.org/team/150366" xlink:title="TSJ">
<ellipse fill="none" stroke="#4285f4" cx="405.94" cy="-32.02" rx="27" ry="18"/>
<text text-anchor="middle" x="405.94" y="-28.32" font-family="JetBrains Mono" font-size="14.00" fill="#4285f4">TSJ</text>
</a>
</g>
</g>
<!-- TSJ&#45;&gt;Balsn.217@TSJ.tw -->
<g id="edge31" class="edge">
<title>TSJ&#45;&gt;Balsn.217@TSJ.tw</title>
<path fill="none" stroke="grey" stroke-dasharray="5,2" d="M414.46,-49.35C430.55,-82.09 465.52,-153.24 484.81,-192.49"/>
<polygon fill="grey" stroke="grey" points="481.8,-194.31 489.35,-201.74 488.08,-191.22 481.8,-194.31"/>
</g>
<!-- HITCON -->
<g id="node33" class="node">
<title>HITCON</title>
<g id="a_node33"><a xlink:href="https://ctftime.org/team/8299" xlink:title="HITCON">
<ellipse fill="none" stroke="#4285f4" cx="299.37" cy="-91.57" rx="44.69" ry="18"/>
<text text-anchor="middle" x="299.37" y="-87.87" font-family="JetBrains Mono" font-size="14.00" fill="#4285f4">HITCON</text>
</a>
</g>
</g>
<!-- HITCON&#45;&gt;Balsn.217@TSJ.tw -->
<g id="edge32" class="edge">
<title>HITCON&#45;&gt;Balsn.217@TSJ.tw</title>
<path fill="none" stroke="grey" stroke-dasharray="5,2" d="M323.36,-107.04C358.2,-129.52 423.03,-171.33 463.22,-197.26"/>
<polygon fill="grey" stroke="grey" points="461.35,-200.22 471.65,-202.7 465.14,-194.33 461.35,-200.22"/>
</g>
<!-- PwnThyBytes -->
<g id="node34" class="node">
<title>PwnThyBytes</title>
<g id="a_node34"><a xlink:href="https://ctftime.org/team/59199" xlink:title="PwnThyBytes">
<ellipse fill="none" stroke="#4285f4" cx="179.56" cy="-343.58" rx="64.19" ry="18"/>
<text text-anchor="middle" x="179.56" y="-339.88" font-family="JetBrains Mono" font-size="14.00" fill="#4285f4">PwnThyBytes</text>
</a>
</g>
</g>
<!-- PwnThyBytes&#45;&gt;PTB_WTL -->
<g id="edge33" class="edge">
<title>PwnThyBytes&#45;&gt;PTB_WTL</title>
<path fill="none" stroke="grey" stroke-dasharray="5,2" d="M196.93,-361.29C237.02,-402.13 336.02,-503.02 381.83,-549.69"/>
<polygon fill="grey" stroke="grey" points="379.46,-552.28 388.96,-556.96 384.45,-547.37 379.46,-552.28"/>
</g>
<!-- WreckTheLine -->
<g id="node35" class="node">
<title>WreckTheLine</title>
<g id="a_node35"><a xlink:href="https://ctftime.org/team/57908" xlink:title="WreckTheLine">
<ellipse fill="none" stroke="#4285f4" cx="542.48" cy="-865.67" rx="67.69" ry="18"/>
<text text-anchor="middle" x="542.48" y="-861.97" font-family="JetBrains Mono" font-size="14.00" fill="#4285f4">WreckTheLine</text>
</a>
</g>
</g>
<!-- WreckTheLine&#45;&gt;PTB_WTL -->
<g id="edge34" class="edge">
<title>WreckTheLine&#45;&gt;PTB_WTL</title>
<path fill="none" stroke="grey" stroke-dasharray="5,2" d="M533.93,-847.43C510.67,-797.81 446.14,-660.19 418.55,-601.35"/>
<polygon fill="grey" stroke="grey" points="421.57,-599.53 414.15,-591.96 415.23,-602.5 421.57,-599.53"/>
</g>
<!-- ./Vespiary -->
<g id="node36" class="node">
<title>./Vespiary</title>
<g id="a_node36"><a xlink:href="https://ctftime.org/team/80092" xlink:title="./Vespiary">
<ellipse fill="none" stroke="#4285f4" cx="991.24" cy="-644.25" rx="50.09" ry="18"/>
<text text-anchor="middle" x="991.24" y="-640.55" font-family="JetBrains Mono" font-size="14.00" fill="#4285f4">./Vespiary</text>
</a>
</g>
</g>
<!-- ./Vespiary&#45;&gt;./V /home/r/.bin/tw -->
<g id="edge35" class="edge">
<title>./Vespiary&#45;&gt;./V /home/r/.bin/tw</title>
<path fill="none" stroke="grey" stroke-dasharray="5,2" d="M946.56,-652.41C918.28,-657.58 881.05,-664.38 848.55,-670.32"/>
<polygon fill="grey" stroke="grey" points="847.84,-666.89 838.64,-672.13 849.1,-673.77 847.84,-666.89"/>
</g>
<!-- RicercaSec -->
<g id="node37" class="node">
<title>RicercaSec</title>
<ellipse fill="none" stroke="#4285f4" cx="887.24" cy="-856.95" rx="55.79" ry="18"/>
<text text-anchor="middle" x="887.24" y="-853.25" font-family="JetBrains Mono" font-size="14.00" fill="#4285f4">RicercaSec</text>
</g>
<!-- RicercaSec&#45;&gt;./V /home/r/.bin/tw -->
<g id="edge36" class="edge">
<title>RicercaSec&#45;&gt;./V /home/r/.bin/tw</title>
<path fill="none" stroke="grey" stroke-dasharray="5,2" d="M875.72,-839.06C856,-808.44 815.7,-745.86 792.7,-710.16"/>
<polygon fill="grey" stroke="grey" points="795.61,-708.21 787.25,-701.69 789.72,-712 795.61,-708.21"/>
</g>
<!-- binja -->
<g id="node38" class="node">
<title>binja</title>
<g id="a_node38"><a xlink:href="https://ctftime.org/team/9083" xlink:title="binja">
<ellipse fill="none" stroke="#4285f4" cx="964.49" cy="-760.18" rx="29.5" ry="18"/>
<text text-anchor="middle" x="964.49" y="-756.48" font-family="JetBrains Mono" font-size="14.00" fill="#4285f4">binja</text>
</a>
</g>
</g>
<!-- binja&#45;&gt;./V /home/r/.bin/tw -->
<g id="edge37" class="edge">
<title>binja&#45;&gt;./V /home/r/.bin/tw</title>
<path fill="none" stroke="grey" stroke-dasharray="5,2" d="M939.79,-750.17C910.61,-738.34 861.33,-718.37 824.37,-703.39"/>
<polygon fill="grey" stroke="grey" points="825.36,-700.02 814.78,-699.5 822.73,-706.5 825.36,-700.02"/>
</g>
<!-- TokyoWesterns -->
<g id="node39" class="node">
<title>TokyoWesterns</title>
<g id="a_node39"><a xlink:href="https://ctftime.org/team/12599" xlink:title="TokyoWesterns">
<ellipse fill="none" stroke="#4285f4" cx="781.95" cy="-911.34" rx="70.69" ry="18"/>
<text text-anchor="middle" x="781.95" y="-907.64" font-family="JetBrains Mono" font-size="14.00" fill="#4285f4">TokyoWesterns</text>
</a>
</g>
</g>
<!-- TokyoWesterns&#45;&gt;./V /home/r/.bin/tw -->
<g id="edge38" class="edge">
<title>TokyoWesterns&#45;&gt;./V /home/r/.bin/tw</title>
<path fill="none" stroke="grey" stroke-dasharray="5,2" d="M781.44,-893.09C780.34,-853.44 777.72,-759.18 776.4,-711.82"/>
<polygon fill="grey" stroke="grey" points="779.9,-711.56 776.12,-701.66 772.9,-711.75 779.9,-711.56"/>
</g>
</g>
</svg>
