<?xml version="1.0" encoding="UTF-8" standalone="no"?>
<!DOCTYPE svg PUBLIC "-//W3C//DTD SVG 1.1//EN"
 "http://www.w3.org/Graphics/SVG/1.1/DTD/svg11.dtd">
<!-- Generated by graphviz version 2.49.3 (0)
 -->
<!-- Title: teams Pages: 1 -->
<svg width="1068pt" height="980pt"
 viewBox="0.00 0.00 1068.48 980.20" xmlns="http://www.w3.org/2000/svg" xmlns:xlink="http://www.w3.org/1999/xlink">
<g id="graph0" class="graph" transform="scale(1 1) rotate(0) translate(4 976.2)">
<title>teams</title>
<polygon fill="white" stroke="transparent" points="-4,4 -4,-976.2 1064.48,-976.2 1064.48,4 -4,4"/>
<!-- DEFCON_QUALS -->
<g id="node1" class="node">
<title>DEFCON_QUALS</title>
<g id="a_node1"><a xlink:href="https://quals.2022.nautilus.institute/dashboard" xlink:title="DEFCON_QUALS">
<ellipse fill="none" stroke="black" stroke-width="2" cx="507.97" cy="-493.28" rx="83.39" ry="18"/>
<text text-anchor="middle" x="507.97" y="-489.58" font-family="JetBrains Mono" font-size="14.00">DEFCON_QUALS</text>
</a>
</g>
</g>
<!-- perfect r✪✪✪t -->
<g id="node2" class="node">
<title>perfect r✪✪✪t</title>
<g id="a_node2"><a xlink:href="https://ctftime.org/team/176403" xlink:title="perfect r✪✪✪t">
<ellipse fill="none" stroke="#db4437" cx="752.9" cy="-396.25" rx="73.39" ry="18"/>
<text text-anchor="middle" x="752.9" y="-392.55" font-family="JetBrains Mono" font-size="14.00" fill="#db4437">perfect r✪✪✪t</text>
</a>
</g>
</g>
<!-- perfect r✪✪✪t&#45;&gt;DEFCON_QUALS -->
<g id="edge1" class="edge">
<title>perfect r✪✪✪t&#45;&gt;DEFCON_QUALS</title>
<path fill="none" stroke="black" stroke-width="2" d="M714.09,-411.62C671.78,-428.39 603.94,-455.26 557.74,-473.57"/>
<polygon fill="black" stroke="black" stroke-width="2" points="556.23,-470.4 548.23,-477.33 558.81,-476.91 556.23,-470.4"/>
</g>
<!-- Balsn.217@TSJ.tw -->
<g id="node3" class="node">
<title>Balsn.217@TSJ.tw</title>
<g id="a_node3"><a xlink:href="https://ctftime.org/team/189868" xlink:title="Balsn.217@TSJ.tw">
<ellipse fill="none" stroke="#db4437" cx="515.64" cy="-221.21" rx="85.59" ry="18"/>
<text text-anchor="middle" x="515.64" y="-217.51" font-family="JetBrains Mono" font-size="14.00" fill="#db4437">Balsn.217@TSJ.tw</text>
</a>
</g>
</g>
<!-- Balsn.217@TSJ.tw&#45;&gt;DEFCON_QUALS -->
<g id="edge2" class="edge">
<title>Balsn.217@TSJ.tw&#45;&gt;DEFCON_QUALS</title>
<path fill="none" stroke="black" stroke-width="2" d="M515.12,-239.48C513.81,-285.95 510.35,-408.89 508.77,-464.83"/>
<polygon fill="black" stroke="black" stroke-width="2" points="505.26,-464.99 508.48,-475.09 512.26,-465.19 505.26,-464.99"/>
</g>
<!-- The Duck -->
<g id="node4" class="node">
<title>The Duck</title>
<g id="a_node4"><a xlink:href="https://ctftime.org/team/111501" xlink:title="The Duck">
<ellipse fill="none" stroke="#db4437" cx="471.18" cy="-622.9" rx="48.19" ry="18"/>
<text text-anchor="middle" x="471.18" y="-619.2" font-family="JetBrains Mono" font-size="14.00" fill="#db4437">The Duck</text>
</a>
</g>
</g>
<!-- The Duck&#45;&gt;DEFCON_QUALS -->
<g id="edge3" class="edge">
<title>The Duck&#45;&gt;DEFCON_QUALS</title>
<path fill="none" stroke="black" stroke-width="2" d="M476.3,-604.88C482.44,-583.24 492.81,-546.69 500.01,-521.34"/>
<polygon fill="black" stroke="black" stroke-width="2" points="503.42,-522.15 502.78,-511.57 496.68,-520.24 503.42,-522.15"/>
</g>
<!-- Sauercloud -->
<g id="node5" class="node">
<title>Sauercloud</title>
<g id="a_node5"><a xlink:href="https://ctftime.org/team/54748" xlink:title="Sauercloud">
<ellipse fill="none" stroke="#db4437" cx="317.12" cy="-702.95" rx="55.49" ry="18"/>
<text text-anchor="middle" x="317.12" y="-699.25" font-family="JetBrains Mono" font-size="14.00" fill="#db4437">Sauercloud</text>
</a>
</g>
</g>
<!-- Sauercloud&#45;&gt;DEFCON_QUALS -->
<g id="edge4" class="edge">
<title>Sauercloud&#45;&gt;DEFCON_QUALS</title>
<path fill="none" stroke="black" stroke-width="2" d="M333.06,-685.43C366.79,-648.37 445.52,-561.89 484.81,-518.73"/>
<polygon fill="black" stroke="black" stroke-width="2" points="487.52,-520.94 491.67,-511.19 482.35,-516.23 487.52,-520.94"/>
</g>
<!-- Water Paddler -->
<g id="node6" class="node">
<title>Water Paddler</title>
<g id="a_node6"><a xlink:href="https://ctftime.org/team/155019" xlink:title="Water Paddler">
<ellipse fill="none" stroke="#db4437" cx="375.62" cy="-537.48" rx="66.89" ry="18"/>
<text text-anchor="middle" x="375.62" y="-533.78" font-family="JetBrains Mono" font-size="14.00" fill="#db4437">Water Paddler</text>
</a>
</g>
</g>
<!-- Water Paddler&#45;&gt;DEFCON_QUALS -->
<g id="edge5" class="edge">
<title>Water Paddler&#45;&gt;DEFCON_QUALS</title>
<path fill="none" stroke="black" stroke-width="2" d="M417.86,-523.38C428.97,-519.67 441.12,-515.61 452.8,-511.71"/>
<polygon fill="black" stroke="black" stroke-width="2" points="454.09,-514.97 462.47,-508.48 451.88,-508.33 454.09,-514.97"/>
</g>
<!-- PTB_WTL -->
<g id="node7" class="node">
<title>PTB_WTL</title>
<g id="a_node7"><a xlink:href="https://ctftime.org/team/119975" xlink:title="PTB_WTL">
<ellipse fill="none" stroke="#db4437" cx="285.41" cy="-345.15" rx="51.99" ry="18"/>
<text text-anchor="middle" x="285.41" y="-341.45" font-family="JetBrains Mono" font-size="14.00" fill="#db4437">PTB_WTL</text>
</a>
</g>
</g>
<!-- PTB_WTL&#45;&gt;DEFCON_QUALS -->
<g id="edge6" class="edge">
<title>PTB_WTL&#45;&gt;DEFCON_QUALS</title>
<path fill="none" stroke="black" stroke-width="2" d="M307.78,-361.4C329.31,-377.06 358.63,-398.37 358.63,-398.37 358.63,-398.37 428.29,-442.64 472.46,-470.71"/>
<polygon fill="black" stroke="black" stroke-width="2" points="470.61,-473.68 480.93,-476.09 474.36,-467.78 470.61,-473.68"/>
</g>
<!-- ./V /home/r/.bin/tw -->
<g id="node8" class="node">
<title>./V /home/r/.bin/tw</title>
<g id="a_node8"><a xlink:href="https://ctftime.org/team/189869" xlink:title="./V /home/r/.bin/tw">
<ellipse fill="none" stroke="#db4437" cx="723.67" cy="-671.45" rx="81.79" ry="18"/>
<text text-anchor="middle" x="723.67" y="-667.75" font-family="JetBrains Mono" font-size="14.00" fill="#db4437">./V /home/r/.bin/tw</text>
</a>
</g>
</g>
<!-- ./V /home/r/.bin/tw&#45;&gt;DEFCON_QUALS -->
<g id="edge7" class="edge">
<title>./V /home/r/.bin/tw&#45;&gt;DEFCON_QUALS</title>
<path fill="none" stroke="black" stroke-width="2" d="M692.94,-654.75C656.51,-634.95 600.66,-604.59 600.66,-604.59 600.66,-604.59 588.69,-590.71 588.69,-590.71 588.69,-590.71 553.09,-547.74 529.17,-518.87"/>
<polygon fill="black" stroke="black" stroke-width="2" points="531.85,-516.62 522.77,-511.15 526.46,-521.09 531.85,-516.62"/>
</g>
<!-- Straw Hat -->
<g id="node9" class="node">
<title>Straw Hat</title>
<g id="a_node9"><a xlink:href="https://ctftime.org/team/19208" xlink:title="Straw Hat">
<ellipse fill="none" stroke="#db4437" cx="394.82" cy="-384.55" rx="49.29" ry="18"/>
<text text-anchor="middle" x="394.82" y="-380.85" font-family="JetBrains Mono" font-size="14.00" fill="#db4437">Straw Hat</text>
</a>
</g>
</g>
<!-- Straw Hat&#45;&gt;DEFCON_QUALS -->
<g id="edge8" class="edge">
<title>Straw Hat&#45;&gt;DEFCON_QUALS</title>
<path fill="none" stroke="black" stroke-width="2" d="M412.5,-401.54C431.21,-419.52 460.92,-448.07 482.23,-468.55"/>
<polygon fill="black" stroke="black" stroke-width="2" points="480.03,-471.29 489.66,-475.69 484.88,-466.24 480.03,-471.29"/>
</g>
<!-- PPP -->
<g id="node10" class="node">
<title>PPP</title>
<g id="a_node10"><a xlink:href="https://ctftime.org/team/284" xlink:title="PPP">
<ellipse fill="none" stroke="#db4437" cx="639.53" cy="-397.67" rx="28.7" ry="18"/>
<text text-anchor="middle" x="639.53" y="-393.97" font-family="JetBrains Mono" font-size="14.00" fill="#db4437">PPP</text>
</a>
</g>
</g>
<!-- PPP&#45;&gt;DEFCON_QUALS -->
<g id="edge9" class="edge">
<title>PPP&#45;&gt;DEFCON_QUALS</title>
<path fill="none" stroke="black" stroke-width="2" d="M620.68,-411.37C599.75,-426.59 565.57,-451.42 540.33,-469.76"/>
<polygon fill="black" stroke="black" stroke-width="2" points="538.18,-467 532.15,-475.71 542.29,-472.66 538.18,-467"/>
</g>
<!-- Katzebin -->
<g id="node11" class="node">
<title>Katzebin</title>
<g id="a_node11"><a xlink:href="https://ctftime.org/team/141539" xlink:title="Katzebin">
<ellipse fill="none" stroke="#db4437" cx="460.07" cy="-331.64" rx="44.69" ry="18"/>
<text text-anchor="middle" x="460.07" y="-327.94" font-family="JetBrains Mono" font-size="14.00" fill="#db4437">Katzebin</text>
</a>
</g>
</g>
<!-- Katzebin&#45;&gt;DEFCON_QUALS -->
<g id="edge10" class="edge">
<title>Katzebin&#45;&gt;DEFCON_QUALS</title>
<path fill="none" stroke="black" stroke-width="2" d="M465.38,-349.56C473.69,-377.59 489.83,-432.06 499.68,-465.3"/>
<polygon fill="black" stroke="black" stroke-width="2" points="496.44,-466.69 502.64,-475.29 503.15,-464.7 496.44,-466.69"/>
</g>
<!-- StarBugs -->
<g id="node12" class="node">
<title>StarBugs</title>
<g id="a_node12"><a xlink:href="https://ctftime.org/team/152239" xlink:title="StarBugs">
<ellipse fill="none" stroke="#db4437" cx="327.36" cy="-460.38" rx="46.59" ry="18"/>
<text text-anchor="middle" x="327.36" y="-456.68" font-family="JetBrains Mono" font-size="14.00" fill="#db4437">StarBugs</text>
</a>
</g>
</g>
<!-- StarBugs&#45;&gt;DEFCON_QUALS -->
<g id="edge11" class="edge">
<title>StarBugs&#45;&gt;DEFCON_QUALS</title>
<path fill="none" stroke="black" stroke-width="2" d="M369.71,-468.09C388.96,-471.6 412.32,-475.86 434.32,-479.87"/>
<polygon fill="black" stroke="black" stroke-width="2" points="433.84,-483.34 444.3,-481.68 435.09,-476.45 433.84,-483.34"/>
</g>
<!-- Shellphish -->
<g id="node13" class="node">
<title>Shellphish</title>
<g id="a_node13"><a xlink:href="https://ctftime.org/team/285" xlink:title="Shellphish">
<ellipse fill="none" stroke="#db4437" cx="673.89" cy="-506.09" rx="51.19" ry="18"/>
<text text-anchor="middle" x="673.89" y="-502.39" font-family="JetBrains Mono" font-size="14.00" fill="#db4437">Shellphish</text>
</a>
</g>
</g>
<!-- Shellphish&#45;&gt;DEFCON_QUALS -->
<g id="edge12" class="edge">
<title>Shellphish&#45;&gt;DEFCON_QUALS</title>
<path fill="none" stroke="black" stroke-width="2" d="M623.65,-502.22C615.04,-501.55 605.86,-500.84 596.59,-500.13"/>
<polygon fill="black" stroke="black" stroke-width="2" points="596.76,-496.63 586.52,-499.35 596.22,-503.61 596.76,-496.63"/>
</g>
<!-- r3kapig -->
<g id="node14" class="node">
<title>r3kapig</title>
<g id="a_node14"><a xlink:href="https://ctftime.org/team/58979" xlink:title="r3kapig">
<ellipse fill="none" stroke="#db4437" cx="629.93" cy="-590.79" rx="39.79" ry="18"/>
<text text-anchor="middle" x="629.93" y="-587.09" font-family="JetBrains Mono" font-size="14.00" fill="#db4437">r3kapig</text>
</a>
</g>
</g>
<!-- r3kapig&#45;&gt;DEFCON_QUALS -->
<g id="edge13" class="edge">
<title>r3kapig&#45;&gt;DEFCON_QUALS</title>
<path fill="none" stroke="black" stroke-width="2" d="M610.34,-575.12C590.79,-559.49 560.49,-535.27 537.92,-517.23"/>
<polygon fill="black" stroke="black" stroke-width="2" points="539.99,-514.4 529.99,-510.89 535.62,-519.87 539.99,-514.4"/>
</g>
<!-- DiceGuesser -->
<g id="node15" class="node">
<title>DiceGuesser</title>
<g id="a_node15"><a xlink:href="https://ctftime.org/team/182504" xlink:title="DiceGuesser">
<ellipse fill="none" stroke="#db4437" cx="570" cy="-666.92" rx="61.99" ry="18"/>
<text text-anchor="middle" x="570" y="-663.22" font-family="JetBrains Mono" font-size="14.00" fill="#db4437">DiceGuesser</text>
</a>
</g>
</g>
<!-- DiceGuesser&#45;&gt;DEFCON_QUALS -->
<g id="edge14" class="edge">
<title>DiceGuesser&#45;&gt;DEFCON_QUALS</title>
<path fill="none" stroke="black" stroke-width="2" d="M563.6,-648.99C552.78,-618.71 530.81,-557.21 517.95,-521.23"/>
<polygon fill="black" stroke="black" stroke-width="2" points="521.09,-519.61 514.43,-511.37 514.5,-521.97 521.09,-519.61"/>
</g>
<!-- OSUSEC -->
<g id="node16" class="node">
<title>OSUSEC</title>
<g id="a_node16"><a xlink:href="https://ctftime.org/team/12858" xlink:title="OSUSEC">
<ellipse fill="none" stroke="#db4437" cx="569.68" cy="-348.63" rx="48.19" ry="18"/>
<text text-anchor="middle" x="569.68" y="-344.93" font-family="JetBrains Mono" font-size="14.00" fill="#db4437">OSUSEC</text>
</a>
</g>
</g>
<!-- OSUSEC&#45;&gt;DEFCON_QUALS -->
<g id="edge15" class="edge">
<title>OSUSEC&#45;&gt;DEFCON_QUALS</title>
<path fill="none" stroke="black" stroke-width="2" d="M561.99,-366.66C551.37,-391.56 532.11,-436.71 519.68,-465.82"/>
<polygon fill="black" stroke="black" stroke-width="2" points="516.46,-464.46 515.76,-475.03 522.9,-467.2 516.46,-464.46"/>
</g>
<!-- KITCTF -->
<g id="node17" class="node">
<title>KITCTF</title>
<g id="a_node17"><a xlink:href="https://ctftime.org/team/7221" xlink:title="KITCTF">
<ellipse fill="none" stroke="#4285f4" cx="374.77" cy="-865.71" rx="41.69" ry="18"/>
<text text-anchor="middle" x="374.77" y="-862.01" font-family="JetBrains Mono" font-size="14.00" fill="#4285f4">KITCTF</text>
</a>
</g>
</g>
<!-- KITCTF&#45;&gt;Sauercloud -->
<g id="edge16" class="edge">
<title>KITCTF&#45;&gt;Sauercloud</title>
<path fill="none" stroke="grey" stroke-dasharray="5,2" d="M368.38,-847.67C358.34,-819.32 338.78,-764.12 326.94,-730.69"/>
<polygon fill="grey" stroke="grey" points="330.17,-729.33 323.53,-721.07 323.57,-731.66 330.17,-729.33"/>
</g>
<!-- Eat Sleep Pwn Repeat -->
<g id="node18" class="node">
<title>Eat Sleep Pwn Repeat</title>
<g id="a_node18"><a xlink:href="https://ctftime.org/team/15712" xlink:title="Eat Sleep Pwn Repeat">
<ellipse fill="none" stroke="#4285f4" cx="169.88" cy="-866.17" rx="98.58" ry="18"/>
<text text-anchor="middle" x="169.88" y="-862.47" font-family="JetBrains Mono" font-size="14.00" fill="#4285f4">Eat Sleep Pwn Repeat</text>
</a>
</g>
</g>
<!-- Eat Sleep Pwn Repeat&#45;&gt;Sauercloud -->
<g id="edge17" class="edge">
<title>Eat Sleep Pwn Repeat&#45;&gt;Sauercloud</title>
<path fill="none" stroke="grey" stroke-dasharray="5,2" d="M185.92,-848.39C212.14,-819.33 264.26,-761.54 294.32,-728.22"/>
<polygon fill="grey" stroke="grey" points="297,-730.47 301.1,-720.7 291.8,-725.79 297,-730.47"/>
</g>
<!-- Flux Fingers -->
<g id="node19" class="node">
<title>Flux Fingers</title>
<g id="a_node19"><a xlink:href="https://ctftime.org/team/551" xlink:title="Flux Fingers">
<ellipse fill="none" stroke="#4285f4" cx="76.67" cy="-724.71" rx="59.29" ry="18"/>
<text text-anchor="middle" x="76.67" y="-721.01" font-family="JetBrains Mono" font-size="14.00" fill="#4285f4">Flux Fingers</text>
</a>
</g>
</g>
<!-- Flux Fingers&#45;&gt;Sauercloud -->
<g id="edge18" class="edge">
<title>Flux Fingers&#45;&gt;Sauercloud</title>
<path fill="none" stroke="grey" stroke-dasharray="5,2" d="M133.65,-719.55C169.7,-716.29 216.36,-712.07 253.6,-708.7"/>
<polygon fill="grey" stroke="grey" points="254.19,-712.16 263.84,-707.77 253.56,-705.19 254.19,-712.16"/>
</g>
<!-- Red Rocket -->
<g id="node20" class="node">
<title>Red Rocket</title>
<g id="a_node20"><a xlink:href="https://allesctf.net/" xlink:title="Red Rocket">
<ellipse fill="none" stroke="#4285f4" cx="136.82" cy="-792.83" rx="56.59" ry="18"/>
<text text-anchor="middle" x="136.82" y="-789.13" font-family="JetBrains Mono" font-size="14.00" fill="#4285f4">Red Rocket</text>
</a>
</g>
</g>
<!-- Red Rocket&#45;&gt;Sauercloud -->
<g id="edge19" class="edge">
<title>Red Rocket&#45;&gt;Sauercloud</title>
<path fill="none" stroke="grey" stroke-dasharray="5,2" d="M167.4,-777.58C197.8,-762.43 244.55,-739.12 277.71,-722.59"/>
<polygon fill="grey" stroke="grey" points="279.29,-725.71 286.68,-718.12 276.17,-719.45 279.29,-725.71"/>
</g>
<!-- Alles! -->
<g id="node21" class="node">
<title>Alles!</title>
<g id="a_node21"><a xlink:href="https://ctftime.org/team/18419" xlink:title="Alles!">
<ellipse fill="none" stroke="#4285f4" cx="130.78" cy="-655.25" rx="32.49" ry="18"/>
<text text-anchor="middle" x="130.78" y="-651.55" font-family="JetBrains Mono" font-size="14.00" fill="#4285f4">Alles!</text>
</a>
</g>
</g>
<!-- Alles!&#45;&gt;Sauercloud -->
<g id="edge20" class="edge">
<title>Alles!&#45;&gt;Sauercloud</title>
<path fill="none" stroke="grey" stroke-dasharray="5,2" d="M160.3,-662.81C187.93,-669.88 229.84,-680.61 263.39,-689.2"/>
<polygon fill="grey" stroke="grey" points="262.95,-692.7 273.51,-691.79 264.69,-685.92 262.95,-692.7"/>
</g>
<!-- ENOFLAG -->
<g id="node22" class="node">
<title>ENOFLAG</title>
<g id="a_node22"><a xlink:href="https://ctftime.org/team/1438" xlink:title="ENOFLAG">
<ellipse fill="none" stroke="#4285f4" cx="97.21" cy="-584.82" rx="53.89" ry="18"/>
<text text-anchor="middle" x="97.21" y="-581.12" font-family="JetBrains Mono" font-size="14.00" fill="#4285f4">ENOFLAG</text>
</a>
</g>
</g>
<!-- ENOFLAG&#45;&gt;Sauercloud -->
<g id="edge21" class="edge">
<title>ENOFLAG&#45;&gt;Sauercloud</title>
<path fill="none" stroke="grey" stroke-dasharray="5,2" d="M125.96,-600.26C165.3,-621.4 236,-659.37 279.51,-682.75"/>
<polygon fill="grey" stroke="grey" points="277.89,-685.85 288.36,-687.5 281.21,-679.68 277.89,-685.85"/>
</g>
<!-- FAUST -->
<g id="node23" class="node">
<title>FAUST</title>
<g id="a_node23"><a xlink:href="https://ctftime.org/team/550" xlink:title="FAUST">
<ellipse fill="none" stroke="#4285f4" cx="356" cy="-954.2" rx="39.79" ry="18"/>
<text text-anchor="middle" x="356" y="-950.5" font-family="JetBrains Mono" font-size="14.00" fill="#4285f4">FAUST</text>
</a>
</g>
</g>
<!-- FAUST&#45;&gt;Sauercloud -->
<g id="edge22" class="edge">
<title>FAUST&#45;&gt;Sauercloud</title>
<path fill="none" stroke="grey" stroke-dasharray="5,2" d="M351.06,-936.26C343.92,-910.35 331.58,-865.53 331.58,-865.53 331.58,-865.53 323.75,-777.54 319.61,-731.02"/>
<polygon fill="grey" stroke="grey" points="323.09,-730.62 318.72,-720.97 316.12,-731.24 323.09,-730.62"/>
</g>
<!-- WizardsOfDos -->
<g id="node24" class="node">
<title>WizardsOfDos</title>
<g id="a_node24"><a xlink:href="https://ctftime.org/team/561" xlink:title="WizardsOfDos">
<ellipse fill="none" stroke="#4285f4" cx="468.25" cy="-909.73" rx="68.49" ry="18"/>
<text text-anchor="middle" x="468.25" y="-906.03" font-family="JetBrains Mono" font-size="14.00" fill="#4285f4">WizardsOfDos</text>
</a>
</g>
</g>
<!-- WizardsOfDos&#45;&gt;Sauercloud -->
<g id="edge23" class="edge">
<title>WizardsOfDos&#45;&gt;Sauercloud</title>
<path fill="none" stroke="grey" stroke-dasharray="5,2" d="M455.1,-891.74C428.3,-855.06 367.23,-771.51 336.11,-728.94"/>
<polygon fill="grey" stroke="grey" points="338.85,-726.76 330.13,-720.75 333.2,-730.89 338.85,-726.76"/>
</g>
<!-- Squareroots -->
<g id="node25" class="node">
<title>Squareroots</title>
<g id="a_node25"><a xlink:href="https://ctftime.org/team/554" xlink:title="Squareroots">
<ellipse fill="none" stroke="#4285f4" cx="257.15" cy="-910.19" rx="58.49" ry="18"/>
<text text-anchor="middle" x="257.15" y="-906.49" font-family="JetBrains Mono" font-size="14.00" fill="#4285f4">Squareroots</text>
</a>
</g>
</g>
<!-- Squareroots&#45;&gt;Sauercloud -->
<g id="edge24" class="edge">
<title>Squareroots&#45;&gt;Sauercloud</title>
<path fill="none" stroke="grey" stroke-dasharray="5,2" d="M262.56,-892.06C266.18,-879.95 270.27,-866.24 270.27,-866.24 270.27,-866.24 295.73,-777.49 309.11,-730.85"/>
<polygon fill="grey" stroke="grey" points="312.53,-731.62 311.92,-721.05 305.8,-729.69 312.53,-731.62"/>
</g>
<!-- perfect blue -->
<g id="node26" class="node">
<title>perfect blue</title>
<g id="a_node26"><a xlink:href="https://ctftime.org/team/53802" xlink:title="perfect blue">
<ellipse fill="none" stroke="#4285f4" cx="865.65" cy="-200.34" rx="56.59" ry="18"/>
<text text-anchor="middle" x="865.65" y="-196.64" font-family="JetBrains Mono" font-size="14.00" fill="#4285f4">perfect blue</text>
</a>
</g>
</g>
<!-- perfect blue&#45;&gt;perfect r✪✪✪t -->
<g id="edge25" class="edge">
<title>perfect blue&#45;&gt;perfect r✪✪✪t</title>
<path fill="none" stroke="grey" stroke-dasharray="5,2" d="M855.45,-218.07C835.58,-252.59 791.62,-328.97 768.24,-369.61"/>
<polygon fill="grey" stroke="grey" points="765.12,-368 763.17,-378.42 771.19,-371.49 765.12,-368"/>
</g>
<!-- r00timentary -->
<g id="node27" class="node">
<title>r00timentary</title>
<g id="a_node27"><a xlink:href="https://ctftime.org/team/32783" xlink:title="r00timentary">
<ellipse fill="none" stroke="#4285f4" cx="948.54" cy="-312.32" rx="59.59" ry="18"/>
<text text-anchor="middle" x="948.54" y="-308.62" font-family="JetBrains Mono" font-size="14.00" fill="#4285f4">r00timentary</text>
</a>
</g>
</g>
<!-- r00timentary&#45;&gt;perfect r✪✪✪t -->
<g id="edge26" class="edge">
<title>r00timentary&#45;&gt;perfect r✪✪✪t</title>
<path fill="none" stroke="grey" stroke-dasharray="5,2" d="M914.02,-327.13C882.03,-340.85 834.22,-361.36 798.99,-376.48"/>
<polygon fill="grey" stroke="grey" points="797.22,-373.43 789.41,-380.59 799.98,-379.86 797.22,-373.43"/>
</g>
<!-- Samsung Research -->
<g id="node28" class="node">
<title>Samsung Research</title>
<ellipse fill="none" stroke="#4285f4" cx="972.09" cy="-448.55" rx="88.28" ry="18"/>
<text text-anchor="middle" x="972.09" y="-444.85" font-family="JetBrains Mono" font-size="14.00" fill="#4285f4">Samsung Research</text>
</g>
<!-- Samsung Research&#45;&gt;perfect r✪✪✪t -->
<g id="edge27" class="edge">
<title>Samsung Research&#45;&gt;perfect r✪✪✪t</title>
<path fill="none" stroke="grey" stroke-dasharray="5,2" d="M914.5,-434.81C884.06,-427.54 846.64,-418.62 815.48,-411.18"/>
<polygon fill="grey" stroke="grey" points="816.14,-407.74 805.6,-408.82 814.52,-414.55 816.14,-407.74"/>
</g>
<!-- Balsn -->
<g id="node29" class="node">
<title>Balsn</title>
<g id="a_node29"><a xlink:href="https://ctftime.org/team/16978" xlink:title="Balsn">
<ellipse fill="none" stroke="#4285f4" cx="340.77" cy="-64.1" rx="32.49" ry="18"/>
<text text-anchor="middle" x="340.77" y="-60.4" font-family="JetBrains Mono" font-size="14.00" fill="#4285f4">Balsn</text>
</a>
</g>
</g>
<!-- Balsn&#45;&gt;Balsn.217@TSJ.tw -->
<g id="edge28" class="edge">
<title>Balsn&#45;&gt;Balsn.217@TSJ.tw</title>
<path fill="none" stroke="grey" stroke-dasharray="5,2" d="M357.86,-79.45C388.22,-106.73 451.8,-163.85 488.3,-196.65"/>
<polygon fill="grey" stroke="grey" points="486.32,-199.57 496.1,-203.65 491,-194.36 486.32,-199.57"/>
</g>
<!-- 217 -->
<g id="node30" class="node">
<title>217</title>
<g id="a_node30"><a xlink:href="https://ctftime.org/team/5160" xlink:title="217">
<ellipse fill="none" stroke="#4285f4" cx="585.23" cy="-23" rx="27" ry="18"/>
<text text-anchor="middle" x="585.23" y="-19.3" font-family="JetBrains Mono" font-size="14.00" fill="#4285f4">217</text>
</a>
</g>
</g>
<!-- 217&#45;&gt;Balsn.217@TSJ.tw -->
<g id="edge29" class="edge">
<title>217&#45;&gt;Balsn.217@TSJ.tw</title>
<path fill="none" stroke="grey" stroke-dasharray="5,2" d="M579.06,-40.59C566.92,-75.17 539.87,-152.2 525.33,-193.61"/>
<polygon fill="grey" stroke="grey" points="522.01,-192.49 522,-203.09 528.62,-194.81 522.01,-192.49"/>
</g>
<!-- TSJ -->
<g id="node31" class="node">
<title>TSJ</title>
<g id="a_node31"><a xlink:href="https://ctftime.org/team/150366" xlink:title="TSJ">
<ellipse fill="none" stroke="#4285f4" cx="694.87" cy="-79.18" rx="27" ry="18"/>
<text text-anchor="middle" x="694.87" y="-75.48" font-family="JetBrains Mono" font-size="14.00" fill="#4285f4">TSJ</text>
</a>
</g>
</g>
<!-- TSJ&#45;&gt;Balsn.217@TSJ.tw -->
<g id="edge30" class="edge">
<title>TSJ&#45;&gt;Balsn.217@TSJ.tw</title>
<path fill="none" stroke="grey" stroke-dasharray="5,2" d="M677.36,-93.06C646.82,-117.26 583.46,-167.47 545.75,-197.35"/>
<polygon fill="grey" stroke="grey" points="543.32,-194.8 537.66,-203.76 547.67,-200.29 543.32,-194.8"/>
</g>
<!-- HITCON -->
<g id="node32" class="node">
<title>HITCON</title>
<g id="a_node32"><a xlink:href="https://ctftime.org/team/8299" xlink:title="HITCON">
<ellipse fill="none" stroke="#4285f4" cx="454.75" cy="-18" rx="44.69" ry="18"/>
<text text-anchor="middle" x="454.75" y="-14.3" font-family="JetBrains Mono" font-size="14.00" fill="#4285f4">HITCON</text>
</a>
</g>
</g>
<!-- HITCON&#45;&gt;Balsn.217@TSJ.tw -->
<g id="edge31" class="edge">
<title>HITCON&#45;&gt;Balsn.217@TSJ.tw</title>
<path fill="none" stroke="grey" stroke-dasharray="5,2" d="M460.16,-36.03C470.83,-71.66 494.68,-151.26 507.35,-193.56"/>
<polygon fill="grey" stroke="grey" points="504.02,-194.64 510.25,-203.21 510.73,-192.63 504.02,-194.64"/>
</g>
<!-- PwnThyBytes -->
<g id="node33" class="node">
<title>PwnThyBytes</title>
<g id="a_node33"><a xlink:href="https://ctftime.org/team/59199" xlink:title="PwnThyBytes">
<ellipse fill="none" stroke="#4285f4" cx="159.12" cy="-163.8" rx="64.19" ry="18"/>
<text text-anchor="middle" x="159.12" y="-160.1" font-family="JetBrains Mono" font-size="14.00" fill="#4285f4">PwnThyBytes</text>
</a>
</g>
</g>
<!-- PwnThyBytes&#45;&gt;PTB_WTL -->
<g id="edge32" class="edge">
<title>PwnThyBytes&#45;&gt;PTB_WTL</title>
<path fill="none" stroke="grey" stroke-dasharray="5,2" d="M171.46,-181.51C193.87,-213.69 241.34,-281.86 267.38,-319.26"/>
<polygon fill="grey" stroke="grey" points="264.62,-321.42 273.21,-327.62 270.37,-317.42 264.62,-321.42"/>
</g>
<!-- WreckTheLine -->
<g id="node34" class="node">
<title>WreckTheLine</title>
<g id="a_node34"><a xlink:href="https://ctftime.org/team/57908" xlink:title="WreckTheLine">
<ellipse fill="none" stroke="#4285f4" cx="67.59" cy="-294.73" rx="67.69" ry="18"/>
<text text-anchor="middle" x="67.59" y="-291.03" font-family="JetBrains Mono" font-size="14.00" fill="#4285f4">WreckTheLine</text>
</a>
</g>
</g>
<!-- WreckTheLine&#45;&gt;PTB_WTL -->
<g id="edge33" class="edge">
<title>WreckTheLine&#45;&gt;PTB_WTL</title>
<path fill="none" stroke="grey" stroke-dasharray="5,2" d="M118.66,-306.55C152.77,-314.44 197.53,-324.8 232.09,-332.8"/>
<polygon fill="grey" stroke="grey" points="231.48,-336.25 242.01,-335.1 233.06,-329.43 231.48,-336.25"/>
</g>
<!-- ./Vespiary -->
<g id="node35" class="node">
<title>./Vespiary</title>
<g id="a_node35"><a xlink:href="https://ctftime.org/team/80092" xlink:title="./Vespiary">
<ellipse fill="none" stroke="#4285f4" cx="921.32" cy="-749.26" rx="50.09" ry="18"/>
<text text-anchor="middle" x="921.32" y="-745.56" font-family="JetBrains Mono" font-size="14.00" fill="#4285f4">./Vespiary</text>
</a>
</g>
</g>
<!-- ./Vespiary&#45;&gt;./V /home/r/.bin/tw -->
<g id="edge34" class="edge">
<title>./Vespiary&#45;&gt;./V /home/r/.bin/tw</title>
<path fill="none" stroke="grey" stroke-dasharray="5,2" d="M887.34,-735.88C855.97,-723.53 808.97,-705.03 773.38,-691.02"/>
<polygon fill="grey" stroke="grey" points="774.25,-687.6 763.67,-687.2 771.69,-694.12 774.25,-687.6"/>
</g>
<!-- RicercaSec -->
<g id="node36" class="node">
<title>RicercaSec</title>
<ellipse fill="none" stroke="#4285f4" cx="949.05" cy="-634.01" rx="55.79" ry="18"/>
<text text-anchor="middle" x="949.05" y="-630.31" font-family="JetBrains Mono" font-size="14.00" fill="#4285f4">RicercaSec</text>
</g>
<!-- RicercaSec&#45;&gt;./V /home/r/.bin/tw -->
<g id="edge35" class="edge">
<title>RicercaSec&#45;&gt;./V /home/r/.bin/tw</title>
<path fill="none" stroke="grey" stroke-dasharray="5,2" d="M899.31,-642.27C869.94,-647.15 832.17,-653.43 799.18,-658.91"/>
<polygon fill="grey" stroke="grey" points="798.41,-655.49 789.11,-660.58 799.55,-662.39 798.41,-655.49"/>
</g>
<!-- binja -->
<g id="node37" class="node">
<title>binja</title>
<g id="a_node37"><a xlink:href="https://ctftime.org/team/9083" xlink:title="binja">
<ellipse fill="none" stroke="#4285f4" cx="845.86" cy="-846.39" rx="29.5" ry="18"/>
<text text-anchor="middle" x="845.86" y="-842.69" font-family="JetBrains Mono" font-size="14.00" fill="#4285f4">binja</text>
</a>
</g>
</g>
<!-- binja&#45;&gt;./V /home/r/.bin/tw -->
<g id="edge36" class="edge">
<title>binja&#45;&gt;./V /home/r/.bin/tw</title>
<path fill="none" stroke="grey" stroke-dasharray="5,2" d="M834.14,-829.61C812.88,-799.18 767.81,-734.65 742.3,-698.12"/>
<polygon fill="grey" stroke="grey" points="744.85,-695.67 736.26,-689.47 739.11,-699.68 744.85,-695.67"/>
</g>
<!-- TokyoWesterns -->
<g id="node38" class="node">
<title>TokyoWesterns</title>
<g id="a_node38"><a xlink:href="https://ctftime.org/team/12599" xlink:title="TokyoWesterns">
<ellipse fill="none" stroke="#4285f4" cx="745.51" cy="-901.84" rx="70.69" ry="18"/>
<text text-anchor="middle" x="745.51" y="-898.14" font-family="JetBrains Mono" font-size="14.00" fill="#4285f4">TokyoWesterns</text>
</a>
</g>
</g>
<!-- TokyoWesterns&#45;&gt;./V /home/r/.bin/tw -->
<g id="edge37" class="edge">
<title>TokyoWesterns&#45;&gt;./V /home/r/.bin/tw</title>
<path fill="none" stroke="grey" stroke-dasharray="5,2" d="M743.79,-883.77C740.01,-843.82 730.9,-747.8 726.35,-699.79"/>
<polygon fill="grey" stroke="grey" points="729.83,-699.39 725.4,-689.76 722.86,-700.05 729.83,-699.39"/>
</g>
</g>
</svg>
