<?xml version="1.0" encoding="UTF-8" standalone="no"?>
<!DOCTYPE svg PUBLIC "-//W3C//DTD SVG 1.1//EN"
 "http://www.w3.org/Graphics/SVG/1.1/DTD/svg11.dtd">
<!-- Generated by graphviz version 2.43.0 (0)
 -->
<!-- Title: teams Pages: 1 -->
<svg width="1359pt" height="1101pt"
 viewBox="0.00 0.00 1359.02 1101.31" xmlns="http://www.w3.org/2000/svg" xmlns:xlink="http://www.w3.org/1999/xlink">
<g id="graph0" class="graph" transform="scale(1 1) rotate(0) translate(4 1097.31)">
<title>teams</title>
<polygon fill="white" stroke="transparent" points="-4,4 -4,-1097.31 1355.02,-1097.31 1355.02,4 -4,4"/>
<!-- DEFCON_QUALS -->
<g id="node1" class="node">
<title>DEFCON_QUALS</title>
<g id="a_node1"><a xlink:href="https://quals.2022.nautilus.institute/dashboard" xlink:title="DEFCON_QUALS">
<ellipse fill="none" stroke="black" stroke-width="2" cx="600.53" cy="-535.27" rx="85.29" ry="18"/>
<text text-anchor="middle" x="600.53" y="-531.57" font-family="JetBrains Mono" font-size="14.00">DEFCON_QUALS</text>
</a>
</g>
</g>
<!-- perfect r✪✪✪t -->
<g id="node2" class="node">
<title>perfect r✪✪✪t</title>
<g id="a_node2"><a xlink:href="https://ctftime.org/team/176403" xlink:title="perfect r✪✪✪t">
<ellipse fill="none" stroke="#db4437" cx="599.93" cy="-283.22" rx="76.89" ry="18"/>
<text text-anchor="middle" x="599.93" y="-279.52" font-family="JetBrains Mono" font-size="14.00" fill="#db4437">perfect r✪✪✪t</text>
</a>
</g>
</g>
<!-- perfect r✪✪✪t&#45;&gt;DEFCON_QUALS -->
<g id="edge1" class="edge">
<title>perfect r✪✪✪t&#45;&gt;DEFCON_QUALS</title>
<path fill="none" stroke="black" stroke-width="2" d="M602.63,-301.32C608.21,-338.86 620.54,-421.68 620.54,-421.68 620.54,-421.68 611.43,-473.43 605.5,-507.07"/>
<polygon fill="black" stroke="black" stroke-width="2" points="601.99,-506.82 603.7,-517.27 608.88,-508.03 601.99,-506.82"/>
</g>
<!-- Balsn.217@TSJ.tw -->
<g id="node3" class="node">
<title>Balsn.217@TSJ.tw</title>
<g id="a_node3"><a xlink:href="https://ctftime.org/team/189868" xlink:title="Balsn.217@TSJ.tw">
<ellipse fill="none" stroke="#db4437" cx="425.99" cy="-327.32" rx="92.88" ry="18"/>
<text text-anchor="middle" x="425.99" y="-323.62" font-family="JetBrains Mono" font-size="14.00" fill="#db4437">Balsn.217@TSJ.tw</text>
</a>
</g>
</g>
<!-- Balsn.217@TSJ.tw&#45;&gt;DEFCON_QUALS -->
<g id="edge2" class="edge">
<title>Balsn.217@TSJ.tw&#45;&gt;DEFCON_QUALS</title>
<path fill="none" stroke="black" stroke-width="2" d="M441.17,-345.41C472.26,-382.45 543.24,-467.02 579.04,-509.67"/>
<polygon fill="black" stroke="black" stroke-width="2" points="576.4,-511.96 585.51,-517.37 581.76,-507.46 576.4,-511.96"/>
</g>
<!-- The Duck -->
<g id="node4" class="node">
<title>The Duck</title>
<g id="a_node4"><a xlink:href="https://ctftime.org/team/111501" xlink:title="The Duck">
<ellipse fill="none" stroke="#db4437" cx="548.4" cy="-655.91" rx="53.09" ry="18"/>
<text text-anchor="middle" x="548.4" y="-652.21" font-family="JetBrains Mono" font-size="14.00" fill="#db4437">The Duck</text>
</a>
</g>
</g>
<!-- The Duck&#45;&gt;DEFCON_QUALS -->
<g id="edge3" class="edge">
<title>The Duck&#45;&gt;DEFCON_QUALS</title>
<path fill="none" stroke="black" stroke-width="2" d="M556.2,-637.85C564.8,-617.95 578.73,-585.72 588.68,-562.69"/>
<polygon fill="black" stroke="black" stroke-width="2" points="591.92,-564.02 592.67,-553.45 585.49,-561.25 591.92,-564.02"/>
</g>
<!-- Sauercloud -->
<g id="node5" class="node">
<title>Sauercloud</title>
<g id="a_node5"><a xlink:href="https://ctftime.org/team/54748" xlink:title="Sauercloud">
<ellipse fill="none" stroke="#db4437" cx="386.68" cy="-747.82" rx="61.19" ry="18"/>
<text text-anchor="middle" x="386.68" y="-744.12" font-family="JetBrains Mono" font-size="14.00" fill="#db4437">Sauercloud</text>
</a>
</g>
</g>
<!-- Sauercloud&#45;&gt;DEFCON_QUALS -->
<g id="edge4" class="edge">
<title>Sauercloud&#45;&gt;DEFCON_QUALS</title>
<path fill="none" stroke="black" stroke-width="2" d="M404.18,-730.43C442.09,-692.75 531.89,-603.49 575.67,-559.98"/>
<polygon fill="black" stroke="black" stroke-width="2" points="578.16,-562.44 582.79,-552.9 573.23,-557.47 578.16,-562.44"/>
</g>
<!-- Water Paddler -->
<g id="node6" class="node">
<title>Water Paddler</title>
<g id="a_node6"><a xlink:href="https://ctftime.org/team/155019" xlink:title="Water Paddler">
<ellipse fill="none" stroke="#db4437" cx="480.44" cy="-579.81" rx="73.39" ry="18"/>
<text text-anchor="middle" x="480.44" y="-576.11" font-family="JetBrains Mono" font-size="14.00" fill="#db4437">Water Paddler</text>
</a>
</g>
</g>
<!-- Water Paddler&#45;&gt;DEFCON_QUALS -->
<g id="edge5" class="edge">
<title>Water Paddler&#45;&gt;DEFCON_QUALS</title>
<path fill="none" stroke="black" stroke-width="2" d="M521.1,-564.73C529.99,-561.43 539.51,-557.9 548.77,-554.47"/>
<polygon fill="black" stroke="black" stroke-width="2" points="550.12,-557.7 558.28,-550.94 547.68,-551.14 550.12,-557.7"/>
</g>
<!-- PTB_WTL -->
<g id="node7" class="node">
<title>PTB_WTL</title>
<g id="a_node7"><a xlink:href="https://ctftime.org/team/119975" xlink:title="PTB_WTL">
<ellipse fill="none" stroke="#db4437" cx="730.44" cy="-332.91" rx="51.19" ry="18"/>
<text text-anchor="middle" x="730.44" y="-329.21" font-family="JetBrains Mono" font-size="14.00" fill="#db4437">PTB_WTL</text>
</a>
</g>
</g>
<!-- PTB_WTL&#45;&gt;DEFCON_QUALS -->
<g id="edge6" class="edge">
<title>PTB_WTL&#45;&gt;DEFCON_QUALS</title>
<path fill="none" stroke="black" stroke-width="2" d="M719.14,-350.51C696.3,-386.08 644.57,-466.67 617.6,-508.68"/>
<polygon fill="black" stroke="black" stroke-width="2" points="614.54,-506.97 612.08,-517.27 620.43,-510.75 614.54,-506.97"/>
</g>
<!-- ./V /home/r/.bin/tw -->
<g id="node8" class="node">
<title>./V /home/r/.bin/tw</title>
<g id="a_node8"><a xlink:href="https://ctftime.org/team/189869" xlink:title="./V /home/r/.bin/tw">
<ellipse fill="none" stroke="#db4437" cx="332.4" cy="-468.76" rx="94.78" ry="18"/>
<text text-anchor="middle" x="332.4" y="-465.06" font-family="JetBrains Mono" font-size="14.00" fill="#db4437">./V /home/r/.bin/tw</text>
</a>
</g>
</g>
<!-- ./V /home/r/.bin/tw&#45;&gt;DEFCON_QUALS -->
<g id="edge7" class="edge">
<title>./V /home/r/.bin/tw&#45;&gt;DEFCON_QUALS</title>
<path fill="none" stroke="black" stroke-width="2" d="M390.25,-483.11C432.9,-493.69 490.97,-508.09 535.27,-519.08"/>
<polygon fill="black" stroke="black" stroke-width="2" points="534.53,-522.5 545.08,-521.51 536.21,-515.71 534.53,-522.5"/>
</g>
<!-- Straw Hat -->
<g id="node9" class="node">
<title>Straw Hat</title>
<g id="a_node9"><a xlink:href="https://ctftime.org/team/19208" xlink:title="Straw Hat">
<ellipse fill="none" stroke="#db4437" cx="690.92" cy="-781.48" rx="55.49" ry="18"/>
<text text-anchor="middle" x="690.92" y="-777.78" font-family="JetBrains Mono" font-size="14.00" fill="#db4437">Straw Hat</text>
</a>
</g>
</g>
<!-- Straw Hat&#45;&gt;DEFCON_QUALS -->
<g id="edge8" class="edge">
<title>Straw Hat&#45;&gt;DEFCON_QUALS</title>
<path fill="none" stroke="black" stroke-width="2" d="M678.66,-763.89C655.82,-731.11 609.03,-663.99 609.03,-663.99 609.03,-663.99 604.92,-601.8 602.42,-563.88"/>
<polygon fill="black" stroke="black" stroke-width="2" points="605.88,-563.19 601.73,-553.44 598.9,-563.65 605.88,-563.19"/>
</g>
<!-- PPP -->
<g id="node10" class="node">
<title>PPP</title>
<g id="a_node10"><a xlink:href="https://ctftime.org/team/284" xlink:title="PPP">
<ellipse fill="none" stroke="#db4437" cx="720.77" cy="-500.6" rx="27" ry="18"/>
<text text-anchor="middle" x="720.77" y="-496.9" font-family="JetBrains Mono" font-size="14.00" fill="#db4437">PPP</text>
</a>
</g>
</g>
<!-- PPP&#45;&gt;DEFCON_QUALS -->
<g id="edge9" class="edge">
<title>PPP&#45;&gt;DEFCON_QUALS</title>
<path fill="none" stroke="black" stroke-width="2" d="M695.85,-507.78C685.65,-510.72 673.36,-514.27 661.04,-517.82"/>
<polygon fill="black" stroke="black" stroke-width="2" points="659.84,-514.52 651.2,-520.66 661.78,-521.25 659.84,-514.52"/>
</g>
<!-- Katzebin -->
<g id="node11" class="node">
<title>Katzebin</title>
<g id="a_node11"><a xlink:href="https://ctftime.org/team/141539" xlink:title="Katzebin">
<ellipse fill="none" stroke="#db4437" cx="485.63" cy="-483.63" rx="50.09" ry="18"/>
<text text-anchor="middle" x="485.63" y="-479.93" font-family="JetBrains Mono" font-size="14.00" fill="#db4437">Katzebin</text>
</a>
</g>
</g>
<!-- Katzebin&#45;&gt;DEFCON_QUALS -->
<g id="edge10" class="edge">
<title>Katzebin&#45;&gt;DEFCON_QUALS</title>
<path fill="none" stroke="black" stroke-width="2" d="M517.03,-497.74C528.57,-502.93 541.89,-508.92 554.46,-514.57"/>
<polygon fill="black" stroke="black" stroke-width="2" points="553.32,-517.89 563.88,-518.8 556.19,-511.51 553.32,-517.89"/>
</g>
<!-- StarBugs -->
<g id="node12" class="node">
<title>StarBugs</title>
<g id="a_node12"><a xlink:href="https://ctftime.org/team/152239" xlink:title="StarBugs">
<ellipse fill="none" stroke="#db4437" cx="863.29" cy="-476.21" rx="51.99" ry="18"/>
<text text-anchor="middle" x="863.29" y="-472.51" font-family="JetBrains Mono" font-size="14.00" fill="#db4437">StarBugs</text>
</a>
</g>
</g>
<!-- StarBugs&#45;&gt;DEFCON_QUALS -->
<g id="edge11" class="edge">
<title>StarBugs&#45;&gt;DEFCON_QUALS</title>
<path fill="none" stroke="black" stroke-width="2" d="M824.54,-488.35C788.66,-499.59 740.82,-514.57 740.82,-514.57 740.82,-514.57 720.52,-520.2 720.52,-520.2 720.52,-520.2 704.31,-522.23 683.81,-524.81"/>
<polygon fill="black" stroke="black" stroke-width="2" points="683.27,-521.35 673.79,-526.07 684.15,-528.29 683.27,-521.35"/>
</g>
<!-- Shellphish -->
<g id="node13" class="node">
<title>Shellphish</title>
<g id="a_node13"><a xlink:href="https://ctftime.org/team/285" xlink:title="Shellphish">
<ellipse fill="none" stroke="#db4437" cx="724.17" cy="-602.91" rx="57.69" ry="18"/>
<text text-anchor="middle" x="724.17" y="-599.21" font-family="JetBrains Mono" font-size="14.00" fill="#db4437">Shellphish</text>
</a>
</g>
</g>
<!-- Shellphish&#45;&gt;DEFCON_QUALS -->
<g id="edge12" class="edge">
<title>Shellphish&#45;&gt;DEFCON_QUALS</title>
<path fill="none" stroke="black" stroke-width="2" d="M695.49,-587.22C679.21,-578.32 658.58,-567.03 640.71,-557.25"/>
<polygon fill="black" stroke="black" stroke-width="2" points="642.1,-554.02 631.65,-552.3 638.74,-560.17 642.1,-554.02"/>
</g>
<!-- r3kapig -->
<g id="node14" class="node">
<title>r3kapig</title>
<g id="a_node14"><a xlink:href="https://ctftime.org/team/58979" xlink:title="r3kapig">
<ellipse fill="none" stroke="#db4437" cx="655.47" cy="-664.18" rx="44.69" ry="18"/>
<text text-anchor="middle" x="655.47" y="-660.48" font-family="JetBrains Mono" font-size="14.00" fill="#db4437">r3kapig</text>
</a>
</g>
</g>
<!-- r3kapig&#45;&gt;DEFCON_QUALS -->
<g id="edge13" class="edge">
<title>r3kapig&#45;&gt;DEFCON_QUALS</title>
<path fill="none" stroke="black" stroke-width="2" d="M647.83,-646.26C638.62,-624.64 623.03,-588.06 612.28,-562.84"/>
<polygon fill="black" stroke="black" stroke-width="2" points="615.42,-561.29 608.28,-553.46 608.98,-564.03 615.42,-561.29"/>
</g>
<!-- DiceGuesser -->
<g id="node15" class="node">
<title>DiceGuesser</title>
<g id="a_node15"><a xlink:href="https://ctftime.org/team/182504" xlink:title="DiceGuesser">
<ellipse fill="none" stroke="#db4437" cx="786.27" cy="-385.64" rx="67.69" ry="18"/>
<text text-anchor="middle" x="786.27" y="-381.94" font-family="JetBrains Mono" font-size="14.00" fill="#db4437">DiceGuesser</text>
</a>
</g>
</g>
<!-- DiceGuesser&#45;&gt;DEFCON_QUALS -->
<g id="edge14" class="edge">
<title>DiceGuesser&#45;&gt;DEFCON_QUALS</title>
<path fill="none" stroke="black" stroke-width="2" d="M764.96,-402.81C731.83,-429.5 667.87,-481.03 630.22,-511.35"/>
<polygon fill="black" stroke="black" stroke-width="2" points="627.75,-508.85 622.16,-517.85 632.14,-514.3 627.75,-508.85"/>
</g>
<!-- OSUSEC -->
<g id="node16" class="node">
<title>OSUSEC</title>
<g id="a_node16"><a xlink:href="https://ctftime.org/team/12858" xlink:title="OSUSEC">
<ellipse fill="none" stroke="#db4437" cx="570.2" cy="-421.63" rx="48.99" ry="18"/>
<text text-anchor="middle" x="570.2" y="-417.93" font-family="JetBrains Mono" font-size="14.00" fill="#db4437">OSUSEC</text>
</a>
</g>
</g>
<!-- OSUSEC&#45;&gt;DEFCON_QUALS -->
<g id="edge15" class="edge">
<title>OSUSEC&#45;&gt;DEFCON_QUALS</title>
<path fill="none" stroke="black" stroke-width="2" d="M575,-439.64C579.86,-457.82 587.42,-486.15 593.05,-507.26"/>
<polygon fill="black" stroke="black" stroke-width="2" points="589.69,-508.21 595.65,-516.97 596.45,-506.41 589.69,-508.21"/>
</g>
<!-- organizers -->
<g id="node17" class="node">
<title>organizers</title>
<g id="a_node17"><a xlink:href="https://ctftime.org/team/42934" xlink:title="organizers">
<ellipse fill="none" stroke="#db4437" cx="870.27" cy="-656.17" rx="57.69" ry="18"/>
<text text-anchor="middle" x="870.27" y="-652.47" font-family="JetBrains Mono" font-size="14.00" fill="#db4437">organizers</text>
</a>
</g>
</g>
<!-- organizers&#45;&gt;DEFCON_QUALS -->
<g id="edge16" class="edge">
<title>organizers&#45;&gt;DEFCON_QUALS</title>
<path fill="none" stroke="black" stroke-width="2" d="M845.11,-639.93C814.35,-620.08 766.35,-589.1 766.35,-589.1 766.35,-589.1 704.96,-569.17 656.88,-553.56"/>
<polygon fill="black" stroke="black" stroke-width="2" points="657.75,-550.17 647.16,-550.41 655.59,-556.83 657.75,-550.17"/>
</g>
<!-- KITCTF -->
<g id="node18" class="node">
<title>KITCTF</title>
<g id="a_node18"><a xlink:href="https://ctftime.org/team/7221" xlink:title="KITCTF">
<ellipse fill="none" stroke="#4285f4" cx="188.18" cy="-929.21" rx="41.69" ry="18"/>
<text text-anchor="middle" x="188.18" y="-925.51" font-family="JetBrains Mono" font-size="14.00" fill="#4285f4">KITCTF</text>
</a>
</g>
</g>
<!-- KITCTF&#45;&gt;Sauercloud -->
<g id="edge17" class="edge">
<title>KITCTF&#45;&gt;Sauercloud</title>
<path fill="none" stroke="grey" stroke-dasharray="5,2" d="M214.31,-915.06C257.29,-891.8 338.2,-848.02 338.2,-848.02 338.2,-848.02 358.1,-834.19 358.1,-834.19 358.1,-834.19 369.11,-800.91 377.46,-775.67"/>
<polygon fill="grey" stroke="grey" points="380.8,-776.73 380.62,-766.14 374.15,-774.53 380.8,-776.73"/>
</g>
<!-- Eat Sleep Pwn Repeat -->
<g id="node19" class="node">
<title>Eat Sleep Pwn Repeat</title>
<g id="a_node19"><a xlink:href="https://ctftime.org/team/15712" xlink:title="Eat Sleep Pwn Repeat">
<ellipse fill="none" stroke="#4285f4" cx="108.54" cy="-869.05" rx="108.58" ry="18"/>
<text text-anchor="middle" x="108.54" y="-865.35" font-family="JetBrains Mono" font-size="14.00" fill="#4285f4">Eat Sleep Pwn Repeat</text>
</a>
</g>
</g>
<!-- Eat Sleep Pwn Repeat&#45;&gt;Sauercloud -->
<g id="edge18" class="edge">
<title>Eat Sleep Pwn Repeat&#45;&gt;Sauercloud</title>
<path fill="none" stroke="grey" stroke-dasharray="5,2" d="M147.21,-852.19C198.61,-829.79 289.18,-790.31 342.99,-766.86"/>
<polygon fill="grey" stroke="grey" points="344.5,-770.02 352.27,-762.82 341.7,-763.6 344.5,-770.02"/>
</g>
<!-- Flux Fingers -->
<g id="node20" class="node">
<title>Flux Fingers</title>
<g id="a_node20"><a xlink:href="https://ctftime.org/team/551" xlink:title="Flux Fingers">
<ellipse fill="none" stroke="#4285f4" cx="290.85" cy="-834.1" rx="65.79" ry="18"/>
<text text-anchor="middle" x="290.85" y="-830.4" font-family="JetBrains Mono" font-size="14.00" fill="#4285f4">Flux Fingers</text>
</a>
</g>
</g>
<!-- Flux Fingers&#45;&gt;Sauercloud -->
<g id="edge19" class="edge">
<title>Flux Fingers&#45;&gt;Sauercloud</title>
<path fill="none" stroke="grey" stroke-dasharray="5,2" d="M310.24,-816.64C324.49,-803.81 344.04,-786.21 359.8,-772.03"/>
<polygon fill="grey" stroke="grey" points="362.55,-774.25 367.64,-764.96 357.87,-769.05 362.55,-774.25"/>
</g>
<!-- Red Rocket -->
<g id="node21" class="node">
<title>Red Rocket</title>
<g id="a_node21"><a xlink:href="https://ctftime.org/team/48677" xlink:title="Red Rocket">
<ellipse fill="none" stroke="#4285f4" cx="132.52" cy="-782.43" rx="60.39" ry="18"/>
<text text-anchor="middle" x="132.52" y="-778.73" font-family="JetBrains Mono" font-size="14.00" fill="#4285f4">Red Rocket</text>
</a>
</g>
</g>
<!-- Red Rocket&#45;&gt;Sauercloud -->
<g id="edge20" class="edge">
<title>Red Rocket&#45;&gt;Sauercloud</title>
<path fill="none" stroke="grey" stroke-dasharray="5,2" d="M187.67,-774.92C226.92,-769.57 279.81,-762.37 321.21,-756.73"/>
<polygon fill="grey" stroke="grey" points="321.76,-760.19 331.2,-755.37 320.82,-753.26 321.76,-760.19"/>
</g>
<!-- Alles! -->
<g id="node22" class="node">
<title>Alles!</title>
<g id="a_node22"><a xlink:href="https://ctftime.org/team/18419" xlink:title="Alles!">
<ellipse fill="none" stroke="#4285f4" cx="123.7" cy="-708.13" rx="36" ry="18"/>
<text text-anchor="middle" x="123.7" y="-704.43" font-family="JetBrains Mono" font-size="14.00" fill="#4285f4">Alles!</text>
</a>
</g>
</g>
<!-- Alles!&#45;&gt;Sauercloud -->
<g id="edge21" class="edge">
<title>Alles!&#45;&gt;Sauercloud</title>
<path fill="none" stroke="grey" stroke-dasharray="5,2" d="M158.08,-713.32C199.59,-719.59 270.26,-730.25 322.06,-738.07"/>
<polygon fill="grey" stroke="grey" points="321.75,-741.56 332.16,-739.59 322.79,-734.64 321.75,-741.56"/>
</g>
<!-- ENOFLAG -->
<g id="node23" class="node">
<title>ENOFLAG</title>
<g id="a_node23"><a xlink:href="https://ctftime.org/team/1438" xlink:title="ENOFLAG">
<ellipse fill="none" stroke="#4285f4" cx="428.18" cy="-1003.57" rx="53.89" ry="18"/>
<text text-anchor="middle" x="428.18" y="-999.87" font-family="JetBrains Mono" font-size="14.00" fill="#4285f4">ENOFLAG</text>
</a>
</g>
</g>
<!-- ENOFLAG&#45;&gt;Sauercloud -->
<g id="edge22" class="edge">
<title>ENOFLAG&#45;&gt;Sauercloud</title>
<path fill="none" stroke="grey" stroke-dasharray="5,2" d="M425.26,-985.59C418.15,-941.76 399.88,-829.17 391.28,-776.19"/>
<polygon fill="grey" stroke="grey" points="394.71,-775.44 389.65,-766.13 387.8,-776.56 394.71,-775.44"/>
</g>
<!-- FAUST -->
<g id="node24" class="node">
<title>FAUST</title>
<g id="a_node24"><a xlink:href="https://ctftime.org/team/550" xlink:title="FAUST">
<ellipse fill="none" stroke="#4285f4" cx="529.81" cy="-1010.41" rx="39.79" ry="18"/>
<text text-anchor="middle" x="529.81" y="-1006.71" font-family="JetBrains Mono" font-size="14.00" fill="#4285f4">FAUST</text>
</a>
</g>
</g>
<!-- FAUST&#45;&gt;Sauercloud -->
<g id="edge23" class="edge">
<title>FAUST&#45;&gt;Sauercloud</title>
<path fill="none" stroke="grey" stroke-dasharray="5,2" d="M517.84,-993.17C500.56,-968.29 470.67,-925.23 470.67,-925.23 470.67,-925.23 423.1,-824.76 399.56,-775.03"/>
<polygon fill="grey" stroke="grey" points="402.64,-773.35 395.19,-765.81 396.31,-776.34 402.64,-773.35"/>
</g>
<!-- WizardsOfDos -->
<g id="node25" class="node">
<title>WizardsOfDos</title>
<g id="a_node25"><a xlink:href="https://ctftime.org/team/561" xlink:title="WizardsOfDos">
<ellipse fill="none" stroke="#4285f4" cx="292.06" cy="-973.25" rx="74.19" ry="18"/>
<text text-anchor="middle" x="292.06" y="-969.55" font-family="JetBrains Mono" font-size="14.00" fill="#4285f4">WizardsOfDos</text>
</a>
</g>
</g>
<!-- WizardsOfDos&#45;&gt;Sauercloud -->
<g id="edge24" class="edge">
<title>WizardsOfDos&#45;&gt;Sauercloud</title>
<path fill="none" stroke="grey" stroke-dasharray="5,2" d="M300.56,-955.35C318.39,-917.79 358.1,-834.19 358.1,-834.19 358.1,-834.19 369.11,-800.91 377.46,-775.67"/>
<polygon fill="grey" stroke="grey" points="380.8,-776.73 380.62,-766.14 374.15,-774.53 380.8,-776.73"/>
</g>
<!-- Squareroots -->
<g id="node26" class="node">
<title>Squareroots</title>
<g id="a_node26"><a xlink:href="https://ctftime.org/team/554" xlink:title="Squareroots">
<ellipse fill="none" stroke="#4285f4" cx="233.05" cy="-667.95" rx="64.99" ry="18"/>
<text text-anchor="middle" x="233.05" y="-664.25" font-family="JetBrains Mono" font-size="14.00" fill="#4285f4">Squareroots</text>
</a>
</g>
</g>
<!-- Squareroots&#45;&gt;Sauercloud -->
<g id="edge25" class="edge">
<title>Squareroots&#45;&gt;Sauercloud</title>
<path fill="none" stroke="grey" stroke-dasharray="5,2" d="M263.77,-683.92C287.79,-696.41 321.35,-713.86 347.34,-727.37"/>
<polygon fill="grey" stroke="grey" points="346.05,-730.64 356.54,-732.15 349.28,-724.43 346.05,-730.64"/>
</g>
<!-- saarsec -->
<g id="node27" class="node">
<title>saarsec</title>
<g id="a_node27"><a xlink:href="https://ctftime.org/team/15337" xlink:title="saarsec">
<ellipse fill="none" stroke="#4285f4" cx="517.76" cy="-925.38" rx="45.49" ry="18"/>
<text text-anchor="middle" x="517.76" y="-921.68" font-family="JetBrains Mono" font-size="14.00" fill="#4285f4">saarsec</text>
</a>
</g>
</g>
<!-- saarsec&#45;&gt;Sauercloud -->
<g id="edge26" class="edge">
<title>saarsec&#45;&gt;Sauercloud</title>
<path fill="none" stroke="grey" stroke-dasharray="5,2" d="M504.95,-908.03C481.81,-876.69 432.93,-810.47 405.81,-773.73"/>
<polygon fill="grey" stroke="grey" points="408.49,-771.47 399.73,-765.5 402.85,-775.63 408.49,-771.47"/>
</g>
<!-- perfect blue -->
<g id="node28" class="node">
<title>perfect blue</title>
<g id="a_node28"><a xlink:href="https://ctftime.org/team/53802" xlink:title="perfect blue">
<ellipse fill="none" stroke="#4285f4" cx="441" cy="-42.51" rx="65.79" ry="18"/>
<text text-anchor="middle" x="441" y="-38.81" font-family="JetBrains Mono" font-size="14.00" fill="#4285f4">perfect blue</text>
</a>
</g>
</g>
<!-- perfect blue&#45;&gt;perfect r✪✪✪t -->
<g id="edge27" class="edge">
<title>perfect blue&#45;&gt;perfect r✪✪✪t</title>
<path fill="none" stroke="grey" stroke-dasharray="5,2" d="M452.95,-60.6C480.74,-102.7 549.86,-207.38 582.43,-256.71"/>
<polygon fill="grey" stroke="grey" points="579.63,-258.83 588.06,-265.25 585.47,-254.98 579.63,-258.83"/>
</g>
<!-- r00timentary -->
<g id="node29" class="node">
<title>r00timentary</title>
<g id="a_node29"><a xlink:href="https://ctftime.org/team/32783" xlink:title="r00timentary">
<ellipse fill="none" stroke="#4285f4" cx="584.9" cy="-18" rx="70.39" ry="18"/>
<text text-anchor="middle" x="584.9" y="-14.3" font-family="JetBrains Mono" font-size="14.00" fill="#4285f4">r00timentary</text>
</a>
</g>
</g>
<!-- r00timentary&#45;&gt;perfect r✪✪✪t -->
<g id="edge28" class="edge">
<title>r00timentary&#45;&gt;perfect r✪✪✪t</title>
<path fill="none" stroke="grey" stroke-dasharray="5,2" d="M585.93,-36.23C588.51,-81.76 595.25,-200.72 598.34,-255.22"/>
<polygon fill="grey" stroke="grey" points="594.85,-255.43 598.91,-265.22 601.84,-255.04 594.85,-255.43"/>
</g>
<!-- Samsung Research -->
<g id="node30" class="node">
<title>Samsung Research</title>
<ellipse fill="none" stroke="#4285f4" cx="760.03" cy="-52.79" rx="96.68" ry="18"/>
<text text-anchor="middle" x="760.03" y="-49.09" font-family="JetBrains Mono" font-size="14.00" fill="#4285f4">Samsung Research</text>
</g>
<!-- Samsung Research&#45;&gt;perfect r✪✪✪t -->
<g id="edge29" class="edge">
<title>Samsung Research&#45;&gt;perfect r✪✪✪t</title>
<path fill="none" stroke="grey" stroke-dasharray="5,2" d="M747.46,-70.87C719.35,-111.34 651.25,-209.36 618.34,-256.73"/>
<polygon fill="grey" stroke="grey" points="615.27,-255.02 612.43,-265.23 621.01,-259.01 615.27,-255.02"/>
</g>
<!-- Balsn -->
<g id="node31" class="node">
<title>Balsn</title>
<g id="a_node31"><a xlink:href="https://ctftime.org/team/16978" xlink:title="Balsn">
<ellipse fill="none" stroke="#4285f4" cx="165.99" cy="-240.22" rx="36" ry="18"/>
<text text-anchor="middle" x="165.99" y="-236.52" font-family="JetBrains Mono" font-size="14.00" fill="#4285f4">Balsn</text>
</a>
</g>
</g>
<!-- Balsn&#45;&gt;Balsn.217@TSJ.tw -->
<g id="edge30" class="edge">
<title>Balsn&#45;&gt;Balsn.217@TSJ.tw</title>
<path fill="none" stroke="grey" stroke-dasharray="5,2" d="M195.82,-250.22C238.14,-264.39 316.38,-290.6 369.79,-308.49"/>
<polygon fill="grey" stroke="grey" points="368.86,-311.87 379.46,-311.73 371.09,-305.23 368.86,-311.87"/>
</g>
<!-- 217 -->
<g id="node32" class="node">
<title>217</title>
<g id="a_node32"><a xlink:href="https://ctftime.org/team/5160" xlink:title="217">
<ellipse fill="none" stroke="#4285f4" cx="343.7" cy="-86.55" rx="28.7" ry="18"/>
<text text-anchor="middle" x="343.7" y="-82.85" font-family="JetBrains Mono" font-size="14.00" fill="#4285f4">217</text>
</a>
</g>
</g>
<!-- 217&#45;&gt;Balsn.217@TSJ.tw -->
<g id="edge31" class="edge">
<title>217&#45;&gt;Balsn.217@TSJ.tw</title>
<path fill="none" stroke="grey" stroke-dasharray="5,2" d="M349.75,-104.25C363.95,-145.8 399.51,-249.83 416.57,-299.75"/>
<polygon fill="grey" stroke="grey" points="413.27,-300.93 419.82,-309.26 419.9,-298.66 413.27,-300.93"/>
</g>
<!-- TSJ -->
<g id="node33" class="node">
<title>TSJ</title>
<g id="a_node33"><a xlink:href="https://ctftime.org/team/150366" xlink:title="TSJ">
<ellipse fill="none" stroke="#4285f4" cx="280.09" cy="-101.08" rx="27" ry="18"/>
<text text-anchor="middle" x="280.09" y="-97.38" font-family="JetBrains Mono" font-size="14.00" fill="#4285f4">TSJ</text>
</a>
</g>
</g>
<!-- TSJ&#45;&gt;Balsn.217@TSJ.tw -->
<g id="edge32" class="edge">
<title>TSJ&#45;&gt;Balsn.217@TSJ.tw</title>
<path fill="none" stroke="grey" stroke-dasharray="5,2" d="M290.82,-117.71C315.92,-156.63 378.64,-253.89 409,-300.96"/>
<polygon fill="grey" stroke="grey" points="406.08,-302.9 414.44,-309.41 411.97,-299.11 406.08,-302.9"/>
</g>
<!-- HITCON -->
<g id="node34" class="node">
<title>HITCON</title>
<g id="a_node34"><a xlink:href="https://ctftime.org/team/8299" xlink:title="HITCON">
<ellipse fill="none" stroke="#4285f4" cx="200.93" cy="-157.98" rx="46.29" ry="18"/>
<text text-anchor="middle" x="200.93" y="-154.28" font-family="JetBrains Mono" font-size="14.00" fill="#4285f4">HITCON</text>
</a>
</g>
</g>
<!-- HITCON&#45;&gt;Balsn.217@TSJ.tw -->
<g id="edge33" class="edge">
<title>HITCON&#45;&gt;Balsn.217@TSJ.tw</title>
<path fill="none" stroke="grey" stroke-dasharray="5,2" d="M222.51,-174.22C262.49,-204.3 348.22,-268.8 394.62,-303.71"/>
<polygon fill="grey" stroke="grey" points="392.71,-306.65 402.8,-309.87 396.92,-301.06 392.71,-306.65"/>
</g>
<!-- PwnThyBytes -->
<g id="node35" class="node">
<title>PwnThyBytes</title>
<g id="a_node35"><a xlink:href="https://ctftime.org/team/59199" xlink:title="PwnThyBytes">
<ellipse fill="none" stroke="#4285f4" cx="1003.99" cy="-185.27" rx="71.49" ry="18"/>
<text text-anchor="middle" x="1003.99" y="-181.57" font-family="JetBrains Mono" font-size="14.00" fill="#4285f4">PwnThyBytes</text>
</a>
</g>
</g>
<!-- PwnThyBytes&#45;&gt;PTB_WTL -->
<g id="edge34" class="edge">
<title>PwnThyBytes&#45;&gt;PTB_WTL</title>
<path fill="none" stroke="grey" stroke-dasharray="5,2" d="M973.67,-201.63C923.17,-228.89 822.02,-283.48 767.42,-312.95"/>
<polygon fill="grey" stroke="grey" points="765.56,-309.97 758.43,-317.8 768.89,-316.13 765.56,-309.97"/>
</g>
<!-- WreckTheLine -->
<g id="node36" class="node">
<title>WreckTheLine</title>
<g id="a_node36"><a xlink:href="https://ctftime.org/team/57908" xlink:title="WreckTheLine">
<ellipse fill="none" stroke="#4285f4" cx="938.41" cy="-95.26" rx="73.39" ry="18"/>
<text text-anchor="middle" x="938.41" y="-91.56" font-family="JetBrains Mono" font-size="14.00" fill="#4285f4">WreckTheLine</text>
</a>
</g>
</g>
<!-- WreckTheLine&#45;&gt;PTB_WTL -->
<g id="edge35" class="edge">
<title>WreckTheLine&#45;&gt;PTB_WTL</title>
<path fill="none" stroke="grey" stroke-dasharray="5,2" d="M898.13,-110.38C875.93,-118.71 852.83,-127.38 852.83,-127.38 852.83,-127.38 830.43,-141.23 830.43,-141.23 830.43,-141.23 772.21,-252.84 744.62,-305.72"/>
<polygon fill="grey" stroke="grey" points="741.37,-304.39 739.84,-314.88 747.57,-307.63 741.37,-304.39"/>
</g>
<!-- ./Vespiary -->
<g id="node37" class="node">
<title>./Vespiary</title>
<g id="a_node37"><a xlink:href="https://ctftime.org/team/80092" xlink:title="./Vespiary">
<ellipse fill="none" stroke="#4285f4" cx="94.19" cy="-545.67" rx="55.49" ry="18"/>
<text text-anchor="middle" x="94.19" y="-541.97" font-family="JetBrains Mono" font-size="14.00" fill="#4285f4">./Vespiary</text>
</a>
</g>
</g>
<!-- ./Vespiary&#45;&gt;./V /home/r/.bin/tw -->
<g id="edge36" class="edge">
<title>./Vespiary&#45;&gt;./V /home/r/.bin/tw</title>
<path fill="none" stroke="grey" stroke-dasharray="5,2" d="M133.52,-532.97C171.85,-520.59 230.58,-501.63 274.3,-487.52"/>
<polygon fill="grey" stroke="grey" points="275.5,-490.81 283.94,-484.4 273.35,-484.15 275.5,-490.81"/>
</g>
<!-- RicercaSec -->
<g id="node38" class="node">
<title>RicercaSec</title>
<ellipse fill="none" stroke="#4285f4" cx="77.8" cy="-454.52" rx="59.59" ry="18"/>
<text text-anchor="middle" x="77.8" y="-450.82" font-family="JetBrains Mono" font-size="14.00" fill="#4285f4">RicercaSec</text>
</g>
<!-- RicercaSec&#45;&gt;./V /home/r/.bin/tw -->
<g id="edge37" class="edge">
<title>RicercaSec&#45;&gt;./V /home/r/.bin/tw</title>
<path fill="none" stroke="grey" stroke-dasharray="5,2" d="M136.85,-457.83C164.82,-459.39 199.03,-461.3 230.97,-463.09"/>
<polygon fill="grey" stroke="grey" points="231.07,-466.6 241.25,-463.66 231.46,-459.61 231.07,-466.6"/>
</g>
<!-- binja -->
<g id="node39" class="node">
<title>binja</title>
<g id="a_node39"><a xlink:href="https://ctftime.org/team/9083" xlink:title="binja">
<ellipse fill="none" stroke="#4285f4" cx="88.79" cy="-363.52" rx="32.49" ry="18"/>
<text text-anchor="middle" x="88.79" y="-359.82" font-family="JetBrains Mono" font-size="14.00" fill="#4285f4">binja</text>
</a>
</g>
</g>
<!-- binja&#45;&gt;./V /home/r/.bin/tw -->
<g id="edge38" class="edge">
<title>binja&#45;&gt;./V /home/r/.bin/tw</title>
<path fill="none" stroke="grey" stroke-dasharray="5,2" d="M114.86,-374.78C155.33,-392.27 233.91,-426.21 284.72,-448.16"/>
<polygon fill="grey" stroke="grey" points="283.61,-451.49 294.18,-452.25 286.39,-445.07 283.61,-451.49"/>
</g>
<!-- TokyoWesterns -->
<g id="node40" class="node">
<title>TokyoWesterns</title>
<g id="a_node40"><a xlink:href="https://ctftime.org/team/12599" xlink:title="TokyoWesterns">
<ellipse fill="none" stroke="#4285f4" cx="145.42" cy="-291.84" rx="77.19" ry="18"/>
<text text-anchor="middle" x="145.42" y="-288.14" font-family="JetBrains Mono" font-size="14.00" fill="#4285f4">TokyoWesterns</text>
</a>
</g>
</g>
<!-- TokyoWesterns&#45;&gt;./V /home/r/.bin/tw -->
<g id="edge39" class="edge">
<title>TokyoWesterns&#45;&gt;./V /home/r/.bin/tw</title>
<path fill="none" stroke="grey" stroke-dasharray="5,2" d="M164.04,-309.45C197.41,-341.03 267.52,-407.37 305.9,-443.69"/>
<polygon fill="grey" stroke="grey" points="303.92,-446.63 313.59,-450.96 308.73,-441.54 303.92,-446.63"/>
</g>
<!-- Nu1L -->
<g id="node41" class="node">
<title>Nu1L</title>
<g id="a_node41"><a xlink:href="https://ctftime.org/team/19208" xlink:title="Nu1L">
<ellipse fill="none" stroke="#4285f4" cx="841.25" cy="-980.7" rx="34.39" ry="18"/>
<text text-anchor="middle" x="841.25" y="-977" font-family="JetBrains Mono" font-size="14.00" fill="#4285f4">Nu1L</text>
</a>
</g>
</g>
<!-- Nu1L&#45;&gt;Straw Hat -->
<g id="edge40" class="edge">
<title>Nu1L&#45;&gt;Straw Hat</title>
<path fill="none" stroke="grey" stroke-dasharray="5,2" d="M818.53,-967.06C782.39,-945.34 715.83,-905.34 715.83,-905.34 715.83,-905.34 703.92,-846.12 696.57,-809.57"/>
<polygon fill="grey" stroke="grey" points="699.95,-808.61 694.54,-799.49 693.08,-809.99 699.95,-808.61"/>
</g>
<!-- w&amp;m -->
<g id="node42" class="node">
<title>w&amp;m</title>
<g id="a_node42"><a xlink:href="https://ctftime.org/team/54666" xlink:title="w&amp;m">
<ellipse fill="none" stroke="#4285f4" cx="770.75" cy="-1024.77" rx="34.39" ry="18"/>
<text text-anchor="middle" x="770.75" y="-1021.07" font-family="JetBrains Mono" font-size="14.00" fill="#4285f4">w&amp;m</text>
</a>
</g>
</g>
<!-- w&amp;m&#45;&gt;Straw Hat -->
<g id="edge41" class="edge">
<title>w&amp;m&#45;&gt;Straw Hat</title>
<path fill="none" stroke="grey" stroke-dasharray="5,2" d="M762.64,-1007.14C747.37,-973.93 715.83,-905.34 715.83,-905.34 715.83,-905.34 703.92,-846.12 696.57,-809.57"/>
<polygon fill="grey" stroke="grey" points="699.95,-808.61 694.54,-799.49 693.08,-809.99 699.95,-808.61"/>
</g>
<!-- Super Rookies -->
<g id="node43" class="node">
<title>Super Rookies</title>
<ellipse fill="none" stroke="#4285f4" cx="652.9" cy="-1027.65" rx="75.29" ry="18"/>
<text text-anchor="middle" x="652.9" y="-1023.95" font-family="JetBrains Mono" font-size="14.00" fill="#4285f4">Super Rookies</text>
</g>
<!-- Super Rookies&#45;&gt;Straw Hat -->
<g id="edge42" class="edge">
<title>Super Rookies&#45;&gt;Straw Hat</title>
<path fill="none" stroke="grey" stroke-dasharray="5,2" d="M655.69,-1009.55C662.26,-967.05 678.7,-860.62 686.58,-809.61"/>
<polygon fill="grey" stroke="grey" points="690.05,-810.03 688.12,-799.61 683.14,-808.96 690.05,-810.03"/>
</g>
<!-- &lt;Experienced independent sailors&gt; -->
<g id="node44" class="node">
<title>&lt;Experienced independent sailors&gt;</title>
<ellipse fill="none" stroke="#4285f4" cx="892.26" cy="-905.47" rx="174.67" ry="18"/>
<text text-anchor="middle" x="892.26" y="-901.77" font-family="JetBrains Mono" font-size="14.00" fill="#4285f4">&lt;Experienced independent sailors&gt;</text>
</g>
<!-- &lt;Experienced independent sailors&gt;&#45;&gt;Straw Hat -->
<g id="edge43" class="edge">
<title>&lt;Experienced independent sailors&gt;&#45;&gt;Straw Hat</title>
<path fill="none" stroke="grey" stroke-dasharray="5,2" d="M863.41,-887.7C827.07,-865.32 764.68,-826.9 725.73,-802.92"/>
<polygon fill="grey" stroke="grey" points="727.19,-799.7 716.84,-797.44 723.52,-805.66 727.19,-799.7"/>
</g>
<!-- DiceGang -->
<g id="node45" class="node">
<title>DiceGang</title>
<g id="a_node45"><a xlink:href="https://ctftime.org/team/109452" xlink:title="DiceGang">
<ellipse fill="none" stroke="#4285f4" cx="1038.05" cy="-253.26" rx="53.89" ry="18"/>
<text text-anchor="middle" x="1038.05" y="-249.56" font-family="JetBrains Mono" font-size="14.00" fill="#4285f4">DiceGang</text>
</a>
</g>
</g>
<!-- DiceGang&#45;&gt;DiceGuesser -->
<g id="edge44" class="edge">
<title>DiceGang&#45;&gt;DiceGuesser</title>
<path fill="none" stroke="grey" stroke-dasharray="5,2" d="M1008.68,-268.71C963.49,-292.47 876.85,-338.02 826.07,-364.72"/>
<polygon fill="grey" stroke="grey" points="824.25,-361.72 817.03,-369.47 827.51,-367.92 824.25,-361.72"/>
</g>
<!-- SuperGuesser -->
<g id="node46" class="node">
<title>SuperGuesser</title>
<g id="a_node46"><a xlink:href="https://ctftime.org/team/130817" xlink:title="SuperGuesser">
<ellipse fill="none" stroke="#4285f4" cx="906.77" cy="-141.25" rx="74.99" ry="18"/>
<text text-anchor="middle" x="906.77" y="-137.55" font-family="JetBrains Mono" font-size="14.00" fill="#4285f4">SuperGuesser</text>
</a>
</g>
</g>
<!-- SuperGuesser&#45;&gt;DiceGuesser -->
<g id="edge45" class="edge">
<title>SuperGuesser&#45;&gt;DiceGuesser</title>
<path fill="none" stroke="grey" stroke-dasharray="5,2" d="M897.91,-159.22C876.98,-201.68 824.36,-308.4 799.57,-358.66"/>
<polygon fill="grey" stroke="grey" points="796.43,-357.13 795.14,-367.65 802.71,-360.23 796.43,-357.13"/>
</g>
<!-- CodeRed -->
<g id="node47" class="node">
<title>CodeRed</title>
<g id="a_node47"><a xlink:href="https://ctftime.org/team/4004" xlink:title="CodeRed">
<ellipse fill="none" stroke="#4285f4" cx="1107.65" cy="-396.81" rx="50.89" ry="18"/>
<text text-anchor="middle" x="1107.65" y="-393.11" font-family="JetBrains Mono" font-size="14.00" fill="#4285f4">CodeRed</text>
</a>
</g>
</g>
<!-- CodeRed&#45;&gt;StarBugs -->
<g id="edge46" class="edge">
<title>CodeRed&#45;&gt;StarBugs</title>
<path fill="none" stroke="grey" stroke-dasharray="5,2" d="M1070.01,-409.04C1027.26,-422.93 957.44,-445.62 910.94,-460.73"/>
<polygon fill="grey" stroke="grey" points="909.81,-457.41 901.38,-463.83 911.98,-464.07 909.81,-457.41"/>
</g>
<!-- GYG -->
<g id="node48" class="node">
<title>GYG</title>
<g id="a_node48"><a xlink:href="https://ctftime.org/team/33362" xlink:title="GYG">
<ellipse fill="none" stroke="#4285f4" cx="1081.42" cy="-305.94" rx="29.8" ry="18"/>
<text text-anchor="middle" x="1081.42" y="-302.24" font-family="JetBrains Mono" font-size="14.00" fill="#4285f4">GYG</text>
</a>
</g>
</g>
<!-- GYG&#45;&gt;StarBugs -->
<g id="edge47" class="edge">
<title>GYG&#45;&gt;StarBugs</title>
<path fill="none" stroke="grey" stroke-dasharray="5,2" d="M1062.82,-320.45C1024.8,-350.13 937.93,-417.94 892.38,-453.5"/>
<polygon fill="grey" stroke="grey" points="890.11,-450.83 884.38,-459.74 894.42,-456.35 890.11,-450.83"/>
</g>
<!-- SED -->
<g id="node49" class="node">
<title>SED</title>
<g id="a_node49"><a xlink:href="https://ctftime.org/team/70332" xlink:title="SED">
<ellipse fill="none" stroke="#4285f4" cx="1099.88" cy="-499.19" rx="29.5" ry="18"/>
<text text-anchor="middle" x="1099.88" y="-495.49" font-family="JetBrains Mono" font-size="14.00" fill="#4285f4">SED</text>
</a>
</g>
</g>
<!-- SED&#45;&gt;StarBugs -->
<g id="edge48" class="edge">
<title>SED&#45;&gt;StarBugs</title>
<path fill="none" stroke="grey" stroke-dasharray="5,2" d="M1070.87,-496.37C1034.43,-492.83 970.96,-486.67 923.77,-482.08"/>
<polygon fill="grey" stroke="grey" points="923.96,-478.58 913.67,-481.1 923.28,-485.55 923.96,-478.58"/>
</g>
<!-- secret.club -->
<g id="node50" class="node">
<title>secret.club</title>
<ellipse fill="none" stroke="#4285f4" cx="1098.63" cy="-579.04" rx="59.59" ry="18"/>
<text text-anchor="middle" x="1098.63" y="-575.34" font-family="JetBrains Mono" font-size="14.00" fill="#4285f4">secret.club</text>
</g>
<!-- secret.club&#45;&gt;organizers -->
<g id="edge49" class="edge">
<title>secret.club&#45;&gt;organizers</title>
<path fill="none" stroke="grey" stroke-dasharray="5,2" d="M1058.59,-592.56C1019.75,-605.68 960.74,-625.61 919.14,-639.66"/>
<polygon fill="grey" stroke="grey" points="917.85,-636.4 909.5,-642.92 920.09,-643.03 917.85,-636.4"/>
</g>
<!-- polyflag -->
<g id="node51" class="node">
<title>polyflag</title>
<g id="a_node51"><a xlink:href="https://ctftime.org/team/112451" xlink:title="polyflag">
<ellipse fill="none" stroke="#4285f4" cx="1057.95" cy="-861.42" rx="46.59" ry="18"/>
<text text-anchor="middle" x="1057.95" y="-857.72" font-family="JetBrains Mono" font-size="14.00" fill="#4285f4">polyflag</text>
</a>
</g>
</g>
<!-- polyflag&#45;&gt;organizers -->
<g id="edge50" class="edge">
<title>polyflag&#45;&gt;organizers</title>
<path fill="none" stroke="grey" stroke-dasharray="5,2" d="M1037.72,-844.98C1010.87,-823.16 966.81,-787.34 966.81,-787.34 966.81,-787.34 950.02,-773.48 950.02,-773.48 950.02,-773.48 911.82,-717.29 888.3,-682.69"/>
<polygon fill="grey" stroke="grey" points="890.9,-680.28 882.38,-673.98 885.11,-684.22 890.9,-680.28"/>
</g>
<!-- excusemewtf -->
<g id="node52" class="node">
<title>excusemewtf</title>
<g id="a_node52"><a xlink:href="https://ctftime.org/team/104977/" xlink:title="excusemewtf">
<ellipse fill="none" stroke="#4285f4" cx="1096.58" cy="-672.94" rx="70.69" ry="18"/>
<text text-anchor="middle" x="1096.58" y="-669.24" font-family="JetBrains Mono" font-size="14.00" fill="#4285f4">excusemewtf</text>
</a>
</g>
</g>
<!-- excusemewtf&#45;&gt;organizers -->
<g id="edge51" class="edge">
<title>excusemewtf&#45;&gt;organizers</title>
<path fill="none" stroke="grey" stroke-dasharray="5,2" d="M1028.37,-667.89C999.26,-665.73 965.42,-663.22 936.53,-661.08"/>
<polygon fill="grey" stroke="grey" points="936.77,-657.59 926.54,-660.34 936.25,-664.57 936.77,-657.59"/>
</g>
<!-- the cr0wn -->
<g id="node53" class="node">
<title>the cr0wn</title>
<g id="a_node53"><a xlink:href="https://ctftime.org/team/48976/" xlink:title="the cr0wn">
<ellipse fill="none" stroke="#4285f4" cx="1007.52" cy="-773.5" rx="55.79" ry="18"/>
<text text-anchor="middle" x="1007.52" y="-769.8" font-family="JetBrains Mono" font-size="14.00" fill="#4285f4">the cr0wn</text>
</a>
</g>
</g>
<!-- the cr0wn&#45;&gt;organizers -->
<g id="edge52" class="edge">
<title>the cr0wn&#45;&gt;organizers</title>
<path fill="none" stroke="grey" stroke-dasharray="5,2" d="M987.56,-756.44C963.98,-736.28 924.6,-702.61 898.04,-679.91"/>
<polygon fill="grey" stroke="grey" points="900.12,-677.08 890.25,-673.25 895.57,-682.41 900.12,-677.08"/>
</g>
<!-- flagbot -->
<g id="node54" class="node">
<title>flagbot</title>
<g id="a_node54"><a xlink:href="https://ctftime.org/team/34878" xlink:title="flagbot">
<ellipse fill="none" stroke="#4285f4" cx="1157.01" cy="-1075.31" rx="42.49" ry="18"/>
<text text-anchor="middle" x="1157.01" y="-1071.61" font-family="JetBrains Mono" font-size="14.00" fill="#4285f4">flagbot</text>
</a>
</g>
</g>
<!-- flagbot&#45;&gt;polyflag -->
<g id="edge53" class="edge">
<title>flagbot&#45;&gt;polyflag</title>
<path fill="none" stroke="grey" stroke-dasharray="5,2" d="M1148.74,-1057.44C1131.4,-1020.01 1091.18,-933.16 1070.59,-888.71"/>
<polygon fill="grey" stroke="grey" points="1073.65,-886.99 1066.27,-879.39 1067.3,-889.94 1073.65,-886.99"/>
</g>
<!-- polygl0ts -->
<g id="node55" class="node">
<title>polygl0ts</title>
<g id="a_node55"><a xlink:href="https://ctftime.org/team/53791" xlink:title="polygl0ts">
<ellipse fill="none" stroke="#4285f4" cx="1299.02" cy="-885.02" rx="51.99" ry="18"/>
<text text-anchor="middle" x="1299.02" y="-881.32" font-family="JetBrains Mono" font-size="14.00" fill="#4285f4">polygl0ts</text>
</a>
</g>
</g>
<!-- polygl0ts&#45;&gt;polyflag -->
<g id="edge54" class="edge">
<title>polygl0ts&#45;&gt;polyflag</title>
<path fill="none" stroke="grey" stroke-dasharray="5,2" d="M1248.78,-880.1C1209.34,-876.24 1154.48,-870.87 1113.7,-866.88"/>
<polygon fill="grey" stroke="grey" points="1113.94,-863.39 1103.65,-865.9 1113.26,-870.35 1113.94,-863.39"/>
</g>
</g>
</svg>
