<?xml version="1.0" encoding="UTF-8" standalone="no"?>
<!DOCTYPE svg PUBLIC "-//W3C//DTD SVG 1.1//EN"
 "http://www.w3.org/Graphics/SVG/1.1/DTD/svg11.dtd">
<!-- Generated by graphviz version 2.49.3 (0)
 -->
<!-- Title: teams Pages: 1 -->
<svg width="1072pt" height="968pt"
 viewBox="0.00 0.00 1072.48 968.32" xmlns="http://www.w3.org/2000/svg" xmlns:xlink="http://www.w3.org/1999/xlink">
<g id="graph0" class="graph" transform="scale(1 1) rotate(0) translate(4 964.32)">
<title>teams</title>
<polygon fill="white" stroke="transparent" points="-4,4 -4,-964.32 1068.48,-964.32 1068.48,4 -4,4"/>
<!-- DEFCON_QUALS -->
<g id="node1" class="node">
<title>DEFCON_QUALS</title>
<g id="a_node1"><a xlink:href="https://quals.2022.nautilus.institute/dashboard" xlink:title="DEFCON_QUALS">
<ellipse fill="none" stroke="black" stroke-width="2" cx="515.96" cy="-470.25" rx="83.39" ry="18"/>
<text text-anchor="middle" x="515.96" y="-466.55" font-family="JetBrains Mono" font-size="14.00">DEFCON_QUALS</text>
</a>
</g>
</g>
<!-- perfect r✪✪✪t -->
<g id="node2" class="node">
<title>perfect r✪✪✪t</title>
<g id="a_node2"><a xlink:href="https://ctftime.org/team/176403" xlink:title="perfect r✪✪✪t">
<ellipse fill="none" stroke="#db4437" cx="796.23" cy="-547.46" rx="73.39" ry="18"/>
<text text-anchor="middle" x="796.23" y="-543.76" font-family="JetBrains Mono" font-size="14.00" fill="#db4437">perfect r✪✪✪t</text>
</a>
</g>
</g>
<!-- perfect r✪✪✪t&#45;&gt;DEFCON_QUALS -->
<g id="edge1" class="edge">
<title>perfect r✪✪✪t&#45;&gt;DEFCON_QUALS</title>
<path fill="none" stroke="black" stroke-width="2" d="M745.45,-534.34C701.94,-523.1 646.24,-508.71 646.24,-508.71 646.24,-508.71 609.37,-497.82 574.85,-487.63"/>
<polygon fill="black" stroke="black" stroke-width="2" points="575.79,-484.26 565.21,-484.79 573.81,-490.98 575.79,-484.26"/>
</g>
<!-- Balsn.217@TSJ.tw -->
<g id="node3" class="node">
<title>Balsn.217@TSJ.tw</title>
<g id="a_node3"><a xlink:href="https://ctftime.org/team/189868" xlink:title="Balsn.217@TSJ.tw">
<ellipse fill="none" stroke="#db4437" cx="638.32" cy="-225.54" rx="85.59" ry="18"/>
<text text-anchor="middle" x="638.32" y="-221.84" font-family="JetBrains Mono" font-size="14.00" fill="#db4437">Balsn.217@TSJ.tw</text>
</a>
</g>
</g>
<!-- Balsn.217@TSJ.tw&#45;&gt;DEFCON_QUALS -->
<g id="edge2" class="edge">
<title>Balsn.217@TSJ.tw&#45;&gt;DEFCON_QUALS</title>
<path fill="none" stroke="black" stroke-width="2" d="M628.32,-243.51C608.32,-279.45 565.29,-356.75 565.29,-356.75 565.29,-356.75 542.42,-409.36 527.83,-442.95"/>
<polygon fill="black" stroke="black" stroke-width="2" points="524.55,-441.7 523.77,-452.27 530.97,-444.49 524.55,-441.7"/>
</g>
<!-- The Duck -->
<g id="node4" class="node">
<title>The Duck</title>
<g id="a_node4"><a xlink:href="https://ctftime.org/team/111501" xlink:title="The Duck">
<ellipse fill="none" stroke="#db4437" cx="433.99" cy="-568.02" rx="48.19" ry="18"/>
<text text-anchor="middle" x="433.99" y="-564.32" font-family="JetBrains Mono" font-size="14.00" fill="#db4437">The Duck</text>
</a>
</g>
</g>
<!-- The Duck&#45;&gt;DEFCON_QUALS -->
<g id="edge3" class="edge">
<title>The Duck&#45;&gt;DEFCON_QUALS</title>
<path fill="none" stroke="black" stroke-width="2" d="M448.65,-550.54C461.31,-535.43 479.79,-513.39 494.18,-496.23"/>
<polygon fill="black" stroke="black" stroke-width="2" points="497.13,-498.15 500.88,-488.24 491.77,-493.66 497.13,-498.15"/>
</g>
<!-- Sauercloud -->
<g id="node5" class="node">
<title>Sauercloud</title>
<g id="a_node5"><a xlink:href="https://ctftime.org/team/54748" xlink:title="Sauercloud">
<ellipse fill="none" stroke="#db4437" cx="387.25" cy="-724.61" rx="55.49" ry="18"/>
<text text-anchor="middle" x="387.25" y="-720.91" font-family="JetBrains Mono" font-size="14.00" fill="#db4437">Sauercloud</text>
</a>
</g>
</g>
<!-- Sauercloud&#45;&gt;DEFCON_QUALS -->
<g id="edge4" class="edge">
<title>Sauercloud&#45;&gt;DEFCON_QUALS</title>
<path fill="none" stroke="black" stroke-width="2" d="M398.13,-706.96C423.35,-666.02 483.69,-568.09 483.69,-568.09 483.69,-568.09 497.17,-527.21 506.71,-498.29"/>
<polygon fill="black" stroke="black" stroke-width="2" points="510.08,-499.25 509.89,-488.65 503.43,-497.06 510.08,-499.25"/>
</g>
<!-- Water Paddler -->
<g id="node6" class="node">
<title>Water Paddler</title>
<g id="a_node6"><a xlink:href="https://ctftime.org/team/155019" xlink:title="Water Paddler">
<ellipse fill="none" stroke="#db4437" cx="338.19" cy="-506.44" rx="66.89" ry="18"/>
<text text-anchor="middle" x="338.19" y="-502.74" font-family="JetBrains Mono" font-size="14.00" fill="#db4437">Water Paddler</text>
</a>
</g>
</g>
<!-- Water Paddler&#45;&gt;DEFCON_QUALS -->
<g id="edge5" class="edge">
<title>Water Paddler&#45;&gt;DEFCON_QUALS</title>
<path fill="none" stroke="black" stroke-width="2" d="M392.01,-495.48C408.66,-492.09 427.28,-488.3 444.92,-484.71"/>
<polygon fill="black" stroke="black" stroke-width="2" points="446.07,-488.05 455.17,-482.63 444.67,-481.19 446.07,-488.05"/>
</g>
<!-- PTB_WTL -->
<g id="node7" class="node">
<title>PTB_WTL</title>
<g id="a_node7"><a xlink:href="https://ctftime.org/team/119975" xlink:title="PTB_WTL">
<ellipse fill="none" stroke="#db4437" cx="289.1" cy="-315.73" rx="51.99" ry="18"/>
<text text-anchor="middle" x="289.1" y="-312.03" font-family="JetBrains Mono" font-size="14.00" fill="#db4437">PTB_WTL</text>
</a>
</g>
</g>
<!-- PTB_WTL&#45;&gt;DEFCON_QUALS -->
<g id="edge6" class="edge">
<title>PTB_WTL&#45;&gt;DEFCON_QUALS</title>
<path fill="none" stroke="black" stroke-width="2" d="M307.78,-332.91C329.28,-352.68 361.66,-382.45 361.66,-382.45 361.66,-382.45 431.72,-422.31 477.42,-448.32"/>
<polygon fill="black" stroke="black" stroke-width="2" points="475.79,-451.42 486.21,-453.32 479.25,-445.33 475.79,-451.42"/>
</g>
<!-- ./V /home/r/.bin/tw -->
<g id="node8" class="node">
<title>./V /home/r/.bin/tw</title>
<g id="a_node8"><a xlink:href="https://ctftime.org/team/189869" xlink:title="./V /home/r/.bin/tw">
<ellipse fill="none" stroke="#db4437" cx="705.79" cy="-400.92" rx="81.79" ry="18"/>
<text text-anchor="middle" x="705.79" y="-397.22" font-family="JetBrains Mono" font-size="14.00" fill="#db4437">./V /home/r/.bin/tw</text>
</a>
</g>
</g>
<!-- ./V /home/r/.bin/tw&#45;&gt;DEFCON_QUALS -->
<g id="edge7" class="edge">
<title>./V /home/r/.bin/tw&#45;&gt;DEFCON_QUALS</title>
<path fill="none" stroke="black" stroke-width="2" d="M663.19,-416.48C634.98,-426.78 597.8,-440.36 567.86,-451.3"/>
<polygon fill="black" stroke="black" stroke-width="2" points="566.61,-448.03 558.42,-454.74 569.01,-454.6 566.61,-448.03"/>
</g>
<!-- Straw Hat -->
<g id="node9" class="node">
<title>Straw Hat</title>
<g id="a_node9"><a xlink:href="https://ctftime.org/team/19208" xlink:title="Straw Hat">
<ellipse fill="none" stroke="#db4437" cx="397.79" cy="-368.61" rx="49.29" ry="18"/>
<text text-anchor="middle" x="397.79" y="-364.91" font-family="JetBrains Mono" font-size="14.00" fill="#db4437">Straw Hat</text>
</a>
</g>
</g>
<!-- Straw Hat&#45;&gt;DEFCON_QUALS -->
<g id="edge8" class="edge">
<title>Straw Hat&#45;&gt;DEFCON_QUALS</title>
<path fill="none" stroke="black" stroke-width="2" d="M417.31,-385.4C436.57,-401.97 466.23,-427.48 487.99,-446.2"/>
<polygon fill="black" stroke="black" stroke-width="2" points="485.76,-448.89 495.62,-452.76 490.32,-443.59 485.76,-448.89"/>
</g>
<!-- PPP -->
<g id="node10" class="node">
<title>PPP</title>
<g id="a_node10"><a xlink:href="https://ctftime.org/team/284" xlink:title="PPP">
<ellipse fill="none" stroke="#db4437" cx="518.45" cy="-294.64" rx="28.7" ry="18"/>
<text text-anchor="middle" x="518.45" y="-290.94" font-family="JetBrains Mono" font-size="14.00" fill="#db4437">PPP</text>
</a>
</g>
</g>
<!-- PPP&#45;&gt;DEFCON_QUALS -->
<g id="edge9" class="edge">
<title>PPP&#45;&gt;DEFCON_QUALS</title>
<path fill="none" stroke="black" stroke-width="2" d="M518.2,-312.77C517.76,-343.35 516.88,-405.38 516.36,-441.8"/>
<polygon fill="black" stroke="black" stroke-width="2" points="512.86,-442.17 516.21,-452.22 519.85,-442.27 512.86,-442.17"/>
</g>
<!-- Katzebin -->
<g id="node11" class="node">
<title>Katzebin</title>
<g id="a_node11"><a xlink:href="https://ctftime.org/team/141539" xlink:title="Katzebin">
<ellipse fill="none" stroke="#db4437" cx="429.09" cy="-277.8" rx="44.69" ry="18"/>
<text text-anchor="middle" x="429.09" y="-274.1" font-family="JetBrains Mono" font-size="14.00" fill="#db4437">Katzebin</text>
</a>
</g>
</g>
<!-- Katzebin&#45;&gt;DEFCON_QUALS -->
<g id="edge10" class="edge">
<title>Katzebin&#45;&gt;DEFCON_QUALS</title>
<path fill="none" stroke="black" stroke-width="2" d="M437.11,-295.56C452.36,-329.35 485.63,-403.06 503.69,-443.08"/>
<polygon fill="black" stroke="black" stroke-width="2" points="500.53,-444.58 507.83,-452.25 506.91,-441.7 500.53,-444.58"/>
</g>
<!-- StarBugs -->
<g id="node12" class="node">
<title>StarBugs</title>
<g id="a_node12"><a xlink:href="https://ctftime.org/team/152239" xlink:title="StarBugs">
<ellipse fill="none" stroke="#db4437" cx="307.15" cy="-432.92" rx="46.59" ry="18"/>
<text text-anchor="middle" x="307.15" y="-429.22" font-family="JetBrains Mono" font-size="14.00" fill="#db4437">StarBugs</text>
</a>
</g>
</g>
<!-- StarBugs&#45;&gt;DEFCON_QUALS -->
<g id="edge11" class="edge">
<title>StarBugs&#45;&gt;DEFCON_QUALS</title>
<path fill="none" stroke="black" stroke-width="2" d="M349.66,-440.52C376.13,-445.25 410.9,-451.47 441.81,-456.99"/>
<polygon fill="black" stroke="black" stroke-width="2" points="441.23,-460.45 451.69,-458.76 442.46,-453.56 441.23,-460.45"/>
</g>
<!-- Shellphish -->
<g id="node13" class="node">
<title>Shellphish</title>
<g id="a_node13"><a xlink:href="https://ctftime.org/team/285" xlink:title="Shellphish">
<ellipse fill="none" stroke="#db4437" cx="683.78" cy="-494.88" rx="51.19" ry="18"/>
<text text-anchor="middle" x="683.78" y="-491.18" font-family="JetBrains Mono" font-size="14.00" fill="#db4437">Shellphish</text>
</a>
</g>
</g>
<!-- Shellphish&#45;&gt;DEFCON_QUALS -->
<g id="edge12" class="edge">
<title>Shellphish&#45;&gt;DEFCON_QUALS</title>
<path fill="none" stroke="black" stroke-width="2" d="M636.14,-487.89C623.35,-486.01 609.17,-483.93 595.16,-481.88"/>
<polygon fill="black" stroke="black" stroke-width="2" points="595.42,-478.38 585.02,-480.39 594.4,-485.3 595.42,-478.38"/>
</g>
<!-- r3kapig -->
<g id="node14" class="node">
<title>r3kapig</title>
<g id="a_node14"><a xlink:href="https://ctftime.org/team/58979" xlink:title="r3kapig">
<ellipse fill="none" stroke="#db4437" cx="677.64" cy="-602.62" rx="39.79" ry="18"/>
<text text-anchor="middle" x="677.64" y="-598.92" font-family="JetBrains Mono" font-size="14.00" fill="#db4437">r3kapig</text>
</a>
</g>
</g>
<!-- r3kapig&#45;&gt;DEFCON_QUALS -->
<g id="edge13" class="edge">
<title>r3kapig&#45;&gt;DEFCON_QUALS</title>
<path fill="none" stroke="black" stroke-width="2" d="M658.14,-586.65C630.03,-563.64 577.93,-520.99 545.2,-494.19"/>
<polygon fill="black" stroke="black" stroke-width="2" points="547.28,-491.37 537.33,-487.75 542.85,-496.79 547.28,-491.37"/>
</g>
<!-- DiceGuesser -->
<g id="node15" class="node">
<title>DiceGuesser</title>
<g id="a_node15"><a xlink:href="https://ctftime.org/team/182504" xlink:title="DiceGuesser">
<ellipse fill="none" stroke="#db4437" cx="568.19" cy="-616.78" rx="61.99" ry="18"/>
<text text-anchor="middle" x="568.19" y="-613.08" font-family="JetBrains Mono" font-size="14.00" fill="#db4437">DiceGuesser</text>
</a>
</g>
</g>
<!-- DiceGuesser&#45;&gt;DEFCON_QUALS -->
<g id="edge14" class="edge">
<title>DiceGuesser&#45;&gt;DEFCON_QUALS</title>
<path fill="none" stroke="black" stroke-width="2" d="M561.79,-598.81C552.82,-573.66 536.44,-527.7 525.88,-498.1"/>
<polygon fill="black" stroke="black" stroke-width="2" points="529.07,-496.61 522.41,-488.37 522.47,-498.96 529.07,-496.61"/>
</g>
<!-- OSUSEC -->
<g id="node16" class="node">
<title>OSUSEC</title>
<g id="a_node16"><a xlink:href="https://ctftime.org/team/12858" xlink:title="OSUSEC">
<ellipse fill="none" stroke="#db4437" cx="614.99" cy="-356.91" rx="48.19" ry="18"/>
<text text-anchor="middle" x="614.99" y="-353.21" font-family="JetBrains Mono" font-size="14.00" fill="#db4437">OSUSEC</text>
</a>
</g>
</g>
<!-- OSUSEC&#45;&gt;DEFCON_QUALS -->
<g id="edge15" class="edge">
<title>OSUSEC&#45;&gt;DEFCON_QUALS</title>
<path fill="none" stroke="black" stroke-width="2" d="M599.95,-374.12C583.54,-392.9 557.1,-423.16 538.27,-444.71"/>
<polygon fill="black" stroke="black" stroke-width="2" points="535.41,-442.67 531.47,-452.5 540.68,-447.27 535.41,-442.67"/>
</g>
<!-- KITCTF -->
<g id="node17" class="node">
<title>KITCTF</title>
<g id="a_node17"><a xlink:href="https://ctftime.org/team/7221" xlink:title="KITCTF">
<ellipse fill="none" stroke="#4285f4" cx="616.65" cy="-838.23" rx="41.69" ry="18"/>
<text text-anchor="middle" x="616.65" y="-834.53" font-family="JetBrains Mono" font-size="14.00" fill="#4285f4">KITCTF</text>
</a>
</g>
</g>
<!-- KITCTF&#45;&gt;Sauercloud -->
<g id="edge16" class="edge">
<title>KITCTF&#45;&gt;Sauercloud</title>
<path fill="none" stroke="grey" stroke-dasharray="5,2" d="M588.98,-824.52C548.62,-804.53 473.39,-767.27 427.08,-744.33"/>
<polygon fill="grey" stroke="grey" points="428.46,-741.11 417.94,-739.81 425.35,-747.38 428.46,-741.11"/>
</g>
<!-- Eat Sleep Pwn Repeat -->
<g id="node18" class="node">
<title>Eat Sleep Pwn Repeat</title>
<g id="a_node18"><a xlink:href="https://ctftime.org/team/15712" xlink:title="Eat Sleep Pwn Repeat">
<ellipse fill="none" stroke="#4285f4" cx="229.31" cy="-904.44" rx="98.58" ry="18"/>
<text text-anchor="middle" x="229.31" y="-900.74" font-family="JetBrains Mono" font-size="14.00" fill="#4285f4">Eat Sleep Pwn Repeat</text>
</a>
</g>
</g>
<!-- Eat Sleep Pwn Repeat&#45;&gt;Sauercloud -->
<g id="edge17" class="edge">
<title>Eat Sleep Pwn Repeat&#45;&gt;Sauercloud</title>
<path fill="none" stroke="grey" stroke-dasharray="5,2" d="M245.03,-886.54C273.25,-854.41 332.56,-786.88 364.96,-749.99"/>
<polygon fill="grey" stroke="grey" points="367.86,-751.99 371.83,-742.17 362.6,-747.37 367.86,-751.99"/>
</g>
<!-- Flux Fingers -->
<g id="node19" class="node">
<title>Flux Fingers</title>
<g id="a_node19"><a xlink:href="https://ctftime.org/team/551" xlink:title="Flux Fingers">
<ellipse fill="none" stroke="#4285f4" cx="121.03" cy="-793.56" rx="59.29" ry="18"/>
<text text-anchor="middle" x="121.03" y="-789.86" font-family="JetBrains Mono" font-size="14.00" fill="#4285f4">Flux Fingers</text>
</a>
</g>
</g>
<!-- Flux Fingers&#45;&gt;Sauercloud -->
<g id="edge18" class="edge">
<title>Flux Fingers&#45;&gt;Sauercloud</title>
<path fill="none" stroke="grey" stroke-dasharray="5,2" d="M166.19,-781.86C212.55,-769.86 284.66,-751.18 333.82,-738.45"/>
<polygon fill="grey" stroke="grey" points="334.84,-741.8 343.64,-735.9 333.08,-735.02 334.84,-741.8"/>
</g>
<!-- Red Rocket -->
<g id="node20" class="node">
<title>Red Rocket</title>
<g id="a_node20"><a xlink:href="https://allesctf.net/" xlink:title="Red Rocket">
<ellipse fill="none" stroke="#4285f4" cx="181.97" cy="-854.34" rx="56.59" ry="18"/>
<text text-anchor="middle" x="181.97" y="-850.64" font-family="JetBrains Mono" font-size="14.00" fill="#4285f4">Red Rocket</text>
</a>
</g>
</g>
<!-- Red Rocket&#45;&gt;Sauercloud -->
<g id="edge19" class="edge">
<title>Red Rocket&#45;&gt;Sauercloud</title>
<path fill="none" stroke="grey" stroke-dasharray="5,2" d="M207.55,-838.17C244.3,-814.95 312.11,-772.1 353.1,-746.19"/>
<polygon fill="grey" stroke="grey" points="355.08,-749.08 361.67,-740.78 351.34,-743.16 355.08,-749.08"/>
</g>
<!-- Alles! -->
<g id="node21" class="node">
<title>Alles!</title>
<g id="a_node21"><a xlink:href="https://ctftime.org/team/18419" xlink:title="Alles!">
<ellipse fill="none" stroke="#4285f4" cx="174.4" cy="-718.35" rx="32.49" ry="18"/>
<text text-anchor="middle" x="174.4" y="-714.65" font-family="JetBrains Mono" font-size="14.00" fill="#4285f4">Alles!</text>
</a>
</g>
</g>
<!-- Alles!&#45;&gt;Sauercloud -->
<g id="edge20" class="edge">
<title>Alles!&#45;&gt;Sauercloud</title>
<path fill="none" stroke="grey" stroke-dasharray="5,2" d="M207.19,-719.32C237.57,-720.21 283.65,-721.56 321.59,-722.68"/>
<polygon fill="grey" stroke="grey" points="321.95,-726.19 332.05,-722.99 322.16,-719.19 321.95,-726.19"/>
</g>
<!-- ENOFLAG -->
<g id="node22" class="node">
<title>ENOFLAG</title>
<g id="a_node22"><a xlink:href="https://ctftime.org/team/1438" xlink:title="ENOFLAG">
<ellipse fill="none" stroke="#4285f4" cx="115.33" cy="-659.63" rx="53.89" ry="18"/>
<text text-anchor="middle" x="115.33" y="-655.93" font-family="JetBrains Mono" font-size="14.00" fill="#4285f4">ENOFLAG</text>
</a>
</g>
</g>
<!-- ENOFLAG&#45;&gt;Sauercloud -->
<g id="edge21" class="edge">
<title>ENOFLAG&#45;&gt;Sauercloud</title>
<path fill="none" stroke="grey" stroke-dasharray="5,2" d="M159.32,-670.15C206.53,-681.43 281.58,-699.36 332.56,-711.54"/>
<polygon fill="grey" stroke="grey" points="331.88,-714.98 342.42,-713.9 333.51,-708.17 331.88,-714.98"/>
</g>
<!-- FAUST -->
<g id="node23" class="node">
<title>FAUST</title>
<g id="a_node23"><a xlink:href="https://ctftime.org/team/550" xlink:title="FAUST">
<ellipse fill="none" stroke="#4285f4" cx="500.88" cy="-931.98" rx="39.79" ry="18"/>
<text text-anchor="middle" x="500.88" y="-928.28" font-family="JetBrains Mono" font-size="14.00" fill="#4285f4">FAUST</text>
</a>
</g>
</g>
<!-- FAUST&#45;&gt;Sauercloud -->
<g id="edge22" class="edge">
<title>FAUST&#45;&gt;Sauercloud</title>
<path fill="none" stroke="grey" stroke-dasharray="5,2" d="M491.19,-914.3C471.24,-877.89 425.47,-794.36 401.89,-751.32"/>
<polygon fill="grey" stroke="grey" points="404.95,-749.63 397.08,-742.54 398.81,-752.99 404.95,-749.63"/>
</g>
<!-- WizardsOfDos -->
<g id="node24" class="node">
<title>WizardsOfDos</title>
<g id="a_node24"><a xlink:href="https://ctftime.org/team/561" xlink:title="WizardsOfDos">
<ellipse fill="none" stroke="#4285f4" cx="616.78" cy="-913.63" rx="68.49" ry="18"/>
<text text-anchor="middle" x="616.78" y="-909.93" font-family="JetBrains Mono" font-size="14.00" fill="#4285f4">WizardsOfDos</text>
</a>
</g>
</g>
<!-- WizardsOfDos&#45;&gt;Sauercloud -->
<g id="edge23" class="edge">
<title>WizardsOfDos&#45;&gt;Sauercloud</title>
<path fill="none" stroke="grey" stroke-dasharray="5,2" d="M595.6,-896.19C554.14,-862.04 462.26,-786.38 415.61,-747.97"/>
<polygon fill="grey" stroke="grey" points="417.67,-745.12 407.72,-741.47 413.22,-750.52 417.67,-745.12"/>
</g>
<!-- Squareroots -->
<g id="node25" class="node">
<title>Squareroots</title>
<g id="a_node25"><a xlink:href="https://ctftime.org/team/554" xlink:title="Squareroots">
<ellipse fill="none" stroke="#4285f4" cx="394.68" cy="-942.32" rx="58.49" ry="18"/>
<text text-anchor="middle" x="394.68" y="-938.62" font-family="JetBrains Mono" font-size="14.00" fill="#4285f4">Squareroots</text>
</a>
</g>
</g>
<!-- Squareroots&#45;&gt;Sauercloud -->
<g id="edge24" class="edge">
<title>Squareroots&#45;&gt;Sauercloud</title>
<path fill="none" stroke="grey" stroke-dasharray="5,2" d="M394.06,-924.13C392.76,-886.19 389.77,-798.38 388.22,-752.96"/>
<polygon fill="grey" stroke="grey" points="391.71,-752.77 387.88,-742.9 384.72,-753.01 391.71,-752.77"/>
</g>
<!-- perfect blue -->
<g id="node26" class="node">
<title>perfect blue</title>
<g id="a_node26"><a xlink:href="https://ctftime.org/team/53802" xlink:title="perfect blue">
<ellipse fill="none" stroke="#4285f4" cx="998.36" cy="-449.07" rx="56.59" ry="18"/>
<text text-anchor="middle" x="998.36" y="-445.37" font-family="JetBrains Mono" font-size="14.00" fill="#4285f4">perfect blue</text>
</a>
</g>
</g>
<!-- perfect blue&#45;&gt;perfect r✪✪✪t -->
<g id="edge25" class="edge">
<title>perfect blue&#45;&gt;perfect r✪✪✪t</title>
<path fill="none" stroke="grey" stroke-dasharray="5,2" d="M967.22,-464.23C932.82,-480.98 877.21,-508.04 838.8,-526.74"/>
<polygon fill="grey" stroke="grey" points="836.89,-523.78 829.43,-531.3 839.95,-530.07 836.89,-523.78"/>
</g>
<!-- r00timentary -->
<g id="node27" class="node">
<title>r00timentary</title>
<g id="a_node27"><a xlink:href="https://ctftime.org/team/32783" xlink:title="r00timentary">
<ellipse fill="none" stroke="#4285f4" cx="1004.68" cy="-601.05" rx="59.59" ry="18"/>
<text text-anchor="middle" x="1004.68" y="-597.35" font-family="JetBrains Mono" font-size="14.00" fill="#4285f4">r00timentary</text>
</a>
</g>
</g>
<!-- r00timentary&#45;&gt;perfect r✪✪✪t -->
<g id="edge26" class="edge">
<title>r00timentary&#45;&gt;perfect r✪✪✪t</title>
<path fill="none" stroke="grey" stroke-dasharray="5,2" d="M959.19,-589.36C929.23,-581.65 889.65,-571.48 857,-563.08"/>
<polygon fill="grey" stroke="grey" points="857.67,-559.64 847.11,-560.54 855.93,-566.42 857.67,-559.64"/>
</g>
<!-- Samsung Research -->
<g id="node28" class="node">
<title>Samsung Research</title>
<ellipse fill="none" stroke="#4285f4" cx="939.5" cy="-731.44" rx="88.28" ry="18"/>
<text text-anchor="middle" x="939.5" y="-727.74" font-family="JetBrains Mono" font-size="14.00" fill="#4285f4">Samsung Research</text>
</g>
<!-- Samsung Research&#45;&gt;perfect r✪✪✪t -->
<g id="edge27" class="edge">
<title>Samsung Research&#45;&gt;perfect r✪✪✪t</title>
<path fill="none" stroke="grey" stroke-dasharray="5,2" d="M925.5,-713.46C899.97,-680.68 845.78,-611.08 816.31,-573.25"/>
<polygon fill="grey" stroke="grey" points="818.98,-570.98 810.08,-565.24 813.46,-575.28 818.98,-570.98"/>
</g>
<!-- Balsn -->
<g id="node29" class="node">
<title>Balsn</title>
<g id="a_node29"><a xlink:href="https://ctftime.org/team/16978" xlink:title="Balsn">
<ellipse fill="none" stroke="#4285f4" cx="517.45" cy="-19.76" rx="32.49" ry="18"/>
<text text-anchor="middle" x="517.45" y="-16.06" font-family="JetBrains Mono" font-size="14.00" fill="#4285f4">Balsn</text>
</a>
</g>
</g>
<!-- Balsn&#45;&gt;Balsn.217@TSJ.tw -->
<g id="edge28" class="edge">
<title>Balsn&#45;&gt;Balsn.217@TSJ.tw</title>
<path fill="none" stroke="grey" stroke-dasharray="5,2" d="M527.55,-36.95C548.64,-72.86 597.49,-156.03 622.68,-198.92"/>
<polygon fill="grey" stroke="grey" points="619.74,-200.82 627.82,-207.67 625.77,-197.27 619.74,-200.82"/>
</g>
<!-- 217 -->
<g id="node30" class="node">
<title>217</title>
<g id="a_node30"><a xlink:href="https://ctftime.org/team/5160" xlink:title="217">
<ellipse fill="none" stroke="#4285f4" cx="653.24" cy="-18" rx="27" ry="18"/>
<text text-anchor="middle" x="653.24" y="-14.3" font-family="JetBrains Mono" font-size="14.00" fill="#4285f4">217</text>
</a>
</g>
</g>
<!-- 217&#45;&gt;Balsn.217@TSJ.tw -->
<g id="edge29" class="edge">
<title>217&#45;&gt;Balsn.217@TSJ.tw</title>
<path fill="none" stroke="grey" stroke-dasharray="5,2" d="M651.95,-36.05C649.34,-72.24 643.47,-153.87 640.35,-197.23"/>
<polygon fill="grey" stroke="grey" points="636.85,-197.16 639.62,-207.38 643.83,-197.66 636.85,-197.16"/>
</g>
<!-- TSJ -->
<g id="node31" class="node">
<title>TSJ</title>
<g id="a_node31"><a xlink:href="https://ctftime.org/team/150366" xlink:title="TSJ">
<ellipse fill="none" stroke="#4285f4" cx="868.8" cy="-184.53" rx="27" ry="18"/>
<text text-anchor="middle" x="868.8" y="-180.83" font-family="JetBrains Mono" font-size="14.00" fill="#4285f4">TSJ</text>
</a>
</g>
</g>
<!-- TSJ&#45;&gt;Balsn.217@TSJ.tw -->
<g id="edge30" class="edge">
<title>TSJ&#45;&gt;Balsn.217@TSJ.tw</title>
<path fill="none" stroke="grey" stroke-dasharray="5,2" d="M842.36,-189.23C811.25,-194.77 758.23,-204.2 714.04,-212.07"/>
<polygon fill="grey" stroke="grey" points="713.41,-208.62 704.18,-213.82 714.63,-215.52 713.41,-208.62"/>
</g>
<!-- HITCON -->
<g id="node32" class="node">
<title>HITCON</title>
<g id="a_node32"><a xlink:href="https://ctftime.org/team/8299" xlink:title="HITCON">
<ellipse fill="none" stroke="#4285f4" cx="785.31" cy="-79.72" rx="44.69" ry="18"/>
<text text-anchor="middle" x="785.31" y="-76.02" font-family="JetBrains Mono" font-size="14.00" fill="#4285f4">HITCON</text>
</a>
</g>
</g>
<!-- HITCON&#45;&gt;Balsn.217@TSJ.tw -->
<g id="edge31" class="edge">
<title>HITCON&#45;&gt;Balsn.217@TSJ.tw</title>
<path fill="none" stroke="grey" stroke-dasharray="5,2" d="M768.44,-96.45C742.72,-121.96 693.52,-170.78 663.54,-200.52"/>
<polygon fill="grey" stroke="grey" points="660.99,-198.12 656.35,-207.65 665.92,-203.09 660.99,-198.12"/>
</g>
<!-- PwnThyBytes -->
<g id="node33" class="node">
<title>PwnThyBytes</title>
<g id="a_node33"><a xlink:href="https://ctftime.org/team/59199" xlink:title="PwnThyBytes">
<ellipse fill="none" stroke="#4285f4" cx="186.18" cy="-124.27" rx="64.19" ry="18"/>
<text text-anchor="middle" x="186.18" y="-120.57" font-family="JetBrains Mono" font-size="14.00" fill="#4285f4">PwnThyBytes</text>
</a>
</g>
</g>
<!-- PwnThyBytes&#45;&gt;PTB_WTL -->
<g id="edge32" class="edge">
<title>PwnThyBytes&#45;&gt;PTB_WTL</title>
<path fill="none" stroke="grey" stroke-dasharray="5,2" d="M195.87,-142.29C214.07,-176.15 253.48,-249.47 274.76,-289.07"/>
<polygon fill="grey" stroke="grey" points="271.7,-290.75 279.51,-297.91 277.86,-287.44 271.7,-290.75"/>
</g>
<!-- WreckTheLine -->
<g id="node34" class="node">
<title>WreckTheLine</title>
<g id="a_node34"><a xlink:href="https://ctftime.org/team/57908" xlink:title="WreckTheLine">
<ellipse fill="none" stroke="#4285f4" cx="67.59" cy="-280.7" rx="67.69" ry="18"/>
<text text-anchor="middle" x="67.59" y="-277" font-family="JetBrains Mono" font-size="14.00" fill="#4285f4">WreckTheLine</text>
</a>
</g>
</g>
<!-- WreckTheLine&#45;&gt;PTB_WTL -->
<g id="edge33" class="edge">
<title>WreckTheLine&#45;&gt;PTB_WTL</title>
<path fill="none" stroke="grey" stroke-dasharray="5,2" d="M125.79,-289.9C158.41,-295.06 198.94,-301.47 231.46,-306.61"/>
<polygon fill="grey" stroke="grey" points="231.3,-310.13 241.72,-308.24 232.39,-303.22 231.3,-310.13"/>
</g>
</g>
</svg>
