<?xml version="1.0" encoding="UTF-8" standalone="no"?>
<!DOCTYPE svg PUBLIC "-//W3C//DTD SVG 1.1//EN"
 "http://www.w3.org/Graphics/SVG/1.1/DTD/svg11.dtd">
<!-- Generated by graphviz version 2.49.3 (0)
 -->
<!-- Title: teams Pages: 1 -->
<svg width="1109pt" height="965pt"
 viewBox="0.00 0.00 1109.02 964.62" xmlns="http://www.w3.org/2000/svg" xmlns:xlink="http://www.w3.org/1999/xlink">
<g id="graph0" class="graph" transform="scale(1 1) rotate(0) translate(4 960.62)">
<title>teams</title>
<polygon fill="white" stroke="transparent" points="-4,4 -4,-960.62 1105.02,-960.62 1105.02,4 -4,4"/>
<!-- DEFCON_QUALS -->
<g id="node1" class="node">
<title>DEFCON_QUALS</title>
<g id="a_node1"><a xlink:href="https://quals.2022.nautilus.institute/dashboard" xlink:title="DEFCON_QUALS">
<ellipse fill="none" stroke="black" stroke-width="2" cx="572.4" cy="-463.62" rx="83.39" ry="18"/>
<text text-anchor="middle" x="572.4" y="-459.92" font-family="JetBrains Mono" font-size="14.00">DEFCON_QUALS</text>
</a>
</g>
</g>
<!-- perfect r✪✪✪t -->
<g id="node2" class="node">
<title>perfect r✪✪✪t</title>
<g id="a_node2"><a xlink:href="https://ctftime.org/team/176403" xlink:title="perfect r✪✪✪t">
<ellipse fill="none" stroke="#db4437" cx="810.88" cy="-358.68" rx="73.39" ry="18"/>
<text text-anchor="middle" x="810.88" y="-354.98" font-family="JetBrains Mono" font-size="14.00" fill="#db4437">perfect r✪✪✪t</text>
</a>
</g>
</g>
<!-- perfect r✪✪✪t&#45;&gt;DEFCON_QUALS -->
<g id="edge1" class="edge">
<title>perfect r✪✪✪t&#45;&gt;DEFCON_QUALS</title>
<path fill="none" stroke="black" stroke-width="2" d="M783.71,-375.76C756.51,-392.87 718.65,-416.66 718.65,-416.66 718.65,-416.66 669.99,-432.28 628.81,-445.51"/>
<polygon fill="black" stroke="black" stroke-width="2" points="627.53,-442.24 619.08,-448.63 629.67,-448.91 627.53,-442.24"/>
</g>
<!-- Balsn.217@TSJ.tw -->
<g id="node3" class="node">
<title>Balsn.217@TSJ.tw</title>
<g id="a_node3"><a xlink:href="https://ctftime.org/team/189868" xlink:title="Balsn.217@TSJ.tw">
<ellipse fill="none" stroke="#db4437" cx="659.37" cy="-231.11" rx="85.59" ry="18"/>
<text text-anchor="middle" x="659.37" y="-227.41" font-family="JetBrains Mono" font-size="14.00" fill="#db4437">Balsn.217@TSJ.tw</text>
</a>
</g>
</g>
<!-- Balsn.217@TSJ.tw&#45;&gt;DEFCON_QUALS -->
<g id="edge2" class="edge">
<title>Balsn.217@TSJ.tw&#45;&gt;DEFCON_QUALS</title>
<path fill="none" stroke="black" stroke-width="2" d="M654.15,-249.24C645.36,-279.73 628.57,-337.99 628.57,-337.99 628.57,-337.99 601.11,-399.42 584.59,-436.36"/>
<polygon fill="black" stroke="black" stroke-width="2" points="581.33,-435.06 580.45,-445.62 587.72,-437.92 581.33,-435.06"/>
</g>
<!-- The Duck -->
<g id="node4" class="node">
<title>The Duck</title>
<g id="a_node4"><a xlink:href="https://ctftime.org/team/111501" xlink:title="The Duck">
<ellipse fill="none" stroke="#db4437" cx="587.8" cy="-590.59" rx="48.19" ry="18"/>
<text text-anchor="middle" x="587.8" y="-586.89" font-family="JetBrains Mono" font-size="14.00" fill="#db4437">The Duck</text>
</a>
</g>
</g>
<!-- The Duck&#45;&gt;DEFCON_QUALS -->
<g id="edge3" class="edge">
<title>The Duck&#45;&gt;DEFCON_QUALS</title>
<path fill="none" stroke="black" stroke-width="2" d="M585.6,-572.4C583.05,-551.37 578.82,-516.52 575.83,-491.94"/>
<polygon fill="black" stroke="black" stroke-width="2" points="579.28,-491.28 574.6,-481.78 572.33,-492.13 579.28,-491.28"/>
</g>
<!-- Sauercloud -->
<g id="node5" class="node">
<title>Sauercloud</title>
<g id="a_node5"><a xlink:href="https://ctftime.org/team/54748" xlink:title="Sauercloud">
<ellipse fill="none" stroke="#db4437" cx="436.18" cy="-703.13" rx="55.49" ry="18"/>
<text text-anchor="middle" x="436.18" y="-699.43" font-family="JetBrains Mono" font-size="14.00" fill="#db4437">Sauercloud</text>
</a>
</g>
</g>
<!-- Sauercloud&#45;&gt;DEFCON_QUALS -->
<g id="edge4" class="edge">
<title>Sauercloud&#45;&gt;DEFCON_QUALS</title>
<path fill="none" stroke="black" stroke-width="2" d="M450.18,-685.53C475.38,-653.86 525.77,-590.52 525.77,-590.52 525.77,-590.52 548.37,-529 562.11,-491.63"/>
<polygon fill="black" stroke="black" stroke-width="2" points="565.55,-492.4 565.72,-481.8 558.98,-489.98 565.55,-492.4"/>
</g>
<!-- Water Paddler -->
<g id="node6" class="node">
<title>Water Paddler</title>
<g id="a_node6"><a xlink:href="https://ctftime.org/team/155019" xlink:title="Water Paddler">
<ellipse fill="none" stroke="#db4437" cx="414.18" cy="-488.46" rx="66.89" ry="18"/>
<text text-anchor="middle" x="414.18" y="-484.76" font-family="JetBrains Mono" font-size="14.00" fill="#db4437">Water Paddler</text>
</a>
</g>
</g>
<!-- Water Paddler&#45;&gt;DEFCON_QUALS -->
<g id="edge5" class="edge">
<title>Water Paddler&#45;&gt;DEFCON_QUALS</title>
<path fill="none" stroke="black" stroke-width="2" d="M472.2,-479.35C479.62,-478.19 487.3,-476.98 494.97,-475.78"/>
<polygon fill="black" stroke="black" stroke-width="2" points="495.67,-479.21 505.01,-474.2 494.59,-472.29 495.67,-479.21"/>
</g>
<!-- PTB_WTL -->
<g id="node7" class="node">
<title>PTB_WTL</title>
<g id="a_node7"><a xlink:href="https://ctftime.org/team/119975" xlink:title="PTB_WTL">
<ellipse fill="none" stroke="#db4437" cx="472.17" cy="-590.33" rx="51.99" ry="18"/>
<text text-anchor="middle" x="472.17" y="-586.63" font-family="JetBrains Mono" font-size="14.00" fill="#db4437">PTB_WTL</text>
</a>
</g>
</g>
<!-- PTB_WTL&#45;&gt;DEFCON_QUALS -->
<g id="edge6" class="edge">
<title>PTB_WTL&#45;&gt;DEFCON_QUALS</title>
<path fill="none" stroke="black" stroke-width="2" d="M486.11,-572.71C503.22,-551.09 532.37,-514.23 552,-489.41"/>
<polygon fill="black" stroke="black" stroke-width="2" points="554.8,-491.51 558.26,-481.5 549.31,-487.17 554.8,-491.51"/>
</g>
<!-- ./V /home/r/.bin/tw -->
<g id="node8" class="node">
<title>./V /home/r/.bin/tw</title>
<g id="a_node8"><a xlink:href="https://ctftime.org/team/189869" xlink:title="./V /home/r/.bin/tw">
<ellipse fill="none" stroke="#db4437" cx="857.53" cy="-560.14" rx="81.79" ry="18"/>
<text text-anchor="middle" x="857.53" y="-556.44" font-family="JetBrains Mono" font-size="14.00" fill="#db4437">./V /home/r/.bin/tw</text>
</a>
</g>
</g>
<!-- ./V /home/r/.bin/tw&#45;&gt;DEFCON_QUALS -->
<g id="edge7" class="edge">
<title>./V /home/r/.bin/tw&#45;&gt;DEFCON_QUALS</title>
<path fill="none" stroke="black" stroke-width="2" d="M819.66,-544.14C774.28,-524.96 704.3,-495.4 704.3,-495.4 704.3,-495.4 671.15,-487.41 638.09,-479.45"/>
<polygon fill="black" stroke="black" stroke-width="2" points="638.88,-476.04 628.34,-477.1 637.24,-482.84 638.88,-476.04"/>
</g>
<!-- Straw Hat -->
<g id="node9" class="node">
<title>Straw Hat</title>
<g id="a_node9"><a xlink:href="https://ctftime.org/team/19208" xlink:title="Straw Hat">
<ellipse fill="none" stroke="#db4437" cx="319.32" cy="-367.7" rx="49.29" ry="18"/>
<text text-anchor="middle" x="319.32" y="-364" font-family="JetBrains Mono" font-size="14.00" fill="#db4437">Straw Hat</text>
</a>
</g>
</g>
<!-- Straw Hat&#45;&gt;DEFCON_QUALS -->
<g id="edge8" class="edge">
<title>Straw Hat&#45;&gt;DEFCON_QUALS</title>
<path fill="none" stroke="black" stroke-width="2" d="M343.46,-383.5C366.69,-398.71 398.34,-419.42 398.34,-419.42 398.34,-419.42 458.85,-434.78 508.51,-447.4"/>
<polygon fill="black" stroke="black" stroke-width="2" points="507.73,-450.81 518.28,-449.88 509.45,-444.02 507.73,-450.81"/>
</g>
<!-- PPP -->
<g id="node10" class="node">
<title>PPP</title>
<g id="a_node10"><a xlink:href="https://ctftime.org/team/284" xlink:title="PPP">
<ellipse fill="none" stroke="#db4437" cx="598.37" cy="-337.8" rx="28.7" ry="18"/>
<text text-anchor="middle" x="598.37" y="-334.1" font-family="JetBrains Mono" font-size="14.00" fill="#db4437">PPP</text>
</a>
</g>
</g>
<!-- PPP&#45;&gt;DEFCON_QUALS -->
<g id="edge9" class="edge">
<title>PPP&#45;&gt;DEFCON_QUALS</title>
<path fill="none" stroke="black" stroke-width="2" d="M594.65,-355.83C590.35,-376.66 583.22,-411.2 578.19,-435.56"/>
<polygon fill="black" stroke="black" stroke-width="2" points="574.71,-435.13 576.11,-445.63 581.56,-436.54 574.71,-435.13"/>
</g>
<!-- Katzebin -->
<g id="node11" class="node">
<title>Katzebin</title>
<g id="a_node11"><a xlink:href="https://ctftime.org/team/141539" xlink:title="Katzebin">
<ellipse fill="none" stroke="#db4437" cx="431.3" cy="-405.61" rx="44.69" ry="18"/>
<text text-anchor="middle" x="431.3" y="-401.91" font-family="JetBrains Mono" font-size="14.00" fill="#db4437">Katzebin</text>
</a>
</g>
</g>
<!-- Katzebin&#45;&gt;DEFCON_QUALS -->
<g id="edge10" class="edge">
<title>Katzebin&#45;&gt;DEFCON_QUALS</title>
<path fill="none" stroke="black" stroke-width="2" d="M462.96,-418.63C480.99,-426.04 503.94,-435.48 524.17,-443.79"/>
<polygon fill="black" stroke="black" stroke-width="2" points="522.96,-447.08 533.54,-447.64 525.62,-440.6 522.96,-447.08"/>
</g>
<!-- StarBugs -->
<g id="node12" class="node">
<title>StarBugs</title>
<g id="a_node12"><a xlink:href="https://ctftime.org/team/152239" xlink:title="StarBugs">
<ellipse fill="none" stroke="#db4437" cx="460.43" cy="-243.9" rx="46.59" ry="18"/>
<text text-anchor="middle" x="460.43" y="-240.2" font-family="JetBrains Mono" font-size="14.00" fill="#db4437">StarBugs</text>
</a>
</g>
</g>
<!-- StarBugs&#45;&gt;DEFCON_QUALS -->
<g id="edge11" class="edge">
<title>StarBugs&#45;&gt;DEFCON_QUALS</title>
<path fill="none" stroke="black" stroke-width="2" d="M475.64,-261.25C501.23,-290.43 550.12,-346.17 550.12,-346.17 550.12,-346.17 560.46,-400.71 567.06,-435.46"/>
<polygon fill="black" stroke="black" stroke-width="2" points="563.66,-436.35 568.97,-445.53 570.54,-435.05 563.66,-436.35"/>
</g>
<!-- Shellphish -->
<g id="node13" class="node">
<title>Shellphish</title>
<g id="a_node13"><a xlink:href="https://ctftime.org/team/285" xlink:title="Shellphish">
<ellipse fill="none" stroke="#db4437" cx="681.46" cy="-402.71" rx="51.19" ry="18"/>
<text text-anchor="middle" x="681.46" y="-399.01" font-family="JetBrains Mono" font-size="14.00" fill="#db4437">Shellphish</text>
</a>
</g>
</g>
<!-- Shellphish&#45;&gt;DEFCON_QUALS -->
<g id="edge12" class="edge">
<title>Shellphish&#45;&gt;DEFCON_QUALS</title>
<path fill="none" stroke="black" stroke-width="2" d="M653.94,-418.08C641.1,-425.25 625.59,-433.91 611.56,-441.75"/>
<polygon fill="black" stroke="black" stroke-width="2" points="609.62,-438.82 602.6,-446.75 613.03,-444.93 609.62,-438.82"/>
</g>
<!-- r3kapig -->
<g id="node14" class="node">
<title>r3kapig</title>
<g id="a_node14"><a xlink:href="https://ctftime.org/team/58979" xlink:title="r3kapig">
<ellipse fill="none" stroke="#db4437" cx="674.9" cy="-509.14" rx="39.79" ry="18"/>
<text text-anchor="middle" x="674.9" y="-505.44" font-family="JetBrains Mono" font-size="14.00" fill="#db4437">r3kapig</text>
</a>
</g>
</g>
<!-- r3kapig&#45;&gt;DEFCON_QUALS -->
<g id="edge13" class="edge">
<title>r3kapig&#45;&gt;DEFCON_QUALS</title>
<path fill="none" stroke="black" stroke-width="2" d="M646.35,-496.46C637.64,-492.59 627.84,-488.24 618.28,-484"/>
<polygon fill="black" stroke="black" stroke-width="2" points="619.43,-480.68 608.87,-479.82 616.58,-487.07 619.43,-480.68"/>
</g>
<!-- DiceGuesser -->
<g id="node15" class="node">
<title>DiceGuesser</title>
<g id="a_node15"><a xlink:href="https://ctftime.org/team/182504" xlink:title="DiceGuesser">
<ellipse fill="none" stroke="#db4437" cx="705.76" cy="-600.27" rx="61.99" ry="18"/>
<text text-anchor="middle" x="705.76" y="-596.57" font-family="JetBrains Mono" font-size="14.00" fill="#db4437">DiceGuesser</text>
</a>
</g>
</g>
<!-- DiceGuesser&#45;&gt;DEFCON_QUALS -->
<g id="edge14" class="edge">
<title>DiceGuesser&#45;&gt;DEFCON_QUALS</title>
<path fill="none" stroke="black" stroke-width="2" d="M688.59,-582.69C665.32,-558.83 623.6,-516.08 596.99,-488.82"/>
<polygon fill="black" stroke="black" stroke-width="2" points="599.41,-486.28 589.92,-481.57 594.4,-491.17 599.41,-486.28"/>
</g>
<!-- OSUSEC -->
<g id="node16" class="node">
<title>OSUSEC</title>
<g id="a_node16"><a xlink:href="https://ctftime.org/team/12858" xlink:title="OSUSEC">
<ellipse fill="none" stroke="#db4437" cx="500.42" cy="-346.15" rx="48.19" ry="18"/>
<text text-anchor="middle" x="500.42" y="-342.45" font-family="JetBrains Mono" font-size="14.00" fill="#db4437">OSUSEC</text>
</a>
</g>
</g>
<!-- OSUSEC&#45;&gt;DEFCON_QUALS -->
<g id="edge15" class="edge">
<title>OSUSEC&#45;&gt;DEFCON_QUALS</title>
<path fill="none" stroke="black" stroke-width="2" d="M511.2,-363.74C523.05,-383.09 542.25,-414.42 555.98,-436.83"/>
<polygon fill="black" stroke="black" stroke-width="2" points="553.1,-438.83 561.31,-445.53 559.07,-435.17 553.1,-438.83"/>
</g>
<!-- KITCTF -->
<g id="node17" class="node">
<title>KITCTF</title>
<g id="a_node17"><a xlink:href="https://ctftime.org/team/7221" xlink:title="KITCTF">
<ellipse fill="none" stroke="#4285f4" cx="561.45" cy="-835.76" rx="41.69" ry="18"/>
<text text-anchor="middle" x="561.45" y="-832.06" font-family="JetBrains Mono" font-size="14.00" fill="#4285f4">KITCTF</text>
</a>
</g>
</g>
<!-- KITCTF&#45;&gt;Sauercloud -->
<g id="edge16" class="edge">
<title>KITCTF&#45;&gt;Sauercloud</title>
<path fill="none" stroke="grey" stroke-dasharray="5,2" d="M545.58,-818.96C523.89,-796 484.82,-754.62 459.71,-728.04"/>
<polygon fill="grey" stroke="grey" points="462.13,-725.5 452.72,-720.63 457.04,-730.3 462.13,-725.5"/>
</g>
<!-- Eat Sleep Pwn Repeat -->
<g id="node18" class="node">
<title>Eat Sleep Pwn Repeat</title>
<g id="a_node18"><a xlink:href="https://ctftime.org/team/15712" xlink:title="Eat Sleep Pwn Repeat">
<ellipse fill="none" stroke="#4285f4" cx="258.08" cy="-906.4" rx="98.58" ry="18"/>
<text text-anchor="middle" x="258.08" y="-902.7" font-family="JetBrains Mono" font-size="14.00" fill="#4285f4">Eat Sleep Pwn Repeat</text>
</a>
</g>
</g>
<!-- Eat Sleep Pwn Repeat&#45;&gt;Sauercloud -->
<g id="edge17" class="edge">
<title>Eat Sleep Pwn Repeat&#45;&gt;Sauercloud</title>
<path fill="none" stroke="grey" stroke-dasharray="5,2" d="M283.38,-888.89C315.27,-866.81 365.98,-831.7 365.98,-831.7 365.98,-831.7 383.42,-817.9 383.42,-817.9 383.42,-817.9 408.01,-764.42 423.61,-730.47"/>
<polygon fill="grey" stroke="grey" points="426.94,-731.61 427.94,-721.06 420.58,-728.68 426.94,-731.61"/>
</g>
<!-- Flux Fingers -->
<g id="node19" class="node">
<title>Flux Fingers</title>
<g id="a_node19"><a xlink:href="https://ctftime.org/team/551" xlink:title="Flux Fingers">
<ellipse fill="none" stroke="#4285f4" cx="201.42" cy="-846.25" rx="59.29" ry="18"/>
<text text-anchor="middle" x="201.42" y="-842.55" font-family="JetBrains Mono" font-size="14.00" fill="#4285f4">Flux Fingers</text>
</a>
</g>
</g>
<!-- Flux Fingers&#45;&gt;Sauercloud -->
<g id="edge18" class="edge">
<title>Flux Fingers&#45;&gt;Sauercloud</title>
<path fill="none" stroke="grey" stroke-dasharray="5,2" d="M227.9,-830.11C270.37,-804.22 353.75,-753.38 401.12,-724.5"/>
<polygon fill="grey" stroke="grey" points="403.09,-727.4 409.81,-719.21 399.45,-721.42 403.09,-727.4"/>
</g>
<!-- Red Rocket -->
<g id="node20" class="node">
<title>Red Rocket</title>
<g id="a_node20"><a xlink:href="https://allesctf.net/" xlink:title="Red Rocket">
<ellipse fill="none" stroke="#4285f4" cx="325.28" cy="-817.71" rx="56.59" ry="18"/>
<text text-anchor="middle" x="325.28" y="-814.01" font-family="JetBrains Mono" font-size="14.00" fill="#4285f4">Red Rocket</text>
</a>
</g>
</g>
<!-- Red Rocket&#45;&gt;Sauercloud -->
<g id="edge19" class="edge">
<title>Red Rocket&#45;&gt;Sauercloud</title>
<path fill="none" stroke="grey" stroke-dasharray="5,2" d="M342.13,-800.3C360.88,-780.93 391.33,-749.47 412.49,-727.61"/>
<polygon fill="grey" stroke="grey" points="415.11,-729.94 419.55,-720.32 410.08,-725.07 415.11,-729.94"/>
</g>
<!-- Alles! -->
<g id="node21" class="node">
<title>Alles!</title>
<g id="a_node21"><a xlink:href="https://ctftime.org/team/18419" xlink:title="Alles!">
<ellipse fill="none" stroke="#4285f4" cx="213.24" cy="-763.65" rx="32.49" ry="18"/>
<text text-anchor="middle" x="213.24" y="-759.95" font-family="JetBrains Mono" font-size="14.00" fill="#4285f4">Alles!</text>
</a>
</g>
</g>
<!-- Alles!&#45;&gt;Sauercloud -->
<g id="edge20" class="edge">
<title>Alles!&#45;&gt;Sauercloud</title>
<path fill="none" stroke="grey" stroke-dasharray="5,2" d="M242.85,-755.61C278.74,-745.87 339.89,-729.27 383.81,-717.34"/>
<polygon fill="grey" stroke="grey" points="384.73,-720.72 393.46,-714.72 382.9,-713.97 384.73,-720.72"/>
</g>
<!-- ENOFLAG -->
<g id="node22" class="node">
<title>ENOFLAG</title>
<g id="a_node22"><a xlink:href="https://ctftime.org/team/1438" xlink:title="ENOFLAG">
<ellipse fill="none" stroke="#4285f4" cx="183.18" cy="-698.23" rx="53.89" ry="18"/>
<text text-anchor="middle" x="183.18" y="-694.53" font-family="JetBrains Mono" font-size="14.00" fill="#4285f4">ENOFLAG</text>
</a>
</g>
</g>
<!-- ENOFLAG&#45;&gt;Sauercloud -->
<g id="edge21" class="edge">
<title>ENOFLAG&#45;&gt;Sauercloud</title>
<path fill="none" stroke="grey" stroke-dasharray="5,2" d="M237.15,-699.28C276.29,-700.03 329.44,-701.06 370.97,-701.87"/>
<polygon fill="grey" stroke="grey" points="370.93,-705.37 380.99,-702.06 371.06,-698.37 370.93,-705.37"/>
</g>
<!-- FAUST -->
<g id="node23" class="node">
<title>FAUST</title>
<g id="a_node23"><a xlink:href="https://ctftime.org/team/550" xlink:title="FAUST">
<ellipse fill="none" stroke="#4285f4" cx="529.69" cy="-938.62" rx="39.79" ry="18"/>
<text text-anchor="middle" x="529.69" y="-934.92" font-family="JetBrains Mono" font-size="14.00" fill="#4285f4">FAUST</text>
</a>
</g>
</g>
<!-- FAUST&#45;&gt;Sauercloud -->
<g id="edge22" class="edge">
<title>FAUST&#45;&gt;Sauercloud</title>
<path fill="none" stroke="grey" stroke-dasharray="5,2" d="M522.51,-920.53C506.23,-879.52 466.42,-779.27 447.08,-730.57"/>
<polygon fill="grey" stroke="grey" points="450.33,-729.28 443.39,-721.28 443.83,-731.86 450.33,-729.28"/>
</g>
<!-- WizardsOfDos -->
<g id="node24" class="node">
<title>WizardsOfDos</title>
<g id="a_node24"><a xlink:href="https://ctftime.org/team/561" xlink:title="WizardsOfDos">
<ellipse fill="none" stroke="#4285f4" cx="644.71" cy="-894.56" rx="68.49" ry="18"/>
<text text-anchor="middle" x="644.71" y="-890.86" font-family="JetBrains Mono" font-size="14.00" fill="#4285f4">WizardsOfDos</text>
</a>
</g>
</g>
<!-- WizardsOfDos&#45;&gt;Sauercloud -->
<g id="edge23" class="edge">
<title>WizardsOfDos&#45;&gt;Sauercloud</title>
<path fill="none" stroke="grey" stroke-dasharray="5,2" d="M632.47,-876.61C620.69,-859.33 604.64,-835.8 604.64,-835.8 604.64,-835.8 592.05,-821.93 592.05,-821.93 592.05,-821.93 511.49,-760.52 466.2,-726.01"/>
<polygon fill="grey" stroke="grey" points="468.26,-723.17 458.19,-719.9 464.02,-728.74 468.26,-723.17"/>
</g>
<!-- Squareroots -->
<g id="node25" class="node">
<title>Squareroots</title>
<g id="a_node25"><a xlink:href="https://ctftime.org/team/554" xlink:title="Squareroots">
<ellipse fill="none" stroke="#4285f4" cx="423.46" cy="-917.03" rx="58.49" ry="18"/>
<text text-anchor="middle" x="423.46" y="-913.33" font-family="JetBrains Mono" font-size="14.00" fill="#4285f4">Squareroots</text>
</a>
</g>
</g>
<!-- Squareroots&#45;&gt;Sauercloud -->
<g id="edge24" class="edge">
<title>Squareroots&#45;&gt;Sauercloud</title>
<path fill="none" stroke="grey" stroke-dasharray="5,2" d="M424.54,-898.79C426.77,-861.46 431.84,-776.09 434.5,-731.47"/>
<polygon fill="grey" stroke="grey" points="438,-731.51 435.1,-721.32 431.01,-731.09 438,-731.51"/>
</g>
<!-- saarsec -->
<g id="node26" class="node">
<title>saarsec</title>
<g id="a_node26"><a xlink:href="https://ctftime.org/team/15337" xlink:title="saarsec">
<ellipse fill="none" stroke="#4285f4" cx="259.03" cy="-654.21" rx="41.69" ry="18"/>
<text text-anchor="middle" x="259.03" y="-650.51" font-family="JetBrains Mono" font-size="14.00" fill="#4285f4">saarsec</text>
</a>
</g>
</g>
<!-- saarsec&#45;&gt;Sauercloud -->
<g id="edge25" class="edge">
<title>saarsec&#45;&gt;Sauercloud</title>
<path fill="none" stroke="grey" stroke-dasharray="5,2" d="M294.45,-663.99C320.1,-671.08 355.19,-680.76 384.04,-688.73"/>
<polygon fill="grey" stroke="grey" points="383.39,-692.18 393.96,-691.47 385.25,-685.43 383.39,-692.18"/>
</g>
<!-- perfect blue -->
<g id="node27" class="node">
<title>perfect blue</title>
<g id="a_node27"><a xlink:href="https://ctftime.org/team/53802" xlink:title="perfect blue">
<ellipse fill="none" stroke="#4285f4" cx="1009.71" cy="-267.5" rx="56.59" ry="18"/>
<text text-anchor="middle" x="1009.71" y="-263.8" font-family="JetBrains Mono" font-size="14.00" fill="#4285f4">perfect blue</text>
</a>
</g>
</g>
<!-- perfect blue&#45;&gt;perfect r✪✪✪t -->
<g id="edge26" class="edge">
<title>perfect blue&#45;&gt;perfect r✪✪✪t</title>
<path fill="none" stroke="grey" stroke-dasharray="5,2" d="M977.33,-282.36C944.09,-297.6 892.15,-321.42 855.14,-338.39"/>
<polygon fill="grey" stroke="grey" points="853.23,-335.41 845.6,-342.76 856.15,-341.78 853.23,-335.41"/>
</g>
<!-- r00timentary -->
<g id="node28" class="node">
<title>r00timentary</title>
<g id="a_node28"><a xlink:href="https://ctftime.org/team/32783" xlink:title="r00timentary">
<ellipse fill="none" stroke="#4285f4" cx="1037.78" cy="-369.98" rx="59.59" ry="18"/>
<text text-anchor="middle" x="1037.78" y="-366.28" font-family="JetBrains Mono" font-size="14.00" fill="#4285f4">r00timentary</text>
</a>
</g>
</g>
<!-- r00timentary&#45;&gt;perfect r✪✪✪t -->
<g id="edge27" class="edge">
<title>r00timentary&#45;&gt;perfect r✪✪✪t</title>
<path fill="none" stroke="grey" stroke-dasharray="5,2" d="M978.76,-367.04C952.68,-365.74 921.57,-364.19 893.26,-362.78"/>
<polygon fill="grey" stroke="grey" points="893.14,-359.27 882.97,-362.27 892.79,-366.27 893.14,-359.27"/>
</g>
<!-- Samsung Research -->
<g id="node29" class="node">
<title>Samsung Research</title>
<ellipse fill="none" stroke="#4285f4" cx="942.41" cy="-182.16" rx="88.28" ry="18"/>
<text text-anchor="middle" x="942.41" y="-178.46" font-family="JetBrains Mono" font-size="14.00" fill="#4285f4">Samsung Research</text>
</g>
<!-- Samsung Research&#45;&gt;perfect r✪✪✪t -->
<g id="edge28" class="edge">
<title>Samsung Research&#45;&gt;perfect r✪✪✪t</title>
<path fill="none" stroke="grey" stroke-dasharray="5,2" d="M929.07,-200.06C905.73,-231.38 857.4,-296.25 830.33,-332.58"/>
<polygon fill="grey" stroke="grey" points="827.42,-330.63 824.25,-340.74 833.04,-334.81 827.42,-330.63"/>
</g>
<!-- Balsn -->
<g id="node30" class="node">
<title>Balsn</title>
<g id="a_node30"><a xlink:href="https://ctftime.org/team/16978" xlink:title="Balsn">
<ellipse fill="none" stroke="#4285f4" cx="793.02" cy="-54.14" rx="32.49" ry="18"/>
<text text-anchor="middle" x="793.02" y="-50.44" font-family="JetBrains Mono" font-size="14.00" fill="#4285f4">Balsn</text>
</a>
</g>
</g>
<!-- Balsn&#45;&gt;Balsn.217@TSJ.tw -->
<g id="edge29" class="edge">
<title>Balsn&#45;&gt;Balsn.217@TSJ.tw</title>
<path fill="none" stroke="grey" stroke-dasharray="5,2" d="M780.45,-70.78C757.11,-101.69 706.92,-168.14 679.05,-205.05"/>
<polygon fill="grey" stroke="grey" points="676.03,-203.24 672.8,-213.33 681.62,-207.45 676.03,-203.24"/>
</g>
<!-- 217 -->
<g id="node31" class="node">
<title>217</title>
<g id="a_node31"><a xlink:href="https://ctftime.org/team/5160" xlink:title="217">
<ellipse fill="none" stroke="#4285f4" cx="870.69" cy="-121.09" rx="27" ry="18"/>
<text text-anchor="middle" x="870.69" y="-117.39" font-family="JetBrains Mono" font-size="14.00" fill="#4285f4">217</text>
</a>
</g>
</g>
<!-- 217&#45;&gt;Balsn.217@TSJ.tw -->
<g id="edge30" class="edge">
<title>217&#45;&gt;Balsn.217@TSJ.tw</title>
<path fill="none" stroke="grey" stroke-dasharray="5,2" d="M849.27,-132.24C814.49,-150.35 745.17,-186.44 700.6,-209.65"/>
<polygon fill="grey" stroke="grey" points="698.73,-206.67 691.48,-214.39 701.97,-212.88 698.73,-206.67"/>
</g>
<!-- TSJ -->
<g id="node32" class="node">
<title>TSJ</title>
<g id="a_node32"><a xlink:href="https://ctftime.org/team/150366" xlink:title="TSJ">
<ellipse fill="none" stroke="#4285f4" cx="690.63" cy="-18" rx="27" ry="18"/>
<text text-anchor="middle" x="690.63" y="-14.3" font-family="JetBrains Mono" font-size="14.00" fill="#4285f4">TSJ</text>
</a>
</g>
</g>
<!-- TSJ&#45;&gt;Balsn.217@TSJ.tw -->
<g id="edge31" class="edge">
<title>TSJ&#45;&gt;Balsn.217@TSJ.tw</title>
<path fill="none" stroke="grey" stroke-dasharray="5,2" d="M687.96,-36.17C682.51,-73.36 670.03,-158.41 663.51,-202.87"/>
<polygon fill="grey" stroke="grey" points="660.02,-202.58 662.03,-212.98 666.94,-203.6 660.02,-202.58"/>
</g>
<!-- HITCON -->
<g id="node33" class="node">
<title>HITCON</title>
<g id="a_node33"><a xlink:href="https://ctftime.org/team/8299" xlink:title="HITCON">
<ellipse fill="none" stroke="#4285f4" cx="587.5" cy="-20.44" rx="44.69" ry="18"/>
<text text-anchor="middle" x="587.5" y="-16.74" font-family="JetBrains Mono" font-size="14.00" fill="#4285f4">HITCON</text>
</a>
</g>
</g>
<!-- HITCON&#45;&gt;Balsn.217@TSJ.tw -->
<g id="edge32" class="edge">
<title>HITCON&#45;&gt;Balsn.217@TSJ.tw</title>
<path fill="none" stroke="grey" stroke-dasharray="5,2" d="M593.63,-38.4C606.19,-75.23 634.95,-159.53 649.92,-203.41"/>
<polygon fill="grey" stroke="grey" points="646.62,-204.56 653.16,-212.89 653.24,-202.3 646.62,-204.56"/>
</g>
<!-- PwnThyBytes -->
<g id="node34" class="node">
<title>PwnThyBytes</title>
<g id="a_node34"><a xlink:href="https://ctftime.org/team/59199" xlink:title="PwnThyBytes">
<ellipse fill="none" stroke="#4285f4" cx="197.01" cy="-555.39" rx="64.19" ry="18"/>
<text text-anchor="middle" x="197.01" y="-551.69" font-family="JetBrains Mono" font-size="14.00" fill="#4285f4">PwnThyBytes</text>
</a>
</g>
</g>
<!-- PwnThyBytes&#45;&gt;PTB_WTL -->
<g id="edge33" class="edge">
<title>PwnThyBytes&#45;&gt;PTB_WTL</title>
<path fill="none" stroke="grey" stroke-dasharray="5,2" d="M255.7,-562.85C302.17,-568.75 366.77,-576.95 413.29,-582.86"/>
<polygon fill="grey" stroke="grey" points="412.86,-586.33 423.22,-584.12 413.74,-579.39 412.86,-586.33"/>
</g>
<!-- WreckTheLine -->
<g id="node35" class="node">
<title>WreckTheLine</title>
<g id="a_node35"><a xlink:href="https://ctftime.org/team/57908" xlink:title="WreckTheLine">
<ellipse fill="none" stroke="#4285f4" cx="678.83" cy="-820.63" rx="67.69" ry="18"/>
<text text-anchor="middle" x="678.83" y="-816.93" font-family="JetBrains Mono" font-size="14.00" fill="#4285f4">WreckTheLine</text>
</a>
</g>
</g>
<!-- WreckTheLine&#45;&gt;PTB_WTL -->
<g id="edge34" class="edge">
<title>WreckTheLine&#45;&gt;PTB_WTL</title>
<path fill="none" stroke="grey" stroke-dasharray="5,2" d="M662.96,-802.94C626.51,-762.32 536.71,-662.25 494.62,-615.35"/>
<polygon fill="grey" stroke="grey" points="497.1,-612.87 487.82,-607.77 491.89,-617.55 497.1,-612.87"/>
</g>
<!-- ./Vespiary -->
<g id="node36" class="node">
<title>./Vespiary</title>
<g id="a_node36"><a xlink:href="https://ctftime.org/team/80092" xlink:title="./Vespiary">
<ellipse fill="none" stroke="#4285f4" cx="1042.04" cy="-586.11" rx="50.09" ry="18"/>
<text text-anchor="middle" x="1042.04" y="-582.41" font-family="JetBrains Mono" font-size="14.00" fill="#4285f4">./Vespiary</text>
</a>
</g>
</g>
<!-- ./Vespiary&#45;&gt;./V /home/r/.bin/tw -->
<g id="edge35" class="edge">
<title>./Vespiary&#45;&gt;./V /home/r/.bin/tw</title>
<path fill="none" stroke="grey" stroke-dasharray="5,2" d="M995,-579.49C977.28,-577 956.61,-574.09 936.75,-571.29"/>
<polygon fill="grey" stroke="grey" points="937.17,-567.82 926.78,-569.89 936.19,-574.75 937.17,-567.82"/>
</g>
<!-- RicercaSec -->
<g id="node37" class="node">
<title>RicercaSec</title>
<ellipse fill="none" stroke="#4285f4" cx="977.44" cy="-720.67" rx="55.79" ry="18"/>
<text text-anchor="middle" x="977.44" y="-716.97" font-family="JetBrains Mono" font-size="14.00" fill="#4285f4">RicercaSec</text>
</g>
<!-- RicercaSec&#45;&gt;./V /home/r/.bin/tw -->
<g id="edge36" class="edge">
<title>RicercaSec&#45;&gt;./V /home/r/.bin/tw</title>
<path fill="none" stroke="grey" stroke-dasharray="5,2" d="M963.26,-703.2C941.87,-676.86 903.86,-630.05 903.86,-630.05 903.86,-630.05 888.17,-606.38 875.06,-586.59"/>
<polygon fill="grey" stroke="grey" points="877.9,-584.55 869.46,-578.14 872.07,-588.41 877.9,-584.55"/>
</g>
<!-- binja -->
<g id="node38" class="node">
<title>binja</title>
<g id="a_node38"><a xlink:href="https://ctftime.org/team/9083" xlink:title="binja">
<ellipse fill="none" stroke="#4285f4" cx="870.33" cy="-819.05" rx="29.5" ry="18"/>
<text text-anchor="middle" x="870.33" y="-815.35" font-family="JetBrains Mono" font-size="14.00" fill="#4285f4">binja</text>
</a>
</g>
</g>
<!-- binja&#45;&gt;./V /home/r/.bin/tw -->
<g id="edge37" class="edge">
<title>binja&#45;&gt;./V /home/r/.bin/tw</title>
<path fill="none" stroke="grey" stroke-dasharray="5,2" d="M856.74,-802.88C846.16,-790.29 833.26,-774.95 833.26,-774.95 833.26,-774.95 847.73,-646.84 854.33,-588.49"/>
<polygon fill="grey" stroke="grey" points="857.82,-588.79 855.46,-578.46 850.86,-588 857.82,-588.79"/>
</g>
<!-- TokyoWesterns -->
<g id="node39" class="node">
<title>TokyoWesterns</title>
<g id="a_node39"><a xlink:href="https://ctftime.org/team/12599" xlink:title="TokyoWesterns">
<ellipse fill="none" stroke="#4285f4" cx="1030.17" cy="-483.65" rx="70.69" ry="18"/>
<text text-anchor="middle" x="1030.17" y="-479.95" font-family="JetBrains Mono" font-size="14.00" fill="#4285f4">TokyoWesterns</text>
</a>
</g>
</g>
<!-- TokyoWesterns&#45;&gt;./V /home/r/.bin/tw -->
<g id="edge38" class="edge">
<title>TokyoWesterns&#45;&gt;./V /home/r/.bin/tw</title>
<path fill="none" stroke="grey" stroke-dasharray="5,2" d="M994.82,-499.31C968.41,-511.02 932.08,-527.11 903.43,-539.81"/>
<polygon fill="grey" stroke="grey" points="901.75,-536.72 894.03,-543.97 904.59,-543.12 901.75,-536.72"/>
</g>
<!-- Nu1L -->
<g id="node40" class="node">
<title>Nu1L</title>
<g id="a_node40"><a xlink:href="https://ctftime.org/team/19208" xlink:title="Nu1L">
<ellipse fill="none" stroke="#4285f4" cx="220.47" cy="-170.03" rx="31.7" ry="18"/>
<text text-anchor="middle" x="220.47" y="-166.33" font-family="JetBrains Mono" font-size="14.00" fill="#4285f4">Nu1L</text>
</a>
</g>
</g>
<!-- Nu1L&#45;&gt;Straw Hat -->
<g id="edge39" class="edge">
<title>Nu1L&#45;&gt;Straw Hat</title>
<path fill="none" stroke="grey" stroke-dasharray="5,2" d="M237.96,-185.31C261.18,-205.59 299.27,-238.88 299.27,-238.88 299.27,-238.88 309.04,-301.65 314.94,-339.55"/>
<polygon fill="grey" stroke="grey" points="311.49,-340.17 316.49,-349.51 318.41,-339.09 311.49,-340.17"/>
</g>
<!-- w&amp;m -->
<g id="node41" class="node">
<title>w&amp;m</title>
<g id="a_node41"><a xlink:href="https://ctftime.org/team/54666" xlink:title="w&amp;m">
<ellipse fill="none" stroke="#4285f4" cx="100.73" cy="-426.25" rx="30.59" ry="18"/>
<text text-anchor="middle" x="100.73" y="-422.55" font-family="JetBrains Mono" font-size="14.00" fill="#4285f4">w&amp;m</text>
</a>
</g>
</g>
<!-- w&amp;m&#45;&gt;Straw Hat -->
<g id="edge40" class="edge">
<title>w&amp;m&#45;&gt;Straw Hat</title>
<path fill="none" stroke="grey" stroke-dasharray="5,2" d="M128.86,-418.71C164.37,-409.2 226.08,-392.67 269.62,-381.01"/>
<polygon fill="grey" stroke="grey" points="270.69,-384.35 279.44,-378.38 268.88,-377.58 270.69,-384.35"/>
</g>
<!-- Super Rookies -->
<g id="node42" class="node">
<title>Super Rookies</title>
<ellipse fill="none" stroke="#4285f4" cx="107.55" cy="-330.38" rx="68.49" ry="18"/>
<text text-anchor="middle" x="107.55" y="-326.68" font-family="JetBrains Mono" font-size="14.00" fill="#4285f4">Super Rookies</text>
</g>
<!-- Super Rookies&#45;&gt;Straw Hat -->
<g id="edge41" class="edge">
<title>Super Rookies&#45;&gt;Straw Hat</title>
<path fill="none" stroke="grey" stroke-dasharray="5,2" d="M164.3,-340.38C195.45,-345.87 233.89,-352.64 264.7,-358.07"/>
<polygon fill="grey" stroke="grey" points="264.38,-361.57 274.83,-359.86 265.59,-354.68 264.38,-361.57"/>
</g>
<!-- &lt;Experienced independent sailors&gt; -->
<g id="node43" class="node">
<title>&lt;Experienced independent sailors&gt;</title>
<ellipse fill="none" stroke="#4285f4" cx="148.84" cy="-238.83" rx="148.67" ry="18"/>
<text text-anchor="middle" x="148.84" y="-235.13" font-family="JetBrains Mono" font-size="14.00" fill="#4285f4">&lt;Experienced independent sailors&gt;</text>
</g>
<!-- &lt;Experienced independent sailors&gt;&#45;&gt;Straw Hat -->
<g id="edge42" class="edge">
<title>&lt;Experienced independent sailors&gt;&#45;&gt;Straw Hat</title>
<path fill="none" stroke="grey" stroke-dasharray="5,2" d="M172.54,-256.75C203.16,-279.89 256.45,-320.18 289.7,-345.31"/>
<polygon fill="grey" stroke="grey" points="287.61,-348.12 297.7,-351.36 291.83,-342.53 287.61,-348.12"/>
</g>
<!-- DiceGang -->
<g id="node44" class="node">
<title>DiceGang</title>
<g id="a_node44"><a xlink:href="https://ctftime.org/team/109452" xlink:title="DiceGang">
<ellipse fill="none" stroke="#4285f4" cx="884.9" cy="-775.04" rx="50.09" ry="18"/>
<text text-anchor="middle" x="884.9" y="-771.34" font-family="JetBrains Mono" font-size="14.00" fill="#4285f4">DiceGang</text>
</a>
</g>
</g>
<!-- DiceGang&#45;&gt;DiceGuesser -->
<g id="edge43" class="edge">
<title>DiceGang&#45;&gt;DiceGuesser</title>
<path fill="none" stroke="grey" stroke-dasharray="5,2" d="M867.4,-757.97C835.51,-726.85 767.83,-660.83 730.97,-624.87"/>
<polygon fill="grey" stroke="grey" points="733.2,-622.15 723.6,-617.67 728.31,-627.16 733.2,-622.15"/>
</g>
<!-- SuperGuesser -->
<g id="node45" class="node">
<title>SuperGuesser</title>
<g id="a_node45"><a xlink:href="https://ctftime.org/team/130817" xlink:title="SuperGuesser">
<ellipse fill="none" stroke="#4285f4" cx="973.05" cy="-630.14" rx="67.69" ry="18"/>
<text text-anchor="middle" x="973.05" y="-626.44" font-family="JetBrains Mono" font-size="14.00" fill="#4285f4">SuperGuesser</text>
</a>
</g>
</g>
<!-- SuperGuesser&#45;&gt;DiceGuesser -->
<g id="edge44" class="edge">
<title>SuperGuesser&#45;&gt;DiceGuesser</title>
<path fill="none" stroke="grey" stroke-dasharray="5,2" d="M910.72,-623.17C869.67,-618.59 815.94,-612.58 773.79,-607.87"/>
<polygon fill="grey" stroke="grey" points="773.94,-604.37 763.61,-606.74 773.16,-611.32 773.94,-604.37"/>
</g>
<!-- CodeRed -->
<g id="node46" class="node">
<title>CodeRed</title>
<g id="a_node46"><a xlink:href="https://ctftime.org/team/4004" xlink:title="CodeRed">
<ellipse fill="none" stroke="#4285f4" cx="288.77" cy="-105.68" rx="48.19" ry="18"/>
<text text-anchor="middle" x="288.77" y="-101.98" font-family="JetBrains Mono" font-size="14.00" fill="#4285f4">CodeRed</text>
</a>
</g>
</g>
<!-- CodeRed&#45;&gt;StarBugs -->
<g id="edge45" class="edge">
<title>CodeRed&#45;&gt;StarBugs</title>
<path fill="none" stroke="grey" stroke-dasharray="5,2" d="M309.14,-122.08C339.72,-146.71 397.61,-193.32 432.24,-221.2"/>
<polygon fill="grey" stroke="grey" points="430.11,-223.98 440.09,-227.52 434.5,-218.52 430.11,-223.98"/>
</g>
<!-- GYG -->
<g id="node47" class="node">
<title>GYG</title>
<g id="a_node47"><a xlink:href="https://ctftime.org/team/33362" xlink:title="GYG">
<ellipse fill="none" stroke="#4285f4" cx="490.62" cy="-21.49" rx="31.4" ry="18"/>
<text text-anchor="middle" x="490.62" y="-17.79" font-family="JetBrains Mono" font-size="14.00" fill="#4285f4">GYG</text>
</a>
</g>
</g>
<!-- GYG&#45;&gt;StarBugs -->
<g id="edge46" class="edge">
<title>GYG&#45;&gt;StarBugs</title>
<path fill="none" stroke="grey" stroke-dasharray="5,2" d="M488.15,-39.69C482.88,-78.48 470.53,-169.51 464.24,-215.8"/>
<polygon fill="grey" stroke="grey" points="460.77,-215.38 462.89,-225.76 467.71,-216.32 460.77,-215.38"/>
</g>
<!-- SED -->
<g id="node48" class="node">
<title>SED</title>
<g id="a_node48"><a xlink:href="https://ctftime.org/team/70332" xlink:title="SED">
<ellipse fill="none" stroke="#4285f4" cx="380.51" cy="-43.6" rx="28.7" ry="18"/>
<text text-anchor="middle" x="380.51" y="-39.9" font-family="JetBrains Mono" font-size="14.00" fill="#4285f4">SED</text>
</a>
</g>
</g>
<!-- SED&#45;&gt;StarBugs -->
<g id="edge47" class="edge">
<title>SED&#45;&gt;StarBugs</title>
<path fill="none" stroke="grey" stroke-dasharray="5,2" d="M387.6,-61.38C401.58,-96.4 432.76,-174.56 449.43,-216.33"/>
<polygon fill="grey" stroke="grey" points="446.28,-217.88 453.24,-225.88 452.78,-215.29 446.28,-217.88"/>
</g>
</g>
</svg>
